<svg width="33" height="32" viewBox="0 0 33 32" fill="none" xmlns="http://www.w3.org/2000/svg">
<g clip-path="url(#clip0_15093_27263)">
<g clip-path="url(#clip1_15093_27263)">
<path d="M20.472 27H6.41645C4.56234 27 3.05534 25.493 3.05534 23.6389V4.69442C3.05534 2.84031 4.56234 1.33331 6.41645 1.33331H20.472C22.3261 1.33331 23.8331 2.84031 23.8331 4.69442V23.6389C23.8331 25.493 22.3261 27 20.472 27Z" fill="#F1CC52"/>
<path d="M14.0553 1.33331H6.41645C4.56234 1.33331 3.05534 2.84031 3.05534 4.69442V23.6389C3.05534 25.493 4.56234 27 6.41645 27H14.0553V1.33331Z" fill="#ECBB18"/>
<path d="M26.5833 30.6667H12.5278C10.6737 30.6667 9.16667 29.1597 9.16667 27.3056V9.58334C9.16667 7.72923 10.6737 6.22223 12.5278 6.22223H26.5833C28.4374 6.22223 29.9444 7.72923 29.9444 9.58334V27.3056C29.9444 29.1597 28.4374 30.6667 26.5833 30.6667Z" fill="#40C7A7"/>
<path d="M24.1387 22.1111H14.972C14.466 22.1111 14.0553 21.7004 14.0553 21.1944C14.0553 20.6884 14.466 20.2778 14.972 20.2778H24.1387C24.6447 20.2778 25.0553 20.6884 25.0553 21.1944C25.0553 21.7004 24.6447 22.1111 24.1387 22.1111Z" fill="black"/>
<path d="M24.1387 27H14.972C14.466 27 14.0553 26.5893 14.0553 26.0833C14.0553 25.5773 14.466 25.1666 14.972 25.1666H24.1387C24.6447 25.1666 25.0553 25.5773 25.0553 26.0833C25.0553 26.5893 24.6447 27 24.1387 27Z" fill="black"/>
<path d="M24.1387 17.8333H14.972C14.466 17.8333 14.0553 17.4227 14.0553 16.9167C14.0553 16.4107 14.466 16 14.972 16H24.1387C24.6447 16 25.0553 16.4107 25.0553 16.9167C25.0553 17.4227 24.6447 17.8333 24.1387 17.8333Z" fill="black"/>
<path d="M24.1387 12.9445H14.972C14.466 12.9445 14.0553 12.5338 14.0553 12.0278C14.0553 11.5218 14.466 11.1111 14.972 11.1111H24.1387C24.6447 11.1111 25.0553 11.5218 25.0553 12.0278C25.0553 12.5338 24.6447 12.9445 24.1387 12.9445Z" fill="black"/>
<path d="M19.5556 6.22223H12.5278C10.6737 6.22223 9.16667 7.72923 9.16667 9.58334V27.3056C9.16667 29.1597 10.6737 30.6667 12.5278 30.6667H19.5556V27H14.9722C14.4662 27 14.0556 26.5893 14.0556 26.0833C14.0556 25.5773 14.4662 25.1667 14.9722 25.1667H19.5556V22.1111H14.9722C14.4662 22.1111 14.0556 21.7004 14.0556 21.1944C14.0556 20.6884 14.4662 20.2778 14.9722 20.2778H19.5556V17.8333H14.9722C14.4662 17.8333 14.0556 17.4227 14.0556 16.9167C14.0556 16.4107 14.4662 16 14.9722 16H19.5556V12.9445H14.9722C14.4662 12.9445 14.0556 12.5338 14.0556 12.0278C14.0556 11.5218 14.4662 11.1111 14.9722 11.1111H19.5556V6.22223Z" fill="#00B589"/>
<path d="M19.5553 20.2778H14.972C14.466 20.2778 14.0553 20.6884 14.0553 21.1944C14.0553 21.7004 14.466 22.1111 14.972 22.1111H19.5553V20.2778Z" fill="#BFEDE1"/>
<path d="M19.5553 25.1666H14.972C14.466 25.1666 14.0553 25.5773 14.0553 26.0833C14.0553 26.5893 14.466 27 14.972 27H19.5553V25.1666Z" fill="#BFEDE1"/>
<path d="M19.5553 16H14.972C14.466 16 14.0553 16.4107 14.0553 16.9167C14.0553 17.4227 14.466 17.8333 14.972 17.8333H19.5553V16Z" fill="#BFEDE1"/>
<path d="M19.5553 11.1111H14.972C14.466 11.1111 14.0553 11.5218 14.0553 12.0278C14.0553 12.5338 14.466 12.9445 14.972 12.9445H19.5553V11.1111Z" fill="#BFEDE1"/>
</g>
</g>
<defs>
<clipPath id="clip0_15093_27263">
<rect width="32" height="32" fill="white" transform="translate(0.5)"/>
</clipPath>
<clipPath id="clip1_15093_27263">
<rect width="29.3333" height="29.3333" fill="white" transform="translate(1.83334 1.33331)"/>
</clipPath>
</defs>
</svg>
