<svg width="33" height="32" viewBox="0 0 33 32" fill="none" xmlns="http://www.w3.org/2000/svg">
<g clip-path="url(#clip0_15093_27257)">
<g clip-path="url(#clip1_15093_27257)">
<path d="M23.1239 14.344V14.676C23.1239 15.0829 23.1895 15.487 23.3181 15.8729L24.0702 18.129H25.4895V12.9246H24.5433C23.7594 12.9247 23.1239 13.5601 23.1239 14.344Z" fill="#3D3938"/>
<path d="M29.6018 15.3268L28.8012 18.129L25.0162 14.8172C24.4936 14.8172 24.07 14.3935 24.07 13.8709C24.07 13.0871 24.7055 12.4516 25.4894 12.4516H28.8012C29.3238 12.4516 29.7474 12.8753 29.7474 13.3978V14.2871C29.7474 14.6387 29.6984 14.9886 29.6018 15.3268Z" fill="#4C4846"/>
<path d="M27.8544 19.5486H25.0157V21.6426H27.8544V19.5486Z" fill="#E6AF78"/>
<path d="M25.0161 20.4174C25.4549 20.5957 25.9334 20.6961 26.4354 20.6961C26.9375 20.6961 27.416 20.5957 27.8548 20.4174V19.5483H25.0161V20.4174Z" fill="#D29B6E"/>
<path d="M30.1373 21.3482L27.8548 20.6961L26.4356 21.6379L25.0163 20.696L22.7339 21.3482C22.1245 21.5223 21.7045 22.0792 21.7045 22.7129V26.172C21.7045 26.4333 21.9163 26.6451 22.1776 26.6451H30.6937C30.955 26.6451 31.1668 26.4333 31.1668 26.172V22.7129C31.1668 22.0792 30.7467 21.5223 30.1373 21.3482Z" fill="#00B589"/>
<path d="M26.4354 20.0215C24.8676 20.0215 23.5967 18.7505 23.5967 17.1828V16.6285C23.5967 16.3775 23.6964 16.1368 23.8738 15.9594L24.7317 15.1014C24.9134 14.9197 25.1618 14.8153 25.4186 14.8234C26.931 14.8711 28.2697 15.1951 29.0015 15.9098C29.1806 16.0848 29.2741 16.3295 29.2741 16.5799V17.1828C29.2741 18.7506 28.0032 20.0215 26.4354 20.0215Z" fill="#F0C087"/>
<path d="M25.016 16.7458C25.016 16.2 25.4744 15.7662 26.019 15.8009C26.9741 15.8619 28.3914 16.0215 29.2609 16.4397C29.2326 16.2401 29.1468 16.0517 29.0015 15.9097C28.2697 15.195 26.931 14.871 25.4186 14.8233L25.4186 14.8234V14.8233C25.1618 14.8152 24.9134 14.9197 24.7317 15.1013L23.8739 15.9592C23.6964 16.1367 23.5967 16.3774 23.5967 16.6283V17.1826C23.5967 18.4772 24.4641 19.5672 25.6489 19.9085C25.2545 19.422 25.0161 18.8044 25.0161 18.1289L25.016 16.7458Z" fill="#E6AF78"/>
<path d="M29.2745 24.1227C29.2745 23.7462 29.424 23.3852 29.6902 23.119L30.908 21.9012C31.0708 22.1338 31.1669 22.4139 31.1669 22.7129V26.172C31.1669 26.4333 30.9551 26.6451 30.6938 26.6451H29.2745V24.1227Z" fill="#00B589"/>
<path d="M26.4352 21.6379L25.6333 22.2504C25.4952 22.356 25.2954 22.3137 25.212 22.1612L24.4926 20.8475L24.7822 20.4058C24.8464 20.3079 24.9833 20.2912 25.0691 20.3708L26.4352 21.6379Z" fill="#00B589"/>
<path d="M26.4355 21.638L27.2375 22.2506C27.3756 22.3561 27.5753 22.3138 27.6588 22.1613L28.3781 20.8476L28.0886 20.4059C28.0244 20.308 27.8875 20.2913 27.8016 20.3709L26.4355 21.638Z" fill="#00B589"/>
<path d="M10.3025 19.8238C9.89819 18.7526 9.57753 16.9111 9.50826 15.9523C9.37649 14.1278 8.00155 12.6405 6.14289 12.6405C4.28423 12.6405 2.90929 14.1279 2.77752 15.9523C2.70826 16.911 2.38759 18.7526 1.98329 19.8238C1.8942 20.06 1.99704 20.3204 2.22958 20.4258C2.66282 20.6221 3.58654 21.0068 4.70057 21.1566H7.58515C8.69397 21.0065 9.62416 20.6216 10.0561 20.4258C10.2887 20.3204 10.3916 20.06 10.3025 19.8238Z" fill="#3D3938"/>
<path d="M10.0557 20.4259C10.2882 20.3205 10.3911 20.0601 10.302 19.824C9.89774 18.7527 9.57702 16.9112 9.50781 15.9524C9.3761 14.1279 8.0011 12.6406 6.1425 12.6406C6.1378 12.6406 6.13316 12.6406 6.12846 12.6407C4.7023 12.6465 4.19831 14.5915 5.42601 15.3172C5.49974 15.3608 5.54701 15.3817 5.54701 15.3817L6.62232 21.1567H7.58476C8.69358 21.0065 9.62377 20.6216 10.0557 20.4259Z" fill="#4C4846"/>
<path d="M9.56485 22.1066L8.03379 21.3411C7.71319 21.1808 7.51066 20.8531 7.51072 20.4947L7.51083 19.0753H4.67203V20.4948C4.67203 20.8532 4.46956 21.1808 4.14896 21.3411L2.6179 22.1066C2.13705 22.347 1.83334 22.8385 1.83334 23.376V26.172C1.83334 26.4332 2.04515 26.6451 2.30646 26.6451H9.87635C10.1377 26.6451 10.3495 26.4332 10.3495 26.172V23.3761C10.3495 22.8385 10.0457 22.347 9.56485 22.1066Z" fill="#E6AF78"/>
<path d="M6.09137 20.9677C6.60081 20.9677 7.08876 20.8626 7.5361 20.6757C7.52435 20.6161 7.51066 20.5568 7.51066 20.4946L7.51077 19.0752H4.67198V20.4947C4.67198 20.5572 4.65828 20.6167 4.64642 20.6766C5.09404 20.8626 5.58177 20.9677 6.09137 20.9677Z" fill="#D29B6E"/>
<path d="M9.56485 22.1066L8.47414 21.5612C7.96836 22.3422 7.09117 22.8602 6.09143 22.8602C5.09169 22.8602 4.21444 22.3422 3.70867 21.5612L2.61795 22.1066C2.1371 22.347 1.83334 22.8384 1.83334 23.376V26.1719C1.83334 26.4332 2.04515 26.645 2.30646 26.645H9.87635C10.1377 26.645 10.3495 26.4332 10.3495 26.1719V23.376C10.3495 22.8384 10.0457 22.347 9.56485 22.1066Z" fill="#E55E67"/>
<path d="M6.09128 20.0215C4.64799 20.0215 3.45633 18.9444 3.27614 17.5502C3.25002 17.3482 3.34713 17.1501 3.52897 17.0584C3.74679 16.9485 4.06333 16.7633 4.3664 16.4928C4.70391 16.1917 4.90191 15.8741 5.01374 15.641C5.11005 15.4403 5.33142 15.3267 5.54718 15.3818C7.213 15.8067 8.34709 16.6733 8.75855 17.0271C8.86901 17.1221 8.93266 17.2622 8.92132 17.4075C8.80668 18.8702 7.58344 20.0215 6.09128 20.0215Z" fill="#F0C087"/>
<path d="M8.75882 17.027C8.34741 16.6732 7.21326 15.8065 5.54745 15.3817C5.33169 15.3266 5.11031 15.4402 5.01401 15.6409C4.92933 15.8175 4.78936 16.0424 4.58168 16.272C4.58163 16.2726 4.58145 16.2731 4.5814 16.2736C4.51694 16.3467 4.44831 16.4199 4.36672 16.4928C4.06365 16.7633 3.74711 16.9485 3.52929 17.0584C3.34745 17.1501 3.2504 17.3482 3.27646 17.5502C3.43831 18.8023 4.41811 19.799 5.66123 19.9891C5.09479 19.6037 4.67226 19.0738 4.67226 18.129V17.4544C4.77974 17.375 4.88796 17.2959 4.9967 17.1988C5.25967 16.9642 5.48924 16.6928 5.67332 16.4006C6.94766 16.7983 7.81161 17.4606 8.13915 17.7423C8.22881 17.8209 8.45133 18.026 8.71167 18.2702C8.82367 18.0006 8.89775 17.7114 8.92153 17.4075C8.93293 17.2621 8.86928 17.1221 8.75882 17.027Z" fill="#E6AF78"/>
<path d="M2.12175 22.5231C1.9395 22.765 1.83334 23.0617 1.83334 23.376V26.1719C1.83334 26.4332 2.04515 26.645 2.30646 26.645H3.7258V24.2611C3.7258 23.9737 3.59512 23.7018 3.37065 23.5222L2.12175 22.5231Z" fill="#E55E67"/>
<path d="M23.2975 21.4609L19.339 20.0214L16.5003 20.9677L13.6616 20.0214L9.70303 21.4609C8.95514 21.7329 8.45728 22.4437 8.45728 23.2394V26.172C8.45728 26.4332 8.66908 26.6451 8.93039 26.6451H24.0702C24.3315 26.6451 24.5433 26.4332 24.5433 26.172V23.2394C24.5433 22.4436 24.0455 21.7328 23.2975 21.4609Z" fill="#8F776D"/>
<path d="M24.0339 21.9501C24.3533 22.293 24.5432 22.7496 24.5432 23.2395V26.172C24.5432 26.4333 24.3313 26.6451 24.07 26.6451H21.7045V25.0634C21.7045 24.5615 21.9038 24.0801 22.2588 23.7253L24.0339 21.9501Z" fill="#E2E9EF"/>
<path d="M21.7042 10.2645V6.30103C21.7042 5.77841 21.2805 5.3548 20.758 5.3548H15.0805C12.9902 5.3548 11.2955 7.04937 11.2955 9.13977V10.2645C11.2955 10.773 11.3775 11.2782 11.5383 11.7606L11.6958 12.2331C11.7441 12.3778 11.7686 12.5293 11.7686 12.6819V12.9247H21.231V12.6819C21.231 12.5293 21.2556 12.3778 21.3038 12.2331L21.4613 11.7606C21.6222 11.2781 21.7042 10.7729 21.7042 10.2645Z" fill="#3D3938"/>
<path d="M13.6611 7.27682C13.6611 8.33832 14.5217 9.19884 15.5832 9.19884H15.8493L15.9777 12.9246H21.231V12.6818C21.231 12.5293 21.2555 12.3777 21.3038 12.233L21.4613 11.7605C21.6221 11.2781 21.7041 10.7729 21.7041 10.2644V6.30103C21.7041 5.77841 21.2804 5.3548 20.7579 5.3548H15.5832C14.5217 5.3548 13.6611 6.21532 13.6611 7.27682Z" fill="#4C4846"/>
<path d="M19.3386 16.7098H13.6609V20.9678H19.3386V16.7098Z" fill="#E6AF78"/>
<path d="M13.6611 18.3094C14.4969 18.7936 15.4645 19.0752 16.4998 19.0752C17.5351 19.0752 18.5028 18.7936 19.3385 18.3094V16.7096H13.661L13.6611 18.3094Z" fill="#D29B6E"/>
<path d="M16.5 20.9677L14.991 22.4766C14.7882 22.6794 14.453 22.6566 14.2796 22.4281L12.7151 20.3665L13.1243 19.5041C13.2451 19.2496 13.5601 19.1564 13.7999 19.3042L16.5 20.9677Z" fill="#E2E9EF"/>
<path d="M16.5 20.9677L18.0089 22.4766C18.2118 22.6794 18.547 22.6566 18.7203 22.4281L20.2849 20.3665L19.8757 19.5041C19.7549 19.2496 19.4399 19.1564 19.2001 19.3042L16.5 20.9677Z" fill="#E2E9EF"/>
<path d="M16.5001 18.129C13.8871 18.129 11.7689 16.0107 11.7689 13.3978V12.8435C11.7689 12.5925 11.8686 12.3519 12.046 12.1744L12.4379 11.7824C12.6154 11.605 12.7151 11.3643 12.7151 11.1133V9.97919C12.7151 9.76011 12.8622 9.56978 13.0754 9.51942C14.1943 9.25514 17.6763 8.62911 20.046 10.3719C20.1999 10.4851 20.285 10.671 20.285 10.862V11.1133C20.285 11.3643 20.3846 11.605 20.5621 11.7824L20.954 12.1744C21.1314 12.3518 21.2311 12.5925 21.2311 12.8435V13.3978C21.2313 16.0107 19.1131 18.129 16.5001 18.129Z" fill="#F0C087"/>
<path d="M20.046 10.372C18.3794 9.14623 16.1656 9.09318 14.6076 9.26099C13.9504 9.33174 13.4074 9.44111 13.0755 9.51949C12.8623 9.56984 12.7152 9.76017 12.7152 9.97925V11.1133C12.7152 11.3643 12.6155 11.605 12.438 11.7825L12.0461 12.1744C11.8686 12.3519 11.7689 12.5926 11.7689 12.8436V13.3978C11.7689 15.8169 13.5856 17.8084 15.9284 18.0912C15.112 17.241 14.6076 16.0889 14.6076 14.8172V11.359C14.6076 10.8795 14.9641 10.4788 15.4398 10.4192C16.5752 10.2768 18.6548 10.1912 20.285 11.1135V10.8621C20.2851 10.671 20.1998 10.4851 20.046 10.372Z" fill="#E6AF78"/>
<path d="M8.96654 21.9501C8.64708 22.293 8.45728 22.7496 8.45728 23.2395V26.172C8.45728 26.4333 8.66908 26.6451 8.93039 26.6451H11.296V25.0634C11.296 24.5615 11.0966 24.0801 10.7417 23.7253L8.96654 21.9501Z" fill="#E2E9EF"/>
</g>
</g>
<defs>
<clipPath id="clip0_15093_27257">
<rect width="32" height="32" fill="white" transform="translate(0.5)"/>
</clipPath>
<clipPath id="clip1_15093_27257">
<rect width="29.3333" height="29.3333" fill="white" transform="translate(1.83334 1.33331)"/>
</clipPath>
</defs>
</svg>
