<svg width="33" height="32" viewBox="0 0 33 32" fill="none" xmlns="http://www.w3.org/2000/svg">
<g clip-path="url(#clip0_15093_27268)">
<g clip-path="url(#clip1_15093_27268)">
<path d="M24.4452 29.1046C24.4246 29.0008 23.1647 22.6713 23.1508 22.6063C22.9995 21.8736 22.5895 21.3124 21.9878 20.9508C21.6271 20.7332 21.4222 20.6986 21.1883 20.6267C21.3528 20.6841 18.1732 19.5729 16.892 19.1251C16.6384 19.0382 16.4681 18.7997 16.4681 18.5316V17.2161C14.8225 18.0389 13.0969 17.9869 11.5652 17.2394V18.5316C11.5652 18.7997 11.3949 19.0382 11.1413 19.1251C10.9607 19.1871 11.7955 18.9008 9.37518 19.7307H9.37352C9.37358 19.7309 9.37369 19.731 9.37369 19.731L9.37352 19.7313L6.84679 20.6267C6.73014 20.6611 6.49971 20.7291 6.51438 20.7248C5.91328 20.9489 5.39204 21.3747 5.09996 21.97C4.89778 22.3801 4.95777 22.2361 3.97665 27.1611C3.61336 29.0423 3.53315 29.1794 3.57858 29.5997C3.70503 30.7745 4.91342 30.6519 4.94614 30.6662C7.26312 30.6662 14.2451 30.6662 14.0253 30.6662C14.0496 30.6662 15.0938 30.6662 15.0289 30.6662C16.6423 30.6662 22.3622 30.6662 23.0887 30.6662C23.1016 30.6618 24.6823 30.7821 24.4452 29.1046Z" fill="#00B589"/>
<path d="M5.06596 29.1045L6.36035 22.0159C6.34242 22.102 6.45643 21.0677 7.42947 20.4202C6.34276 20.8053 6.67958 20.6512 6.34551 20.7944C5.7149 21.0792 5.22586 21.5631 4.98472 22.245C4.88824 22.5188 4.9508 22.2781 3.97719 27.161C3.6139 29.0422 3.53375 29.1794 3.57913 29.5996C3.70557 30.7744 4.91397 30.6518 4.94668 30.666C5.09071 30.666 6.24462 30.666 6.4224 30.666C5.38118 30.6661 4.93127 30.0572 5.06596 29.1045Z" fill="#008867"/>
<path d="M7.617 30.6661C6.77441 30.6661 5.80389 30.6661 4.94618 30.6661C4.91197 30.6511 3.53462 30.7895 3.56906 29.3537C3.57656 29.0475 3.61489 29.0346 3.97669 27.161L3.9976 27.056H7.617V30.6661Z" fill="#F0C087"/>
<path d="M5.43986 27.0561H3.99794L3.97703 27.161C3.61391 29.0412 3.5769 29.0471 3.5694 29.3537C3.53508 30.7848 4.91936 30.6543 4.94652 30.6662C5.09055 30.6662 6.24446 30.6662 6.42224 30.6662C5.46323 30.6662 5.02575 30.1616 5.04512 29.3537C5.04741 29.2599 5.08236 29.0638 5.43986 27.0561Z" fill="#E6AF78"/>
<path d="M11.5653 17.0123C11.5653 20.6822 11.5653 16.5943 11.5653 19.4847H11.5669V19.5731C11.5669 20.1603 11.9419 20.6822 12.4987 20.8686C13.3922 21.1678 14.5394 21.2019 15.5347 20.8686C16.0915 20.6822 16.4665 20.1603 16.4665 19.5731V19.4847H16.4681C16.4681 18.9096 16.4681 17.32 16.4681 17.0123C14.8797 17.8593 13.0886 17.8246 11.5653 17.0123Z" fill="#F0C087"/>
<path d="M13.0429 19.9754H13.041C13.0409 16.9029 13.041 17.9266 13.0409 17.7121C12.5316 17.61 12.0349 17.4347 11.5652 17.1842C11.5652 20.8541 11.5652 16.5943 11.5653 19.4847H11.5668V19.5731C11.5668 20.1603 11.9418 20.6822 12.4986 20.8686C12.7739 20.9608 13.0647 21.0274 13.3666 21.0659C12.9913 20.5564 13.0487 20.0144 13.0429 19.9754Z" fill="#E6AF78"/>
<path d="M7.61716 25.6078C7.37264 25.6078 7.17441 25.806 7.17441 26.0506V30.6661C7.48149 30.6661 7.73025 30.6661 8.05985 30.6661V26.0506C8.05991 25.806 7.86168 25.6078 7.61716 25.6078Z" fill="#008867"/>
<path d="M28.35 30.6661H14.0171C13.4191 30.6661 12.9343 30.1813 12.9343 29.5833C12.9343 29.2406 13.2121 28.9627 13.5548 28.9627H28.8122C29.155 28.9627 29.4328 29.2406 29.4328 29.5833C29.4328 30.1813 28.948 30.6661 28.35 30.6661Z" fill="#C6C6C6"/>
<path d="M15.7233 29.5833C15.7233 29.2406 16.0012 28.9627 16.3439 28.9627H13.5548C13.2121 28.9627 12.9343 29.2406 12.9343 29.5833V29.5833C12.9343 30.1814 13.4191 30.6662 14.0171 30.6662H16.8061C16.2081 30.6661 15.7233 30.1813 15.7233 29.5833Z" fill="#B7B7B7"/>
<path d="M27.4108 19.4848H14.9556C14.566 19.4848 14.2472 19.8036 14.2472 20.1932V28.2544C14.2472 28.644 14.566 28.9627 14.9556 28.9627H27.4108C27.8004 28.9627 28.1192 28.644 28.1192 28.2544V20.1932C28.1192 19.8036 27.8004 19.4848 27.4108 19.4848Z" fill="#EDEDED"/>
<path d="M15.723 28.2544V20.1932C15.723 19.8036 16.0418 19.4848 16.4314 19.4848H14.9556C14.5661 19.4848 14.2473 19.8036 14.2473 20.1932V28.2544C14.2473 28.644 14.5661 28.9627 14.9556 28.9627H16.4314C16.0418 28.9627 15.723 28.644 15.723 28.2544Z" fill="#DADADA"/>
<path d="M21.1834 25.2468C21.7485 25.2468 22.2066 24.7887 22.2066 24.2236C22.2066 23.6585 21.7485 23.2004 21.1834 23.2004C20.6183 23.2004 20.1602 23.6585 20.1602 24.2236C20.1602 24.7887 20.6183 25.2468 21.1834 25.2468Z" fill="#DADADA"/>
<path d="M21.1841 23.2014C20.4039 23.2002 19.9014 24.0493 20.2975 24.7353C20.6938 25.4217 21.6803 25.4105 22.0692 24.7345C21.2822 24.7334 20.7908 23.8847 21.1841 23.2014Z" fill="#C6C6C6"/>
<path d="M13.8832 1.34032C10.0699 1.35487 6.85049 4.46787 6.85049 8.42283V11.1069H21.0175C21.0175 8.56336 21.0175 9.36699 21.0175 7.09143C21.0175 4.3487 19.3301 3.71689 19.3301 3.71689C17.2316 1.12943 13.886 1.34026 13.886 1.34026" fill="#4C4846"/>
<path d="M14.8404 1.38256C10.5187 0.890592 7.00177 4.15249 6.85682 8.14366C6.84565 8.43063 6.85315 8.32327 6.8508 11.1069H8.53821V8.42278C8.53821 4.75887 11.3117 1.76985 14.8404 1.38256Z" fill="#3D3938"/>
<path d="M8.59537 10.2641C7.70689 9.94749 6.74239 10.5363 6.74239 11.3953C6.74239 12.2541 7.70678 12.8432 8.59537 12.5265V10.2641Z" fill="#F0C087"/>
<path d="M19.2733 10.2641C20.1618 9.94749 21.1263 10.5363 21.1263 11.3953C21.1263 12.2541 20.1619 12.8432 19.2733 12.5265V10.2641Z" fill="#F0C087"/>
<path d="M6.87215 10.8752C6.35314 11.8604 7.44586 12.9362 8.59536 12.5266V11.4863C7.92499 11.7251 7.17545 11.4511 6.87215 10.8752Z" fill="#E6AF78"/>
<path d="M19.2733 11.4863V12.5266C20.4228 12.9362 21.5155 11.8605 20.9966 10.8752C20.7795 11.2873 19.9439 11.7252 19.2733 11.4863Z" fill="#E6AF78"/>
<path d="M19.0866 8.0225C19.2243 8.0358 19.3301 8.14998 19.3301 8.28822C19.3301 12.8314 19.3331 12.4884 19.3225 12.6996C19.2525 14.0814 18.6615 15.3502 17.7004 16.288C14.3321 19.5721 8.71158 17.2431 8.54251 12.6365C8.5346 12.4334 8.53792 10.0803 8.53792 10.087C8.53792 9.02895 9.47688 8.22171 10.5241 8.3729C12.1733 8.61095 14.5806 8.51848 16.6812 6.72296C16.897 6.53848 17.2246 6.59806 17.3624 6.84631C17.6227 7.31501 18.1402 7.93118 19.0866 8.0225Z" fill="#F0C087"/>
<path d="M10.019 12.6365C10.0122 12.4623 10.0136 9.27478 10.0142 8.37433C9.19054 8.49791 8.53799 9.20506 8.53799 10.087C8.53799 10.0803 8.53466 12.4334 8.54257 12.6365C8.66718 16.033 11.7554 18.1908 14.7193 17.774C12.2857 17.4375 10.1228 15.4674 10.019 12.6365Z" fill="#E6AF78"/>
</g>
</g>
<defs>
<clipPath id="clip0_15093_27268">
<rect width="32" height="32" fill="white" transform="translate(0.5)"/>
</clipPath>
<clipPath id="clip1_15093_27268">
<rect width="29.3333" height="29.3333" fill="white" transform="translate(1.83333 1.33331)"/>
</clipPath>
</defs>
</svg>
