<svg width="33" height="32" viewBox="0 0 33 32" fill="none" xmlns="http://www.w3.org/2000/svg">
<g clip-path="url(#clip0_15093_27273)">
<g clip-path="url(#clip1_15093_27273)">
<path d="M31.1667 7.43463H1.83334V24.2798H31.1667V7.43463Z" fill="#ECBB18"/>
<path d="M5.56075 17.2995C6.27938 17.2995 6.86194 16.717 6.86194 15.9983C6.86194 15.2797 6.27938 14.6971 5.56075 14.6971C4.84212 14.6971 4.25955 15.2797 4.25955 15.9983C4.25955 16.717 4.84212 17.2995 5.56075 17.2995Z" fill="#B18C12"/>
<path d="M27.4705 17.3309C28.2064 17.3309 28.803 16.7343 28.803 15.9983C28.803 15.2624 28.2064 14.6658 27.4705 14.6658C26.7346 14.6658 26.138 15.2624 26.138 15.9983C26.138 16.7343 26.7346 17.3309 27.4705 17.3309Z" fill="#B18C12"/>
<path d="M13.4893 12.0046L11.528 17.9142L9.50676 12.0046H7.75964L10.6116 19.9953H12.3331L15.2021 12.0046H13.4893Z" fill="#B18C12"/>
<path d="M15.9735 12.0046V19.9953H17.5835V12.0046H15.9735Z" fill="#B18C12"/>
<path d="M24.7778 12.9039C24.4694 12.5014 24.0926 12.2444 23.6301 12.1246C23.3304 12.0388 22.6966 12.0046 21.7117 12.0046H19.1252V19.9953H20.7353V16.9806H21.7888C22.5167 16.9806 23.0735 16.9378 23.4589 16.8694C23.7414 16.8008 24.024 16.6808 24.2981 16.4838C24.5723 16.2954 24.8034 16.0301 24.9748 15.6959C25.1546 15.3618 25.2488 14.9507 25.2488 14.4627C25.2488 13.8289 25.0861 13.3064 24.7778 12.9039ZM23.3989 15.105C23.2791 15.2848 23.1078 15.4132 22.8937 15.4989C22.6796 15.5847 22.2599 15.619 21.6176 15.619H20.7354V13.3578H21.5147C22.0971 13.3578 22.4825 13.375 22.6795 13.4093C22.9364 13.4607 23.1591 13.5719 23.3219 13.7603C23.4932 13.9488 23.5787 14.1885 23.5787 14.4798C23.5787 14.7195 23.5188 14.9252 23.3989 15.105Z" fill="#B18C12"/>
<path d="M31.1667 23.6523V24.6372C31.1667 26.0933 29.9847 27.2751 28.5288 27.2751H4.47971C3.01515 27.2751 1.83334 26.0933 1.83334 24.6372V23.6524H31.1667V23.6523Z" fill="#F7BE56"/>
<path d="M31.1667 7.36276V8.34757H1.83334V7.36276C1.83334 5.90685 3.01515 4.72485 4.47971 4.72485H28.5287C29.9846 4.72485 31.1667 5.90685 31.1667 7.36276Z" fill="#F1CC52"/>
</g>
</g>
<defs>
<clipPath id="clip0_15093_27273">
<rect width="32" height="32" fill="white" transform="translate(0.5)"/>
</clipPath>
<clipPath id="clip1_15093_27273">
<rect width="29.3333" height="29.3333" fill="white" transform="translate(1.83334 1.33331)"/>
</clipPath>
</defs>
</svg>
