<svg width="31" height="30" viewBox="0 0 31 30" fill="none" xmlns="http://www.w3.org/2000/svg">
<g clip-path="url(#clip0_15541_14976)">
<path d="M22.5308 29.6667H25.2289L22.1529 19.2794H19.4548L21.108 24.8618H9.89144L11.5447 19.2794H8.84657L5.77057 29.6667H8.46867L9.31235 26.8174H21.6871L22.5308 29.6667Z" fill="#8F776D"/>
<path d="M0.834656 20.3919V1.89778C0.834656 1.03374 1.53508 0.333313 2.39906 0.333313H28.6034C29.4674 0.333313 30.1679 1.03374 30.1679 1.89778V20.3919C30.1679 21.256 29.4674 21.9564 28.6034 21.9564H2.39906C1.53508 21.9563 0.834656 21.2559 0.834656 20.3919Z" fill="#ECBB18"/>
<path d="M28.2701 2.23065H2.73061V20.0594H28.2701V2.23065Z" fill="#00B589"/>
<path d="M4.04627 2.23065H2.73061V20.0594H4.04627V2.23065Z" fill="#005B45"/>
<path d="M28.2699 2.23187H26.9542V20.0606H28.2699V2.23187Z" fill="#005B45"/>
<path d="M26.9069 3.99281H4.03569L2.73042 2.23059H28.2693L26.9069 3.99281Z" fill="#008867"/>
<path d="M26.9069 18.2969H4.03569L2.73042 20.0592H28.2693L26.9069 18.2969Z" fill="#008867"/>
<path d="M25.9189 16.674H18.8516V18.2963H25.9189V16.674Z" fill="black"/>
</g>
<defs>
<clipPath id="clip0_15541_14976">
<rect width="29.3333" height="29.3333" fill="white" transform="translate(0.833328 0.333313)"/>
</clipPath>
</defs>
</svg>
