<svg width="33" height="32" viewBox="0 0 33 32" fill="none" xmlns="http://www.w3.org/2000/svg">
<g clip-path="url(#clip0_15093_27247)">
<g clip-path="url(#clip1_15093_27247)">
<path d="M27.173 3.97882H5.82759C3.94418 3.97882 2.4173 5.5057 2.4173 7.38911V27.2564C2.4173 29.1398 3.94418 30.6667 5.82759 30.6667H27.173C29.0564 30.6667 30.5832 29.1398 30.5832 27.2564V7.38911C30.5832 5.5056 29.0564 3.97882 27.173 3.97882Z" fill="#FAEEC5"/>
<path d="M30.5832 10.3864V6.25428C30.5832 4.37087 29.0564 2.84399 27.173 2.84399H5.82759C3.94418 2.84399 2.4173 4.37087 2.4173 6.25428V10.3864H30.5832Z" fill="#008867"/>
<path d="M30.5832 11.1573V7.38911C30.5832 5.5057 29.0564 3.97882 27.173 3.97882H5.82759C3.94418 3.97882 2.4173 5.5057 2.4173 7.38911V11.1573H30.5832Z" fill="#00B589"/>
<path d="M8.00334 5.81036C7.34598 5.81036 6.81309 6.34325 6.81309 7.00061C6.81309 7.65797 7.34598 8.19077 8.00334 8.19077C8.6607 8.19077 9.19349 7.65788 9.19349 7.00061C9.19359 6.34325 8.6607 5.81036 8.00334 5.81036Z" fill="#008867"/>
<path d="M8.00309 1.33331C7.65146 1.33331 7.36633 1.61844 7.36633 1.97008V6.93127C7.36633 7.283 7.65146 7.56803 8.00309 7.56803C8.35472 7.56803 8.63985 7.283 8.63985 6.93127V1.97008C8.63985 1.61844 8.35482 1.33331 8.00309 1.33331V1.33331Z" fill="#5F686F"/>
<path d="M13.6679 5.81036C13.0106 5.81036 12.4777 6.34325 12.4777 7.00061C12.4777 7.65797 13.0106 8.19077 13.6679 8.19077C14.3253 8.19077 14.8581 7.65788 14.8581 7.00061C14.8582 6.34325 14.3253 5.81036 13.6679 5.81036Z" fill="#008867"/>
<path d="M13.6675 1.33331C13.3159 1.33331 13.0307 1.61844 13.0307 1.97008V6.93127C13.0307 7.283 13.3159 7.56803 13.6675 7.56803C14.0191 7.56803 14.3043 7.283 14.3043 6.93127V1.97008C14.3043 1.61844 14.0191 1.33331 13.6675 1.33331V1.33331Z" fill="#5F686F"/>
<path d="M19.3323 5.81036C18.675 5.81036 18.1421 6.34325 18.1421 7.00061C18.1421 7.65797 18.675 8.19077 19.3323 8.19077C19.9897 8.19077 20.5225 7.65788 20.5225 7.00061C20.5225 6.34325 19.9897 5.81036 19.3323 5.81036Z" fill="#008867"/>
<path d="M19.3321 1.33331C18.9805 1.33331 18.6953 1.61844 18.6953 1.97008V6.93127C18.6953 7.283 18.9805 7.56803 19.3321 7.56803C19.6837 7.56803 19.9688 7.283 19.9688 6.93127V1.97008C19.9688 1.61844 19.6837 1.33331 19.3321 1.33331V1.33331Z" fill="#5F686F"/>
<path d="M24.9969 5.81036C24.3396 5.81036 23.8067 6.34325 23.8067 7.00061C23.8067 7.65797 24.3396 8.19077 24.9969 8.19077C25.6543 8.19077 26.1871 7.65788 26.1871 7.00061C26.1871 6.34325 25.6542 5.81036 24.9969 5.81036Z" fill="#008867"/>
<path d="M24.9968 1.33331C24.6452 1.33331 24.3601 1.61844 24.3601 1.97008V6.93127C24.3601 7.283 24.6452 7.56803 24.9968 7.56803C25.3484 7.56803 25.6336 7.283 25.6336 6.93127V1.97008C25.6336 1.61844 25.3485 1.33331 24.9968 1.33331V1.33331Z" fill="#5F686F"/>
<path d="M12.8094 15.8691H15.3837V18.4433H12.8094V15.8691Z" fill="#00B589"/>
<path d="M17.616 15.8691H20.1902V18.4433H17.616V15.8691Z" fill="#00B589"/>
<path d="M22.423 15.8691H24.9973V18.4433H22.423V15.8691Z" fill="#00B589"/>
<path d="M8.0032 19.9045H10.5774V22.4788H8.0032V19.9045Z" fill="#00B589"/>
<path d="M12.8094 19.9045H15.3837V22.4788H12.8094V19.9045Z" fill="#00B589"/>
<path d="M17.616 19.9045H20.1902V22.4788H17.616V19.9045Z" fill="#00B589"/>
<path d="M22.423 19.9045H24.9973V22.4788H22.423V19.9045Z" fill="#00B589"/>
<path d="M8.0032 23.94H10.5774V26.5142H8.0032V23.94Z" fill="#00B589"/>
<path d="M12.8094 23.94H15.3837V26.5142H12.8094V23.94Z" fill="#00B589"/>
<path d="M17.616 23.94H20.1902V26.5142H17.616V23.94Z" fill="#00B589"/>
</g>
</g>
<defs>
<clipPath id="clip0_15093_27247">
<rect width="32" height="32" fill="white" transform="translate(0.5)"/>
</clipPath>
<clipPath id="clip1_15093_27247">
<rect width="29.3333" height="29.3333" fill="white" transform="translate(1.83334 1.33331)"/>
</clipPath>
</defs>
</svg>
