<svg width="32" height="32" viewBox="0 0 32 32" fill="none" xmlns="http://www.w3.org/2000/svg">
<g clip-path="url(#clip0_15093_27268)">
<g clip-path="url(#clip1_15093_27268)">
<path d="M23.9452 29.1046C23.9246 29.0008 22.6647 22.6713 22.6508 22.6063C22.4995 21.8736 22.0895 21.3124 21.4878 20.9508C21.1271 20.7332 20.9222 20.6986 20.6883 20.6267C20.8528 20.6841 17.6732 19.5729 16.392 19.1251C16.1384 19.0382 15.9681 18.7997 15.9681 18.5316V17.2161C14.3225 18.0389 12.5969 17.9869 11.0652 17.2394V18.5316C11.0652 18.7997 10.8949 19.0382 10.6413 19.1251C10.4607 19.1871 11.2955 18.9008 8.87518 19.7307H8.87352C8.87358 19.7309 8.87369 19.731 8.87369 19.731L8.87352 19.7313L6.34679 20.6267C6.23014 20.6611 5.99971 20.7291 6.01438 20.7248C5.41328 20.9489 4.89204 21.3747 4.59996 21.97C4.39778 22.3801 4.45777 22.2361 3.47665 27.1611C3.11336 29.0423 3.03315 29.1794 3.07858 29.5997C3.20503 30.7745 4.41342 30.6519 4.44614 30.6662C6.76312 30.6662 13.7451 30.6662 13.5253 30.6662C13.5496 30.6662 14.5938 30.6662 14.5289 30.6662C16.1423 30.6662 21.8622 30.6662 22.5887 30.6662C22.6016 30.6618 24.1823 30.7821 23.9452 29.1046Z" fill="#00B589"/>
<path d="M4.56596 29.1045L5.86035 22.0159C5.84242 22.102 5.95643 21.0677 6.92947 20.4202C5.84276 20.8053 6.17958 20.6512 5.84551 20.7944C5.2149 21.0792 4.72586 21.5631 4.48472 22.245C4.38824 22.5188 4.4508 22.2781 3.47719 27.161C3.1139 29.0422 3.03375 29.1794 3.07913 29.5996C3.20557 30.7744 4.41397 30.6518 4.44668 30.666C4.59071 30.666 5.74462 30.666 5.9224 30.666C4.88118 30.6661 4.43127 30.0572 4.56596 29.1045Z" fill="#008867"/>
<path d="M7.117 30.6661C6.27441 30.6661 5.30389 30.6661 4.44618 30.6661C4.41197 30.6511 3.03462 30.7895 3.06906 29.3537C3.07656 29.0475 3.11489 29.0346 3.47669 27.161L3.4976 27.056H7.117V30.6661Z" fill="#F0C087"/>
<path d="M4.93986 27.0561H3.49794L3.47703 27.161C3.11391 29.0412 3.0769 29.0471 3.0694 29.3537C3.03508 30.7848 4.41936 30.6543 4.44652 30.6662C4.59055 30.6662 5.74446 30.6662 5.92224 30.6662C4.96323 30.6662 4.52575 30.1616 4.54512 29.3537C4.54741 29.2599 4.58236 29.0638 4.93986 27.0561Z" fill="#E6AF78"/>
<path d="M11.0653 17.0123C11.0653 20.6822 11.0653 16.5943 11.0653 19.4847H11.0669V19.5731C11.0669 20.1603 11.4419 20.6822 11.9987 20.8686C12.8922 21.1678 14.0394 21.2019 15.0347 20.8686C15.5915 20.6822 15.9665 20.1603 15.9665 19.5731V19.4847H15.9681C15.9681 18.9096 15.9681 17.32 15.9681 17.0123C14.3797 17.8593 12.5886 17.8246 11.0653 17.0123Z" fill="#F0C087"/>
<path d="M12.5429 19.9754H12.541C12.5409 16.9029 12.541 17.9266 12.5409 17.7121C12.0316 17.61 11.5349 17.4347 11.0652 17.1842C11.0652 20.8541 11.0652 16.5943 11.0653 19.4847H11.0668V19.5731C11.0668 20.1603 11.4418 20.6822 11.9986 20.8686C12.2739 20.9608 12.5647 21.0274 12.8666 21.0659C12.4913 20.5564 12.5487 20.0144 12.5429 19.9754Z" fill="#E6AF78"/>
<path d="M7.11716 25.6078C6.87264 25.6078 6.67441 25.806 6.67441 26.0506V30.6661C6.98149 30.6661 7.23025 30.6661 7.55985 30.6661V26.0506C7.55991 25.806 7.36168 25.6078 7.11716 25.6078Z" fill="#008867"/>
<path d="M27.85 30.6661H13.5171C12.9191 30.6661 12.4343 30.1813 12.4343 29.5833C12.4343 29.2406 12.7121 28.9627 13.0548 28.9627H28.3122C28.655 28.9627 28.9328 29.2406 28.9328 29.5833C28.9328 30.1813 28.448 30.6661 27.85 30.6661Z" fill="#C6C6C6"/>
<path d="M15.2233 29.5833C15.2233 29.2406 15.5012 28.9627 15.8439 28.9627H13.0548C12.7121 28.9627 12.4343 29.2406 12.4343 29.5833V29.5833C12.4343 30.1814 12.9191 30.6662 13.5171 30.6662H16.3061C15.7081 30.6661 15.2233 30.1813 15.2233 29.5833Z" fill="#B7B7B7"/>
<path d="M26.9108 19.4848H14.4556C14.066 19.4848 13.7472 19.8036 13.7472 20.1932V28.2544C13.7472 28.644 14.066 28.9627 14.4556 28.9627H26.9108C27.3004 28.9627 27.6192 28.644 27.6192 28.2544V20.1932C27.6192 19.8036 27.3004 19.4848 26.9108 19.4848Z" fill="#EDEDED"/>
<path d="M15.223 28.2544V20.1932C15.223 19.8036 15.5418 19.4848 15.9314 19.4848H14.4556C14.0661 19.4848 13.7473 19.8036 13.7473 20.1932V28.2544C13.7473 28.644 14.0661 28.9627 14.4556 28.9627H15.9314C15.5418 28.9627 15.223 28.644 15.223 28.2544Z" fill="#DADADA"/>
<path d="M20.6834 25.2468C21.2485 25.2468 21.7066 24.7887 21.7066 24.2236C21.7066 23.6585 21.2485 23.2004 20.6834 23.2004C20.1183 23.2004 19.6602 23.6585 19.6602 24.2236C19.6602 24.7887 20.1183 25.2468 20.6834 25.2468Z" fill="#DADADA"/>
<path d="M20.6841 23.2014C19.9039 23.2002 19.4014 24.0493 19.7975 24.7353C20.1938 25.4217 21.1803 25.4105 21.5692 24.7345C20.7822 24.7334 20.2908 23.8847 20.6841 23.2014Z" fill="#C6C6C6"/>
<path d="M13.3832 1.34032C9.56988 1.35487 6.35049 4.46787 6.35049 8.42283V11.1069H20.5175C20.5175 8.56336 20.5175 9.36699 20.5175 7.09143C20.5175 4.3487 18.8301 3.71689 18.8301 3.71689C16.7316 1.12943 13.386 1.34026 13.386 1.34026" fill="#4C4846"/>
<path d="M14.3404 1.38256C10.0187 0.890592 6.50177 4.15249 6.35682 8.14366C6.34565 8.43063 6.35315 8.32327 6.3508 11.1069H8.03821V8.42278C8.03821 4.75887 10.8117 1.76985 14.3404 1.38256Z" fill="#3D3938"/>
<path d="M8.09537 10.2641C7.20689 9.94749 6.24239 10.5363 6.24239 11.3953C6.24239 12.2541 7.20678 12.8432 8.09537 12.5265V10.2641Z" fill="#F0C087"/>
<path d="M18.7733 10.2641C19.6618 9.94749 20.6263 10.5363 20.6263 11.3953C20.6263 12.2541 19.6619 12.8432 18.7733 12.5265V10.2641Z" fill="#F0C087"/>
<path d="M6.37215 10.8752C5.85314 11.8604 6.94586 12.9362 8.09536 12.5266V11.4863C7.42499 11.7251 6.67545 11.4511 6.37215 10.8752Z" fill="#E6AF78"/>
<path d="M18.7733 11.4863V12.5266C19.9228 12.9362 21.0155 11.8605 20.4966 10.8752C20.2795 11.2873 19.4439 11.7252 18.7733 11.4863Z" fill="#E6AF78"/>
<path d="M18.5866 8.0225C18.7243 8.0358 18.8301 8.14998 18.8301 8.28822C18.8301 12.8314 18.8331 12.4884 18.8225 12.6996C18.7525 14.0814 18.1615 15.3502 17.2004 16.288C13.8321 19.5721 8.21158 17.2431 8.04251 12.6365C8.0346 12.4334 8.03792 10.0803 8.03792 10.087C8.03792 9.02895 8.97688 8.22171 10.0241 8.3729C11.6733 8.61095 14.0806 8.51848 16.1812 6.72296C16.397 6.53848 16.7246 6.59806 16.8624 6.84631C17.1227 7.31501 17.6402 7.93118 18.5866 8.0225Z" fill="#F0C087"/>
<path d="M9.51898 12.6365C9.51221 12.4623 9.51365 9.27478 9.51422 8.37433C8.69054 8.49791 8.03799 9.20506 8.03799 10.087C8.03799 10.0803 8.03466 12.4334 8.04257 12.6365C8.16718 16.033 11.2554 18.1908 14.2193 17.774C11.7857 17.4375 9.62284 15.4674 9.51898 12.6365Z" fill="#E6AF78"/>
</g>
</g>
<defs>
<clipPath id="clip0_15093_27268">
<rect width="32" height="32" fill="white"/>
</clipPath>
<clipPath id="clip1_15093_27268">
<rect width="29.3333" height="29.3333" fill="white" transform="translate(1.33333 1.33331)"/>
</clipPath>
</defs>
</svg>
