<svg width="106" height="106" viewBox="0 0 106 106" fill="none" xmlns="http://www.w3.org/2000/svg">
<g clip-path="url(#clip0_15440_23369)">
<path d="M98.209 46.7732L98.2101 53.0136L98.2101 59.216C98.2101 61.3145 96.4945 63.03 94.396 63.03L11.6029 63.03C9.50439 63.03 7.78769 61.3133 7.78769 59.2148L7.78769 53.0124L7.78769 46.7861C7.78882 44.6865 9.50439 42.971 11.6029 42.971L94.3949 42.9699C96.4901 42.971 98.2035 44.6802 98.209 46.7732Z" fill="#F89E00"/>
<path d="M98.2101 46.7723L98.2111 53.0126L7.78862 53.0116V46.7853C7.78976 44.6857 9.50532 42.9702 11.6038 42.9702L94.3959 42.969C96.4912 42.9701 98.2046 44.6793 98.2101 46.7723Z" fill="#FCBA4F"/>
<path d="M13.0341 53.1548C12.4003 53.1547 11.8867 52.6411 11.8866 52.0075L11.8866 42.9706L14.1812 42.9707L14.1815 52.0074C14.1814 52.6411 13.6677 53.1549 13.0341 53.1548Z" fill="#333333"/>
<path d="M18.3579 48.2171C17.724 48.2171 17.2105 47.7035 17.2104 47.0698L17.2105 42.9707L19.5053 42.9707L19.5053 47.0697C19.5053 47.7035 18.9916 48.2171 18.3579 48.2171Z" fill="#333333"/>
<path d="M34.3271 53.1555C33.6932 53.1555 33.1798 52.6419 33.1797 52.0083L33.1798 42.9715L35.4744 42.9716L35.4744 52.0083C35.4744 52.6418 34.9607 53.1554 34.3271 53.1555Z" fill="#333333"/>
<path d="M29.0044 48.217C28.3707 48.217 27.8572 47.7035 27.8572 47.0698L27.8571 42.9707L30.1515 42.9706L30.1516 47.0697C30.1518 47.7034 29.6381 48.217 29.0044 48.217Z" fill="#333333"/>
<path d="M23.6802 48.2174C23.0462 48.2174 22.5328 47.7038 22.5327 47.0701L22.5328 42.971L24.8274 42.9711L24.8274 47.0701C24.8273 47.7038 24.3137 48.2174 23.6802 48.2174Z" fill="#333333"/>
<path d="M39.6521 48.2164C39.0183 48.2163 38.5047 47.7027 38.5046 47.0691L38.5046 42.9699L40.7993 42.97L40.7994 47.0691C40.7994 47.7026 40.2857 48.2163 39.6521 48.2164Z" fill="#333333"/>
<path d="M55.6219 53.1546L55.6217 53.1546C54.988 53.1546 54.4744 52.641 54.4744 52.0073L54.4744 42.9706L56.7692 42.9706L56.7692 52.0073C56.7693 52.6409 56.2556 53.1546 55.6219 53.1546Z" fill="#333333"/>
<path d="M50.2991 48.2167L50.2989 48.2167C49.6652 48.2167 49.1516 47.7031 49.1516 47.0694L49.1516 42.9704L51.4463 42.9704L51.4463 47.0694C51.4461 47.7029 50.9325 48.2166 50.2991 48.2167Z" fill="#333333"/>
<path d="M44.976 48.2165L44.9758 48.2165C44.3422 48.2164 43.8286 47.7028 43.8285 47.0692L43.8285 42.9702L46.1233 42.9702L46.1232 47.0692C46.1234 47.7028 45.6097 48.2165 44.976 48.2165Z" fill="#333333"/>
<path d="M60.946 48.2168L60.9458 48.2168C60.3121 48.2168 59.7986 47.7032 59.7986 47.0695L59.7986 42.9705L62.0933 42.9705L62.0933 47.0695C62.0933 47.703 61.5797 48.2167 60.946 48.2168Z" fill="#333333"/>
<path d="M76.9158 53.1552L76.9155 53.1552C76.2818 53.1552 75.7683 52.6416 75.7683 52.0079L75.7683 42.9712L78.063 42.9712L78.063 52.0079C78.063 52.6414 77.5494 53.1551 76.9158 53.1552Z" fill="#333333"/>
<path d="M71.5922 48.2169L71.5919 48.2169C70.9582 48.2169 70.4447 47.7034 70.4447 47.0697L70.4447 42.9707L72.7394 42.9707L72.7394 47.0697C72.7394 47.7034 72.2259 48.2169 71.5922 48.2169Z" fill="#333333"/>
<path d="M66.2691 48.2174L66.2689 48.2174C65.6352 48.2174 65.1216 47.7039 65.1216 47.0701L65.1216 42.9709L67.4164 42.9709L67.4163 47.0701C67.4162 47.7037 66.9025 48.2175 66.2691 48.2174Z" fill="#333333"/>
<path d="M82.2388 48.2178L82.2386 48.2178C81.6049 48.2178 81.0913 47.7043 81.0913 47.0706L81.0913 42.9713L83.3861 42.9713L83.3861 47.0706C83.3861 47.7043 82.8725 48.2178 82.2388 48.2178Z" fill="#333333"/>
<path d="M92.8867 48.2166L92.8865 48.2166C92.2528 48.2166 91.7393 47.7031 91.7393 47.0693L91.7393 42.9701L94.034 42.9701L94.034 47.0693C94.0339 47.7029 93.5201 48.2167 92.8867 48.2166Z" fill="#333333"/>
<path d="M87.5623 48.2179L87.5621 48.2179C86.9284 48.2179 86.4148 47.7043 86.4148 47.0706L86.4148 42.9716L88.7095 42.9716L88.7095 47.0706C88.7094 47.7042 88.1959 48.2178 87.5623 48.2179Z" fill="#333333"/>
</g>
<defs>
<clipPath id="clip0_15440_23369">
<rect width="74.9444" height="74.9444" fill="white" transform="translate(0 53) rotate(-45)"/>
</clipPath>
</defs>
</svg>
