<svg width="216" height="40" viewBox="0 0 216 40" fill="none" xmlns="http://www.w3.org/2000/svg">
<path d="M78 31.52V8.48H82.3155V27.456H92.1523V31.52H78Z" fill="black"/>
<path d="M95.1673 11.84V8H99.4828V11.84H95.1673ZM95.1673 31.52V14.24H99.4828V31.52H95.1673Z" fill="black"/>
<path d="M115.917 31.52V23.36C115.917 22.9653 115.895 22.464 115.853 21.856C115.811 21.2373 115.679 20.6187 115.456 20C115.234 19.3813 114.869 18.864 114.362 18.448C113.865 18.032 113.156 17.824 112.236 17.824C111.865 17.824 111.469 17.8827 111.046 18C110.623 18.1173 110.226 18.3467 109.856 18.688C109.486 19.0187 109.179 19.5093 108.936 20.16C108.703 20.8107 108.587 21.6747 108.587 22.752L106.111 21.568C106.111 20.2027 106.386 18.9227 106.936 17.728C107.487 16.5333 108.312 15.568 109.412 14.832C110.522 14.096 111.918 13.728 113.6 13.728C114.943 13.728 116.038 13.9573 116.884 14.416C117.731 14.8747 118.386 15.456 118.852 16.16C119.328 16.864 119.666 17.6 119.867 18.368C120.068 19.1253 120.19 19.8187 120.232 20.448C120.274 21.0773 120.296 21.536 120.296 21.824V31.52H115.917ZM104.208 31.52V14.24H108.047V19.968H108.587V31.52H104.208Z" fill="black"/>
<path d="M124.381 31.52L124.412 8.48H128.791V22.56L134.598 14.24H139.929L133.742 22.88L140.342 31.52H134.725L128.791 23.2V31.52H124.381Z" fill="black"/>
<path d="M149.321 32C147.597 32 146.085 31.6107 144.784 30.832C143.483 30.0533 142.467 28.9813 141.738 27.616C141.018 26.24 140.659 24.6613 140.659 22.88C140.659 21.0773 141.029 19.4933 141.769 18.128C142.51 16.752 143.53 15.68 144.831 14.912C146.132 14.144 147.629 13.76 149.321 13.76C151.046 13.76 152.558 14.1493 153.859 14.928C155.171 15.7067 156.191 16.784 156.921 18.16C157.651 19.5253 158.016 21.0987 158.016 22.88C158.016 24.672 157.646 26.256 156.905 27.632C156.176 28.9973 155.155 30.0693 153.843 30.848C152.542 31.616 151.035 32 149.321 32ZM149.321 27.936C150.707 27.936 151.738 27.4667 152.415 26.528C153.103 25.5787 153.447 24.3627 153.447 22.88C153.447 21.344 153.098 20.1173 152.399 19.2C151.712 18.2827 150.686 17.824 149.321 17.824C148.38 17.824 147.608 18.0373 147.005 18.464C146.402 18.8907 145.953 19.4827 145.656 20.24C145.371 20.9973 145.228 21.8773 145.228 22.88C145.228 24.4267 145.572 25.6587 146.259 26.576C146.957 27.4827 147.978 27.936 149.321 27.936Z" fill="black"/>
<path d="M173.182 31.52V23.36C173.182 22.9653 173.161 22.464 173.119 21.856C173.076 21.2373 172.944 20.6187 172.722 20C172.5 19.3813 172.135 18.864 171.627 18.448C171.13 18.032 170.422 17.824 169.501 17.824C169.131 17.824 168.734 17.8827 168.311 18C167.888 18.1173 167.492 18.3467 167.121 18.688C166.751 19.0187 166.444 19.5093 166.201 20.16C165.969 20.8107 165.852 21.6747 165.852 22.752L163.377 21.568C163.377 20.2027 163.652 18.9227 164.202 17.728C164.752 16.5333 165.577 15.568 166.677 14.832C167.788 14.096 169.184 13.728 170.866 13.728C172.209 13.728 173.304 13.9573 174.15 14.416C174.996 14.8747 175.652 15.456 176.117 16.16C176.593 16.864 176.932 17.6 177.133 18.368C177.334 19.1253 177.455 19.8187 177.498 20.448C177.54 21.0773 177.561 21.536 177.561 21.824V31.52H173.182ZM161.473 31.52V14.24H165.313V19.968H165.852V31.52H161.473Z" fill="black"/>
<path d="M189.333 32C187.577 32 186.027 31.6213 184.684 30.864C183.351 30.096 182.304 29.0453 181.543 27.712C180.792 26.368 180.416 24.832 180.416 23.104C180.416 21.216 180.786 19.5733 181.527 18.176C182.267 16.7787 183.288 15.696 184.589 14.928C185.89 14.1493 187.387 13.76 189.079 13.76C190.877 13.76 192.405 14.1867 193.664 15.04C194.923 15.8933 195.854 17.0933 196.457 18.64C197.059 20.1867 197.271 22.0053 197.091 24.096H192.823V22.496C192.823 20.736 192.543 19.472 191.982 18.704C191.432 17.9253 190.528 17.536 189.269 17.536C187.799 17.536 186.715 17.9893 186.017 18.896C185.329 19.792 184.986 21.12 184.986 22.88C184.986 24.4907 185.329 25.7387 186.017 26.624C186.715 27.4987 187.736 27.936 189.079 27.936C189.925 27.936 190.65 27.7493 191.253 27.376C191.855 27.0027 192.316 26.464 192.633 25.76L196.948 27.008C196.303 28.5867 195.282 29.8133 193.886 30.688C192.501 31.5627 190.983 32 189.333 32ZM183.653 24.096V20.864H195.013V24.096H183.653Z" fill="black"/>
<path d="M208.226 32C206.449 32 204.926 31.6 203.656 30.8C202.387 30 201.414 28.912 200.737 27.536C200.06 26.16 199.722 24.608 199.722 22.88C199.722 21.1307 200.071 19.568 200.769 18.192C201.477 16.816 202.472 15.7333 203.752 14.944C205.031 14.1547 206.544 13.76 208.289 13.76C210.309 13.76 212.002 14.2773 213.366 15.312C214.741 16.336 215.619 17.7387 216 19.52L211.685 20.672C211.431 19.776 210.986 19.0773 210.352 18.576C209.728 18.0747 209.019 17.824 208.226 17.824C207.316 17.824 206.57 18.048 205.989 18.496C205.407 18.9333 204.979 19.536 204.704 20.304C204.429 21.0613 204.291 21.92 204.291 22.88C204.291 24.384 204.619 25.6053 205.275 26.544C205.941 27.472 206.925 27.936 208.226 27.936C209.199 27.936 209.939 27.712 210.447 27.264C210.955 26.816 211.335 26.176 211.589 25.344L216 26.272C215.513 28.1067 214.593 29.52 213.239 30.512C211.885 31.504 210.214 32 208.226 32Z" fill="black"/>
<path d="M31.86 31.3918C31.86 26.638 35.9701 22.7843 41.04 22.7843H51.197C52.745 22.7843 54 23.961 54 25.4126C54 33.4686 47.0349 39.9993 38.4431 39.9993H35.2402C33.3734 39.9993 31.86 38.5803 31.86 36.8299V31.3918Z" fill="#00B589"/>
<path d="M27.54 29.3672C27.54 23.4949 22.4629 18.7345 16.2 18.7345H3.46259C1.55025 18.7345 0 20.188 0 21.9811C0 31.9327 8.60392 40 19.2174 40H23.3354C25.6575 40 27.54 38.2349 27.54 36.0576V29.3672Z" fill="#00B589"/>
<path d="M42.3902 18.7345C46.4163 18.7345 49.6801 15.6742 49.6801 11.8991C49.6801 8.12404 46.4163 5.06375 42.3902 5.06375C38.364 5.06375 35.1002 8.12404 35.1002 11.8991C35.1002 15.6742 38.364 18.7345 42.3902 18.7345Z" fill="#00B589"/>
<path d="M13.7702 13.6707C9.74409 13.6707 6.48025 10.6104 6.48025 6.83535C6.48025 3.06029 9.74409 4.50171e-08 13.7702 0C17.7964 -4.50171e-08 21.0602 3.06029 21.0602 6.83535C21.0602 10.6104 17.7964 13.6707 13.7702 13.6707Z" fill="#00B589"/>
</svg>
