<svg width="40" height="40" viewBox="0 0 40 40" fill="none" xmlns="http://www.w3.org/2000/svg">
<circle cx="26.25" cy="38.7495" r="1.24999" transform="rotate(-90 26.25 38.7495)" fill="white" fill-opacity="0.2"/>
<circle cx="38.75" cy="38.7495" r="1.24999" transform="rotate(-90 38.75 38.7495)" fill="white" fill-opacity="0.2"/>
<circle cx="1.24999" cy="13.7495" r="1.24999" transform="rotate(-90 1.24999 13.7495)" fill="white" fill-opacity="0.2"/>
<circle cx="26.25" cy="13.7495" r="1.24999" transform="rotate(-90 26.25 13.7495)" fill="white" fill-opacity="0.2"/>
<circle cx="13.75" cy="13.7495" r="1.24999" transform="rotate(-90 13.75 13.7495)" fill="white" fill-opacity="0.2"/>
<circle cx="38.75" cy="13.7495" r="1.24999" transform="rotate(-90 38.75 13.7495)" fill="white" fill-opacity="0.2"/>
<circle cx="26.25" cy="26.2495" r="1.24999" transform="rotate(-90 26.25 26.2495)" fill="white" fill-opacity="0.2"/>
<circle cx="38.75" cy="26.2495" r="1.24999" transform="rotate(-90 38.75 26.2495)" fill="white" fill-opacity="0.2"/>
<circle cx="1.24999" cy="1.25001" r="1.24999" transform="rotate(-90 1.24999 1.25001)" fill="white" fill-opacity="0.2"/>
<circle cx="26.25" cy="1.25001" r="1.24999" transform="rotate(-90 26.25 1.25001)" fill="white" fill-opacity="0.2"/>
<circle cx="13.75" cy="1.25001" r="1.24999" transform="rotate(-90 13.75 1.25001)" fill="white" fill-opacity="0.2"/>
<circle cx="38.75" cy="1.25001" r="1.24999" transform="rotate(-90 38.75 1.25001)" fill="white" fill-opacity="0.2"/>
</svg>
