<svg width="32" height="32" viewBox="0 0 32 32" fill="none" xmlns="http://www.w3.org/2000/svg">
<g clip-path="url(#clip0_15093_27257)">
<g clip-path="url(#clip1_15093_27257)">
<path d="M22.6239 14.344V14.676C22.6239 15.0829 22.6895 15.487 22.8181 15.8729L23.5701 18.129H24.9895V12.9246H24.0432C23.2594 12.9247 22.6239 13.5601 22.6239 14.344Z" fill="#3D3938"/>
<path d="M29.1019 15.3268L28.3013 18.129L24.5163 14.8172C23.9937 14.8172 23.5701 14.3935 23.5701 13.8709C23.5701 13.0871 24.2056 12.4516 24.9894 12.4516H28.3012C28.8239 12.4516 29.2475 12.8753 29.2475 13.3978V14.2871C29.2475 14.6387 29.1985 14.9886 29.1019 15.3268Z" fill="#4C4846"/>
<path d="M27.3544 19.5486H24.5157V21.6426H27.3544V19.5486Z" fill="#E6AF78"/>
<path d="M24.5161 20.4174C24.9549 20.5957 25.4334 20.6961 25.9355 20.6961C26.4375 20.6961 26.916 20.5957 27.3548 20.4174V19.5483H24.5161V20.4174Z" fill="#D29B6E"/>
<path d="M29.6373 21.3482L27.3548 20.6961L25.9356 21.6379L24.5163 20.696L22.2339 21.3482C21.6245 21.5223 21.2045 22.0792 21.2045 22.7129V26.172C21.2045 26.4333 21.4163 26.6451 21.6776 26.6451H30.1937C30.455 26.6451 30.6668 26.4333 30.6668 26.172V22.7129C30.6668 22.0792 30.2467 21.5223 29.6373 21.3482Z" fill="#00B589"/>
<path d="M25.9353 20.0215C24.3675 20.0215 23.0966 18.7505 23.0966 17.1828V16.6285C23.0966 16.3775 23.1963 16.1368 23.3737 15.9594L24.2317 15.1014C24.4133 14.9197 24.6617 14.8153 24.9185 14.8234C26.4309 14.8711 27.7696 15.1951 28.5014 15.9098C28.6805 16.0848 28.774 16.3295 28.774 16.5799V17.1828C28.774 18.7506 27.5031 20.0215 25.9353 20.0215Z" fill="#F0C087"/>
<path d="M24.5159 16.7458C24.5159 16.2 24.9743 15.7662 25.5189 15.8009C26.474 15.8619 27.8913 16.0215 28.7608 16.4397C28.7325 16.2401 28.6467 16.0517 28.5014 15.9097C27.7696 15.195 26.4309 14.871 24.9185 14.8233L24.9185 14.8234V14.8233C24.6617 14.8152 24.4133 14.9197 24.2317 15.1013L23.3738 15.9592C23.1963 16.1367 23.0966 16.3774 23.0966 16.6283V17.1826C23.0966 18.4772 23.964 19.5672 25.1488 19.9085C24.7544 19.422 24.516 18.8044 24.516 18.1289L24.5159 16.7458Z" fill="#E6AF78"/>
<path d="M28.7746 24.1227C28.7746 23.7462 28.9241 23.3852 29.1903 23.119L30.4081 21.9012C30.5709 22.1338 30.667 22.4139 30.667 22.713V26.172C30.667 26.4333 30.4552 26.6451 30.1939 26.6451H28.7746V24.1227Z" fill="#00B589"/>
<path d="M25.9353 21.6379L25.1334 22.2504C24.9952 22.356 24.7955 22.3137 24.712 22.1612L23.9927 20.8475L24.2822 20.4058C24.3465 20.3079 24.4833 20.2912 24.5692 20.3708L25.9353 21.6379Z" fill="#00B589"/>
<path d="M25.9355 21.638L26.7375 22.2506C26.8756 22.3561 27.0753 22.3138 27.1588 22.1613L27.8781 20.8476L27.5886 20.4059C27.5244 20.308 27.3875 20.2913 27.3016 20.3709L25.9355 21.638Z" fill="#00B589"/>
<path d="M9.80243 19.8238C9.39813 18.7526 9.07747 16.9111 9.0082 15.9523C8.87643 14.1278 7.50149 12.6405 5.64283 12.6405C3.78417 12.6405 2.40923 14.1279 2.27746 15.9523C2.20819 16.911 1.88753 18.7526 1.48323 19.8238C1.39414 20.06 1.49698 20.3204 1.72952 20.4258C2.16276 20.6221 3.08648 21.0068 4.20051 21.1566H7.08509C8.19391 21.0065 9.1241 20.6216 9.55608 20.4258C9.78868 20.3204 9.89152 20.06 9.80243 19.8238Z" fill="#3D3938"/>
<path d="M9.55578 20.4259C9.78827 20.3205 9.89116 20.0601 9.80202 19.824C9.39777 18.7527 9.07705 16.9112 9.00784 15.9524C8.87613 14.1279 7.50113 12.6406 5.64253 12.6406C5.63783 12.6406 5.63319 12.6406 5.62849 12.6407C4.20233 12.6465 3.69834 14.5915 4.92604 15.3172C4.99977 15.3608 5.04704 15.3817 5.04704 15.3817L6.12235 21.1567H7.08479C8.19361 21.0064 9.1238 20.6216 9.55578 20.4259Z" fill="#4C4846"/>
<path d="M9.06485 22.1066L7.53379 21.3411C7.21319 21.1808 7.01066 20.8531 7.01072 20.4947L7.01083 19.0753H4.17203V20.4948C4.17203 20.8532 3.96956 21.1808 3.64896 21.3411L2.1179 22.1066C1.63705 22.347 1.33334 22.8385 1.33334 23.376V26.172C1.33334 26.4332 1.54515 26.6451 1.80646 26.6451H9.37635C9.63766 26.6451 9.84946 26.4332 9.84946 26.172V23.3761C9.84946 22.8385 9.5457 22.347 9.06485 22.1066Z" fill="#E6AF78"/>
<path d="M5.59137 20.9677C6.10081 20.9677 6.58876 20.8627 7.0361 20.6758C7.02435 20.6161 7.01066 20.5568 7.01066 20.4947L7.01077 19.0753H4.17198V20.4947C4.17198 20.5572 4.15828 20.6168 4.14642 20.6767C4.59404 20.8626 5.08177 20.9677 5.59137 20.9677Z" fill="#D29B6E"/>
<path d="M9.06485 22.1066L7.97414 21.5612C7.46836 22.3422 6.59117 22.8602 5.59143 22.8602C4.59169 22.8602 3.71444 22.3422 3.20867 21.5612L2.11795 22.1066C1.6371 22.347 1.33334 22.8384 1.33334 23.376V26.1719C1.33334 26.4332 1.54515 26.645 1.80646 26.645H9.37635C9.63766 26.645 9.84946 26.4332 9.84946 26.1719V23.376C9.84946 22.8384 9.5457 22.347 9.06485 22.1066Z" fill="#E55E67"/>
<path d="M5.59134 20.0215C4.14805 20.0215 2.95639 18.9444 2.7762 17.5502C2.75008 17.3482 2.84719 17.1501 3.02903 17.0584C3.24686 16.9485 3.56339 16.7633 3.86646 16.4928C4.20397 16.1917 4.40197 15.8741 4.5138 15.641C4.61011 15.4403 4.83149 15.3267 5.04725 15.3818C6.71306 15.8067 7.84715 16.6733 8.25862 17.0271C8.36907 17.1221 8.43273 17.2622 8.42138 17.4075C8.30674 18.8702 7.08351 20.0215 5.59134 20.0215Z" fill="#F0C087"/>
<path d="M8.25879 17.027C7.84738 16.6732 6.71323 15.8065 5.04742 15.3817C4.83166 15.3266 4.61028 15.4402 4.51398 15.6409C4.4293 15.8175 4.28933 16.0424 4.08165 16.272C4.08159 16.2726 4.08142 16.2731 4.08137 16.2736C4.01691 16.3467 3.94828 16.4199 3.86669 16.4928C3.56362 16.7632 3.24708 16.9485 3.02926 17.0584C2.84742 17.1501 2.75037 17.3482 2.77643 17.5502C2.93828 18.8023 3.91808 19.799 5.1612 19.9891C4.59476 19.6037 4.17223 19.0738 4.17223 18.129V17.4544C4.27971 17.375 4.38793 17.2959 4.49667 17.1988C4.75964 16.9642 4.98921 16.6928 5.17329 16.4006C6.44763 16.7983 7.31158 17.4606 7.63912 17.7423C7.72878 17.8209 7.9513 18.026 8.21164 18.2702C8.32364 18.0006 8.39772 17.7114 8.4215 17.4075C8.4329 17.2621 8.36925 17.1221 8.25879 17.027Z" fill="#E6AF78"/>
<path d="M1.62175 22.5231C1.4395 22.765 1.33334 23.0617 1.33334 23.376V26.1719C1.33334 26.4332 1.54515 26.645 1.80646 26.645H3.2258V24.2611C3.2258 23.9737 3.09512 23.7018 2.87065 23.5222L1.62175 22.5231Z" fill="#E55E67"/>
<path d="M22.7975 21.4609L18.8389 20.0214L16.0002 20.9676L13.1615 20.0214L9.20296 21.4609C8.45508 21.7329 7.95721 22.4437 7.95721 23.2394V26.172C7.95721 26.4332 8.16902 26.6451 8.43033 26.6451H23.5701C23.8314 26.6451 24.0432 26.4332 24.0432 26.172V23.2394C24.0432 22.4436 23.5454 21.7328 22.7975 21.4609Z" fill="#8F776D"/>
<path d="M23.5339 21.95C23.8533 22.2929 24.0432 22.7496 24.0432 23.2394V26.1719C24.0432 26.4333 23.8313 26.6451 23.57 26.6451H21.2045V25.0634C21.2045 24.5614 21.4038 24.0801 21.7588 23.7252L23.5339 21.95Z" fill="#E2E9EF"/>
<path d="M21.2042 10.2645V6.30103C21.2042 5.77841 20.7805 5.3548 20.258 5.3548H14.5805C12.4902 5.3548 10.7955 7.04937 10.7955 9.13977V10.2645C10.7955 10.773 10.8775 11.2782 11.0383 11.7606L11.1958 12.2331C11.2441 12.3778 11.2686 12.5293 11.2686 12.6819V12.9247H20.731V12.6819C20.731 12.5293 20.7556 12.3778 20.8038 12.2331L20.9613 11.7606C21.1222 11.2781 21.2042 10.7729 21.2042 10.2645Z" fill="#3D3938"/>
<path d="M13.161 7.27682C13.161 8.33832 14.0216 9.19884 15.0831 9.19884H15.3492L15.4776 12.9246H20.7309V12.6818C20.7309 12.5293 20.7555 12.3777 20.8037 12.233L20.9612 11.7605C21.122 11.2781 21.204 10.7729 21.204 10.2644V6.30103C21.204 5.77841 20.7803 5.3548 20.2578 5.3548H15.0831C14.0216 5.3548 13.161 6.21532 13.161 7.27682Z" fill="#4C4846"/>
<path d="M18.8385 16.7098H13.1609V20.9678H18.8385V16.7098Z" fill="#E6AF78"/>
<path d="M13.161 18.3094C13.9968 18.7936 14.9644 19.0752 15.9997 19.0752C17.0351 19.0752 18.0027 18.7936 18.8384 18.3094V16.7096H13.161L13.161 18.3094Z" fill="#D29B6E"/>
<path d="M15.9999 20.9677L14.491 22.4766C14.2882 22.6795 13.9529 22.6566 13.7796 22.4281L12.215 20.3665L12.6242 19.5041C12.745 19.2496 13.06 19.1564 13.2998 19.3042L15.9999 20.9677Z" fill="#E2E9EF"/>
<path d="M16 20.9677L17.5089 22.4766C17.7118 22.6795 18.047 22.6566 18.2203 22.4281L19.7849 20.3665L19.3757 19.5041C19.2549 19.2496 18.9399 19.1564 18.7001 19.3042L16 20.9677Z" fill="#E2E9EF"/>
<path d="M16.0001 18.129C13.3871 18.129 11.2689 16.0107 11.2689 13.3978V12.8435C11.2689 12.5925 11.3686 12.3519 11.546 12.1744L11.9379 11.7824C12.1154 11.605 12.2151 11.3643 12.2151 11.1133V9.97919C12.2151 9.76011 12.3622 9.56978 12.5754 9.51942C13.6943 9.25514 17.1763 8.62911 19.546 10.3719C19.6999 10.4851 19.785 10.671 19.785 10.862V11.1133C19.785 11.3643 19.8846 11.605 20.0621 11.7824L20.454 12.1744C20.6314 12.3518 20.7311 12.5925 20.7311 12.8435V13.3978C20.7313 16.0107 18.6131 18.129 16.0001 18.129Z" fill="#F0C087"/>
<path d="M19.546 10.372C17.8794 9.14623 15.6656 9.09318 14.1076 9.26099C13.4504 9.33174 12.9074 9.44111 12.5755 9.51949C12.3623 9.56984 12.2152 9.76017 12.2152 9.97925V11.1133C12.2152 11.3643 12.1155 11.605 11.938 11.7825L11.5461 12.1744C11.3686 12.3519 11.2689 12.5926 11.2689 12.8436V13.3978C11.2689 15.8169 13.0856 17.8084 15.4284 18.0912C14.612 17.241 14.1076 16.0889 14.1076 14.8172V11.359C14.1076 10.8795 14.4641 10.4788 14.9398 10.4192C16.0752 10.2768 18.1548 10.1912 19.785 11.1135V10.8621C19.7851 10.671 19.6998 10.4851 19.546 10.372Z" fill="#E6AF78"/>
<path d="M8.46648 21.95C8.14702 22.2929 7.95721 22.7496 7.95721 23.2394V26.1719C7.95721 26.4333 8.16902 26.6451 8.43033 26.6451H10.7959V25.0634C10.7959 24.5614 10.5965 24.0801 10.2416 23.7252L8.46648 21.95Z" fill="#E2E9EF"/>
</g>
</g>
<defs>
<clipPath id="clip0_15093_27257">
<rect width="32" height="32" fill="white"/>
</clipPath>
<clipPath id="clip1_15093_27257">
<rect width="29.3333" height="29.3333" fill="white" transform="translate(1.33334 1.33331)"/>
</clipPath>
</defs>
</svg>
