<svg width="24" height="24" viewBox="0 0 24 24" fill="none" xmlns="http://www.w3.org/2000/svg">
<path fill-rule="evenodd" clip-rule="evenodd" d="M12.0012 22C13.1294 22 14.0524 21.0769 14.0524 19.9487H9.94988C9.94988 21.0769 10.8627 22 12.0012 22ZM18.1551 15.8462V10.7179C18.1551 7.56923 16.473 4.93333 13.5397 4.2359V3.53846C13.5397 2.68718 12.8525 2 12.0012 2C11.1499 2 10.4628 2.68718 10.4628 3.53846V4.2359C7.51917 4.93333 5.84737 7.55897 5.84737 10.7179V15.8462L4.52429 17.1692C3.87814 17.8154 4.32942 18.9231 5.24224 18.9231H18.7499C19.6628 18.9231 20.1243 17.8154 19.4781 17.1692L18.1551 15.8462Z" fill="#5F686F"/>
</svg>
