<svg width="20" height="20" viewBox="0 0 20 20" fill="none" xmlns="http://www.w3.org/2000/svg">
<path fill-rule="evenodd" clip-rule="evenodd" d="M2.02051 8.2284V11.7748C2.02051 12.2625 2.41948 12.6614 2.90712 12.6614H5.56694L8.48388 15.5784C9.04244 16.1369 9.99998 15.738 9.99998 14.9489V5.04548C9.99998 4.25639 9.04244 3.85742 8.48388 4.41598L5.56694 7.34179H2.90712C2.41948 7.34179 2.02051 7.74076 2.02051 8.2284ZM13.9897 10.0016C13.9897 8.43234 13.0854 7.08469 11.7732 6.4286V13.5658C13.0854 12.9186 13.9897 11.5709 13.9897 10.0016ZM11.7732 3.30773V3.48506C11.7732 3.82197 11.9949 4.11455 12.3052 4.23867C14.5926 5.15188 16.2062 7.395 16.2062 10.0016C16.2062 12.6082 14.5926 14.8514 12.3052 15.7646C11.986 15.8887 11.7732 16.1813 11.7732 16.5182V16.6955C11.7732 17.2541 12.3318 17.6442 12.846 17.4491C15.8516 16.3054 17.9795 13.4062 17.9795 10.0016C17.9795 6.59705 15.8516 3.69784 12.846 2.55412C12.3318 2.3502 11.7732 2.74917 11.7732 3.30773Z" fill="white"/>
</svg>
