<svg width="96" height="96" viewBox="0 0 96 96" fill="none" xmlns="http://www.w3.org/2000/svg">
<circle cx="48" cy="48" r="48" fill="#F3F6F9"/>
<mask id="mask0_14994_1117" style="mask-type:alpha" maskUnits="userSpaceOnUse" x="0" y="0" width="96" height="96">
<circle cx="48" cy="48" r="48" fill="#F3F6F9"/>
</mask>
<g mask="url(#mask0_14994_1117)">
<circle cx="49.6847" cy="46.1978" r="25.1246" fill="black"/>
<path fill-rule="evenodd" clip-rule="evenodd" d="M40.9789 70.4447H41.5752C42.4298 65.8158 42.4298 59.9091 42.4298 59.9091H54.0779C54.0779 59.9091 54.1461 67.0581 55.0006 71.687L57.321 71.3318C55.1355 72.7046 52.5494 73.4986 49.778 73.4986C46.4547 73.4986 43.3982 72.3571 40.9789 70.4447Z" fill="#BD9789"/>
<path d="M22.8604 80.5247C22.6847 74.6952 27.7153 70.4447 33.5474 70.4447H62.1974C68.2874 70.4447 73.4437 75.061 73.1002 81.1413C72.8616 85.3653 72.1736 90.0717 70.5084 93.7251C69.2309 96.528 66.1137 97.6774 63.0334 97.6774C54.7199 97.6774 42.6676 97.6774 33.3084 97.6774C30.2281 97.6774 27.1049 96.5524 25.7029 93.8096C23.6768 89.8457 22.9913 84.8668 22.8604 80.5247Z" fill="#911A3E"/>
<path d="M48.3125 75.1781C45.8569 75.1781 43.5156 73.8552 42.2821 73.02C41.7115 72.6337 41.4804 71.9311 41.596 71.2519C41.9787 69.0036 42.2837 65.7113 42.2837 65.7113C42.2837 65.7113 45.5641 66.7038 48.3125 66.7038C51.0609 66.7038 54.3414 65.7113 54.3414 65.7113C54.3414 65.7113 54.6463 69.0036 55.029 71.2519C55.1446 71.9311 54.9135 72.6337 54.3429 73.02C53.1095 73.8552 50.7681 75.1781 48.3125 75.1781Z" fill="#901A3E"/>
<ellipse cx="67.4071" cy="43.2443" rx="2.74843" ry="3.66457" fill="#EFC9B4"/>
<ellipse cx="28.6391" cy="43.2443" rx="2.74843" ry="3.66457" fill="#EFC9B4"/>
<ellipse cx="67.4074" cy="43.2443" rx="2.74843" ry="3.66457" fill="#BD9789" fill-opacity="0.2"/>
<ellipse cx="28.6391" cy="43.2443" rx="2.74843" ry="3.66457" fill="#BD9789" fill-opacity="0.2"/>
<path d="M47.8739 22.3782C47.8824 22.3782 47.8909 22.3782 47.8994 22.3782C58.2246 22.3985 66.7301 28.5855 66.7301 36.6649C66.7301 38.8022 66.8941 40.342 67.0575 42.4428C67.2196 44.5284 67.3812 46.6065 67.3812 48.6978C67.3812 57.8799 55.8515 64.7033 47.9174 64.7427C47.9114 64.7428 47.9054 64.7428 47.8994 64.7428C47.8909 64.7428 47.8824 64.7428 47.8739 64.7428C47.8654 64.7428 47.8569 64.7428 47.8484 64.7428C47.8424 64.7428 47.8364 64.7428 47.8305 64.7427C39.8963 64.7033 28.3666 57.8799 28.3666 48.6978C28.3666 46.6065 28.5282 44.5284 28.6904 42.4428C28.8537 40.342 29.0177 38.8022 29.0177 36.6649C29.0177 28.5855 37.5232 22.3986 47.8484 22.3782C47.8569 22.3782 47.8654 22.3782 47.8739 22.3782Z" fill="#EFC9B4"/>
<path fill-rule="evenodd" clip-rule="evenodd" d="M23.5166 49.7212C21.5278 46.9094 20.3464 42.9687 20.3464 37.5425C20.3464 21.5169 34.6733 12.6481 47.7729 10.8773C55.344 9.8538 60.5924 13.1486 63.0631 18.4771C68.3164 19.2235 73.845 25.4155 76.2812 33.8352C78.1784 40.392 77.9121 55.5386 73.3552 61.3602C71.3428 62.9353 70.0083 64.5707 68.8317 66.0127C67.6306 67.4846 66.5939 68.755 65.1686 69.554C60.7261 70.4425 57.5312 70.7693 55.2672 70.5933C54.933 68.4272 54.7553 66.1102 54.6608 64.2591C61.5282 61.7881 68.2815 55.993 68.2815 48.8164C68.2815 48.1639 68.2664 47.5127 68.2407 46.8622C69.3746 46.3526 70.1911 44.9232 70.1911 43.2396C70.1911 41.3076 69.1161 39.7105 67.7201 39.4537C67.65 38.4465 67.6024 37.4434 67.6024 36.2667C67.6024 27.8404 58.7316 21.3877 47.963 21.3665L47.9364 21.3665L47.9097 21.3665C37.1411 21.3877 28.2703 27.8404 28.2703 36.2667C28.2703 37.4393 28.223 38.4394 28.1534 39.443C26.7268 39.6625 25.6191 41.2785 25.6191 43.2395C25.6191 44.9535 26.4653 46.4039 27.631 46.8887C27.606 47.5304 27.5913 48.1728 27.5913 48.8164C27.5913 56.3648 35.0624 62.3848 42.2792 64.6161C42.1633 66.7164 41.9409 69.334 41.5141 71.6459H32.71C29.9576 71.6459 27.3857 72.5926 25.4508 74.2053C25.2262 74.1435 25.0041 74.0705 24.7848 73.9859C19.2125 71.8386 17.5273 63.0893 21.0208 54.444C21.7152 52.7258 22.5618 51.1409 23.5166 49.7212Z" fill="#150C0C"/>
<path d="M67.6836 34.4701C68.5181 34.4701 69.2929 34.0213 69.9343 33.2535L68.4785 28.4911L59.4527 21.8805L45.259 16.9758L29.755 22.378L28.4448 34.4701C32.0843 38.0242 37.0339 32.5427 40.9645 32.5427C44.895 32.5427 39.1447 36.3811 45.9141 36.3811C54.5759 36.3811 59.4131 29.0667 61.1269 26.6429C61.1269 26.6429 63.224 34.4701 67.6836 34.4701Z" fill="#150C0C"/>
<path fill-rule="evenodd" clip-rule="evenodd" d="M23.1309 72.3487C19.9282 68.8657 17.5989 62.1129 21.2384 53.9385C21.8461 52.4346 22.6082 51.0163 23.422 49.7447L35.5049 62.5394C34.9011 63.7641 35.9868 64.5858 36.8516 65.2404C37.342 65.6116 37.7614 65.929 37.7614 66.2356C37.8053 67.7209 37.9013 69.1256 37.9904 70.4278C38.3447 75.607 38.5883 79.1669 34.9954 79.7412C33.254 74.6394 29.3101 73.9434 26.3436 73.4199C24.9435 73.1728 23.7611 72.9641 23.1309 72.3487Z" fill="#150C0C"/>
<path fill-rule="evenodd" clip-rule="evenodd" d="M55.9398 62.7489C55.9573 62.7757 55.9764 62.8014 55.997 62.826C56.99 64.0055 58.5771 66.1918 58.9352 70.4056C58.9404 70.4678 58.9532 70.5311 58.9734 70.5902C60.7059 75.6645 63.6979 78.6246 67.3103 77.7169C67.6569 77.6298 67.8606 77.282 67.8344 76.9256C67.5455 72.9959 69.5421 71.1403 71.4836 69.3359C73.2067 67.7345 74.8865 66.1733 74.8866 63.2382C74.8868 60.827 74.541 58.5419 73.9224 56.4973C72.6849 52.4065 70.3558 49.2785 67.5218 48.0296C67.4999 48.0199 67.478 48.0104 67.4561 48.001C67.4585 48.1857 67.4598 48.3706 67.4598 48.5556C67.4598 54.8985 61.9578 60.1159 55.9398 62.7489Z" fill="#150C0C"/>
<ellipse cx="34.8699" cy="50.7763" rx="0.534416" ry="0.534416" fill="#F0C6C6" fill-opacity="0.5" style="mix-blend-mode:multiply"/>
<ellipse cx="35.938" cy="52.456" rx="0.534416" ry="0.534416" fill="#F0C6C6" fill-opacity="0.5" style="mix-blend-mode:multiply"/>
<ellipse cx="37.771" cy="50.7763" rx="0.534416" ry="0.534416" fill="#F0C6C6" fill-opacity="0.5" style="mix-blend-mode:multiply"/>
<ellipse rx="0.534416" ry="0.534416" transform="matrix(-1 0 0 1 60.3536 50.7763)" fill="#F0C6C6" fill-opacity="0.5" style="mix-blend-mode:multiply"/>
<ellipse rx="0.534416" ry="0.534416" transform="matrix(-1 0 0 1 59.2856 52.456)" fill="#F0C6C6" fill-opacity="0.5" style="mix-blend-mode:multiply"/>
<ellipse rx="0.534416" ry="0.534416" transform="matrix(-1 0 0 1 57.4523 50.7763)" fill="#F0C6C6" fill-opacity="0.5" style="mix-blend-mode:multiply"/>
</g>
</svg>
