<svg width="20" height="20" viewBox="0 0 20 20" fill="none" xmlns="http://www.w3.org/2000/svg">
<g clip-path="url(#clip0_15066_100)">
<path d="M3.60314 10C3.60314 6.81577 5.34141 4.02264 7.97569 2.50897C3.64961 2.30149 0 5.71844 0 10C0 14.2855 3.65361 17.6983 7.97569 17.491C5.39235 16.0067 3.60314 13.2405 3.60314 10Z" fill="#ECBB18"/>
<path fill-rule="evenodd" clip-rule="evenodd" d="M12.3899 2.5005C8.19178 2.5005 4.77966 5.86694 4.77966 10C4.77966 14.1337 8.19245 17.4996 12.3899 17.4996C16.5859 17.4996 20.0001 14.1351 20.0001 10C20.0001 5.86497 16.5859 2.5005 12.3899 2.5005ZM15.6082 13.1593C14.7915 13.9066 13.8115 14.0561 12.8432 14.0561C10.0198 14.0561 8.74817 12.1591 8.74817 9.94016C8.74817 7.72123 10.1598 5.81273 12.8432 5.81273C13.8582 5.81273 14.6632 6.11165 15.5148 6.83596C15.8298 7.12339 15.8648 7.62926 15.5498 7.95117C15.2348 8.2271 14.7565 8.19261 14.4765 7.91668C13.9982 7.42231 13.5082 7.28435 12.8432 7.28435C11.0465 7.28435 10.1832 8.53752 10.1832 9.94016C10.1832 11.3658 11.0348 12.6764 12.8432 12.6764C13.5082 12.6764 14.1265 12.412 14.6632 11.9406C15.0248 11.6647 15.5265 11.8027 15.7365 12.0786C15.9232 12.3315 16.0165 12.7569 15.6082 13.1593Z" fill="#ECBB18"/>
</g>
<defs>
<clipPath id="clip0_15066_100">
<rect width="20" height="20" fill="white"/>
</clipPath>
</defs>
</svg>
