<svg width="28" height="28" viewBox="0 0 28 28" fill="none" xmlns="http://www.w3.org/2000/svg">
<path fill-rule="evenodd" clip-rule="evenodd" d="M21 22.1667H7C6.35833 22.1667 5.83333 21.6417 5.83333 21V7C5.83333 6.35833 6.35833 5.83333 7 5.83333H21C21.6417 5.83333 22.1667 6.35833 22.1667 7V21C22.1667 21.6417 21.6417 22.1667 21 22.1667ZM22.1667 3.5H5.83333C4.55 3.5 3.5 4.55 3.5 5.83333V22.1667C3.5 23.45 4.55 24.5 5.83333 24.5H22.1667C23.45 24.5 24.5 23.45 24.5 22.1667V5.83333C24.5 4.55 23.45 3.5 22.1667 3.5Z" fill="#5F686F"/>
</svg>
