<svg width="42" height="42" viewBox="0 0 42 42" fill="none" xmlns="http://www.w3.org/2000/svg">
<circle cx="21" cy="21" r="21" fill="#F3F6F9"/>
<mask id="mask0_0_1169" style="mask-type:alpha" maskUnits="userSpaceOnUse" x="0" y="0" width="42" height="42">
<circle cx="21" cy="21" r="21" fill="#F3F6F9"/>
</mask>
<g mask="url(#mask0_0_1169)">
<path d="M9.54076 40.6846C8.53561 35.393 13.433 32.4598 18.8192 32.4598H23.3718C28.7476 32.4598 33.568 35.838 32.5082 41.1084C31.9633 43.8183 28.8879 45.6866 26.1237 45.6866C23.1415 45.6866 19.5809 45.6866 16.3746 45.6866C13.4862 45.6866 10.0798 43.5221 9.54076 40.6846Z" fill="#ECF3F7"/>
<path fill-rule="evenodd" clip-rule="evenodd" d="M17.0732 32.6056C17.4646 32.5485 17.863 32.508 18.2661 32.4844C18.2573 32.3356 18.2651 32.184 18.2884 32.0342C18.5902 30.0908 18.5902 27.8505 18.5902 27.8505H23.6862C23.6862 27.8505 23.6862 30.0908 23.988 32.0342C24.0122 32.1896 24.0197 32.3469 24.0093 32.501C24.358 32.5294 24.7028 32.5722 25.0419 32.629C23.9653 33.5245 22.5813 34.0631 21.0715 34.0631C19.5486 34.0631 18.1537 33.5151 17.0732 32.6056Z" fill="#DEB3A3"/>
<path fill-rule="evenodd" clip-rule="evenodd" d="M17.2712 45.6865H16.375C13.4867 45.6865 10.0802 43.5221 9.54122 40.6845C8.63356 35.9062 12.539 33.0509 17.2712 32.542V45.6865ZM25.294 32.6061C29.8307 33.3069 33.44 36.4771 32.5087 41.1083C31.9638 43.8182 28.8884 45.6865 26.1242 45.6865H25.294V32.6061Z" fill="#4D8FAB"/>
<path d="M24.6255 32.4598H27.6316L26.6406 45.6866H24.8568L24.6255 32.4598Z" fill="#4D8FAB"/>
<path d="M17.605 32.4598H14.5321L15.5451 45.6866H17.3686L17.605 32.4598Z" fill="#4D8FAB"/>
<path fill-rule="evenodd" clip-rule="evenodd" d="M22.8534 5.25C24.6131 5.25 26.1685 6.17724 27.1085 7.59595C29.1499 8.01375 30.6854 9.81882 30.6854 11.9823C30.6854 12.4231 30.6217 12.8491 30.5029 13.2514C30.9441 14.1443 31.2034 15.2347 31.2034 16.4119C31.2034 18.2294 30.5853 19.8401 29.6338 20.8362C29.6268 20.7507 29.6198 20.6652 29.6128 20.5797C29.5997 20.4212 29.5867 20.2704 29.5741 20.1243C29.5163 19.4549 29.4671 18.8858 29.4671 18.1472C29.4671 14.7459 25.6831 12.1413 21.0896 12.1327L21.0782 12.1327L21.0669 12.1327C16.4733 12.1413 12.6893 14.7459 12.6893 18.1472C12.6893 18.8858 12.6402 19.4549 12.5824 20.1243C12.5698 20.2704 12.5567 20.4212 12.5437 20.5797C12.5242 20.8173 12.5047 21.0547 12.4866 21.292C11.4627 20.085 10.8154 18.306 10.8154 16.3221C10.8154 14.4447 11.3951 12.7509 12.3249 11.5515C12.523 8.78451 14.7674 6.60292 17.5069 6.60292C18.086 6.60292 18.643 6.70042 19.1632 6.88033C20.1048 5.87355 21.4104 5.25 22.8534 5.25Z" fill="#150C0C"/>
<ellipse cx="11.8362" cy="20.6416" rx="1.20244" ry="1.60325" fill="#EFC9B4"/>
<ellipse rx="1.20244" ry="1.60325" transform="matrix(-1 0 0 1 30.5473 20.6416)" fill="#EFC9B4"/>
<ellipse opacity="0.1" cx="11.8362" cy="20.6416" rx="1.20244" ry="1.60325" fill="#A67F71"/>
<ellipse opacity="0.1" rx="1.20244" ry="1.60325" transform="matrix(-1 0 0 1 30.5475 20.6416)" fill="#A67F71"/>
<path d="M21.035 11.279C21.039 11.279 21.043 11.279 21.047 11.279C25.9323 11.2887 29.9565 14.2369 29.9565 18.0868C29.9565 19.1052 30.0341 19.839 30.1114 20.84C30.1881 21.8338 30.2646 22.824 30.2646 23.8205C30.2646 28.1959 24.8094 31.4473 21.0555 31.4661C21.0527 31.4661 21.0499 31.4661 21.047 31.4661C21.043 31.4661 21.039 31.4661 21.035 31.4661C21.0309 31.4661 21.0269 31.4661 21.0229 31.4661C21.0201 31.4661 21.0172 31.4661 21.0144 31.4661C17.2605 31.4473 11.8054 28.1959 11.8054 23.8205C11.8054 22.824 11.8818 21.8338 11.9586 20.84C12.0359 19.839 12.1134 19.1052 12.1134 18.0868C12.1134 14.2369 16.1377 11.2888 21.0229 11.2791C21.0269 11.2791 21.0309 11.279 21.035 11.279Z" fill="#EFC9B4"/>
<ellipse cx="14.863" cy="24.7902" rx="0.233807" ry="0.233807" fill="#CCA8A0" fill-opacity="0.5" style="mix-blend-mode:multiply"/>
<ellipse cx="15.3309" cy="25.5251" rx="0.233807" ry="0.233807" fill="#CCA8A0" fill-opacity="0.5" style="mix-blend-mode:multiply"/>
<circle cx="16.1321" cy="24.7902" r="0.233807" fill="#CCA8A0" fill-opacity="0.5" style="mix-blend-mode:multiply"/>
<ellipse rx="0.233808" ry="0.233807" transform="matrix(-1 0 0 1 26.8874 24.7902)" fill="#CCA8A0" fill-opacity="0.5" style="mix-blend-mode:multiply"/>
<ellipse rx="0.233808" ry="0.233807" transform="matrix(-1 0 0 1 26.4199 25.5251)" fill="#CCA8A0" fill-opacity="0.5" style="mix-blend-mode:multiply"/>
<ellipse rx="0.233807" ry="0.233807" transform="matrix(-1 0 0 1 25.6182 24.7902)" fill="#CCA8A0" fill-opacity="0.5" style="mix-blend-mode:multiply"/>
</g>
</svg>
