<svg width="32" height="32" viewBox="0 0 32 32" fill="none" xmlns="http://www.w3.org/2000/svg">
<circle cx="16" cy="16" r="16" fill="#F3F6F9"/>
<mask id="mask0_15019_13123" style="mask-type:alpha" maskUnits="userSpaceOnUse" x="0" y="0" width="32" height="32">
<circle cx="16" cy="16" r="16" fill="#F3F6F9"/>
</mask>
<g mask="url(#mask0_15019_13123)">
<path d="M7.26922 30.9978C6.50339 26.9662 10.2348 24.7313 14.3385 24.7313H17.8071C21.903 24.7313 25.5757 27.3052 24.7682 31.3207C24.3531 33.3854 22.0099 34.8089 19.9039 34.8089C17.6317 34.8089 14.9188 34.8089 12.4759 34.8089C10.2753 34.8089 7.67989 33.1598 7.26922 30.9978Z" fill="#ECF3F7"/>
<path fill-rule="evenodd" clip-rule="evenodd" d="M13.0081 24.8424C13.3211 24.7967 13.64 24.765 13.9628 24.7475C13.9386 24.5607 13.9414 24.367 13.9677 24.1765C14.1639 22.7549 14.1639 21.2194 14.1639 21.2194H18.0466C18.0466 21.2194 18.0466 22.7549 18.2427 24.1765C18.2696 24.3709 18.2719 24.5687 18.2461 24.7591C18.5277 24.7805 18.806 24.8144 19.0794 24.8602C18.2592 25.5425 17.2047 25.9528 16.0544 25.9528C14.8941 25.9528 13.8313 25.5353 13.0081 24.8424Z" fill="#DEB3A3"/>
<path fill-rule="evenodd" clip-rule="evenodd" d="M13.1589 34.8088H12.4762C10.2755 34.8088 7.68014 33.1597 7.26946 30.9977C6.57791 27.3571 9.5535 25.1816 13.1589 24.7939V34.8088ZM19.2716 24.8428C22.7282 25.3767 25.478 27.7921 24.7685 31.3206C24.3533 33.3853 22.0102 34.8088 19.9041 34.8088H19.2716V24.8428Z" fill="#4D8FAB"/>
<path d="M18.7625 24.7313H21.0528L20.2977 34.8088H18.9386L18.7625 24.7313Z" fill="#4D8FAB"/>
<path d="M13.4136 24.7313H11.0723L11.8442 34.8088H13.2335L13.4136 24.7313Z" fill="#4D8FAB"/>
<path fill-rule="evenodd" clip-rule="evenodd" d="M17.4121 4C18.7528 4 19.9379 4.70648 20.6541 5.78742C22.2093 6.10581 23.3792 7.48106 23.3792 9.12935C23.3792 9.46514 23.3306 9.78959 23.2402 10.0961C23.5764 10.7764 23.774 11.6073 23.774 12.5043C23.774 13.889 23.3031 15.1162 22.5782 15.8752C22.5729 15.8101 22.5675 15.7449 22.5621 15.6798C22.5522 15.5591 22.5423 15.4441 22.5327 15.3328C22.4886 14.8228 22.4512 14.3892 22.4512 13.8265C22.4512 11.235 19.5682 9.25049 16.0683 9.24396L16.0596 9.24397L16.051 9.24398C12.5511 9.2505 9.6681 11.235 9.6681 13.8265C9.6681 14.3892 9.63065 14.8228 9.58661 15.3328C9.577 15.4441 9.56707 15.5591 9.55715 15.6798C9.54227 15.8609 9.5274 16.0418 9.51363 16.2226C8.73346 15.303 8.24023 13.9475 8.24023 12.4359C8.24023 11.0054 8.6819 9.71479 9.39044 8.80102C9.54146 6.69288 11.2514 5.03079 13.3386 5.03079C13.7798 5.03079 14.2042 5.10507 14.6005 5.24214C15.3179 4.47508 16.3126 4 17.4121 4Z" fill="#150C0C"/>
<ellipse cx="9.01819" cy="15.7269" rx="0.916142" ry="1.22152" fill="#EFC9B4"/>
<ellipse rx="0.916143" ry="1.22152" transform="matrix(-1 0 0 1 23.2743 15.7269)" fill="#EFC9B4"/>
<ellipse opacity="0.1" cx="9.01819" cy="15.7269" rx="0.916142" ry="1.22152" fill="#A67F71"/>
<ellipse opacity="0.1" rx="0.916143" ry="1.22152" transform="matrix(-1 0 0 1 23.2745 15.7269)" fill="#A67F71"/>
<path d="M16.0267 8.59357C16.0298 8.59357 16.0328 8.59357 16.0359 8.59357C19.758 8.60095 22.8241 10.8472 22.8241 13.7804C22.8241 14.5564 22.8832 15.1154 22.9421 15.8781C23.0005 16.6353 23.0588 17.3897 23.0588 18.149C23.0588 21.4826 18.9025 23.9598 16.0424 23.9742C16.0402 23.9742 16.0381 23.9742 16.0359 23.9742C16.0328 23.9742 16.0298 23.9742 16.0267 23.9742C16.0236 23.9742 16.0206 23.9742 16.0175 23.9742C16.0153 23.9742 16.0132 23.9742 16.011 23.9742C13.1509 23.9598 8.99463 21.4826 8.99463 18.149C8.99463 17.3897 9.05288 16.6353 9.11135 15.8781C9.17023 15.1154 9.22934 14.5564 9.22934 13.7804C9.22934 10.8472 12.2954 8.60097 16.0175 8.59359C16.0206 8.59359 16.0236 8.59357 16.0267 8.59357Z" fill="#EFC9B4"/>
<ellipse cx="11.3241" cy="18.8878" rx="0.178139" ry="0.178139" fill="#CCA8A0" fill-opacity="0.5" style="mix-blend-mode:multiply"/>
<ellipse cx="11.6806" cy="19.4477" rx="0.178139" ry="0.178139" fill="#CCA8A0" fill-opacity="0.5" style="mix-blend-mode:multiply"/>
<ellipse cx="12.2909" cy="18.8878" rx="0.178139" ry="0.178139" fill="#CCA8A0" fill-opacity="0.5" style="mix-blend-mode:multiply"/>
<ellipse rx="0.178139" ry="0.178139" transform="matrix(-1 0 0 1 20.4854 18.8878)" fill="#CCA8A0" fill-opacity="0.5" style="mix-blend-mode:multiply"/>
<ellipse rx="0.178139" ry="0.178139" transform="matrix(-1 0 0 1 20.1292 19.4477)" fill="#CCA8A0" fill-opacity="0.5" style="mix-blend-mode:multiply"/>
<ellipse rx="0.178139" ry="0.178139" transform="matrix(-1 0 0 1 19.5184 18.8878)" fill="#CCA8A0" fill-opacity="0.5" style="mix-blend-mode:multiply"/>
</g>
</svg>
