<svg width="20" height="20" viewBox="0 0 20 20" fill="none" xmlns="http://www.w3.org/2000/svg">
<path fill-rule="evenodd" clip-rule="evenodd" d="M10 6.25C11.0312 6.25 11.875 5.40625 11.875 4.375C11.875 3.34375 11.0312 2.5 10 2.5C8.96875 2.5 8.125 3.34375 8.125 4.375C8.125 5.40625 8.96875 6.25 10 6.25ZM10 8.125C8.96875 8.125 8.125 8.96875 8.125 10C8.125 11.0312 8.96875 11.875 10 11.875C11.0312 11.875 11.875 11.0312 11.875 10C11.875 8.96875 11.0312 8.125 10 8.125ZM10 13.75C8.96875 13.75 8.125 14.5938 8.125 15.625C8.125 16.6562 8.96875 17.5 10 17.5C11.0312 17.5 11.875 16.6562 11.875 15.625C11.875 14.5938 11.0312 13.75 10 13.75Z" fill="#2A353F"/>
</svg>
