<svg width="16" height="16" viewBox="0 0 16 16" fill="none" xmlns="http://www.w3.org/2000/svg">
<path fill-rule="evenodd" clip-rule="evenodd" d="M7.99967 1.33331C4.31967 1.33331 1.33301 4.31998 1.33301 7.99998C1.33301 11.68 4.31967 14.6666 7.99967 14.6666C11.6797 14.6666 14.6663 11.68 14.6663 7.99998C14.6663 4.31998 11.6797 1.33331 7.99967 1.33331ZM6.19294 10.86L3.7996 8.46663C3.5396 8.20663 3.5396 7.78663 3.7996 7.52663C4.0596 7.26663 4.4796 7.26663 4.7396 7.52663L6.66627 9.44663L11.2529 4.85996C11.5129 4.59996 11.9329 4.59996 12.1929 4.85996C12.4529 5.11996 12.4529 5.53996 12.1929 5.79996L7.13294 10.86C6.8796 11.12 6.45294 11.12 6.19294 10.86Z" fill="#949A9F"/>
</svg>
