<svg width="16" height="16" viewBox="0 0 16 16" fill="none" xmlns="http://www.w3.org/2000/svg">
<path fill-rule="evenodd" clip-rule="evenodd" d="M7.99967 1.33333C4.31967 1.33333 1.33301 4.32 1.33301 8C1.33301 11.68 4.31967 14.6667 7.99967 14.6667C11.6797 14.6667 14.6663 11.68 14.6663 8C14.6663 4.32 11.6797 1.33333 7.99967 1.33333ZM6.19294 10.86L3.7996 8.46664C3.5396 8.20665 3.5396 7.78665 3.7996 7.52665C4.0596 7.26665 4.4796 7.26665 4.7396 7.52665L6.66627 9.44664L11.2529 4.85998C11.5129 4.59998 11.9329 4.59998 12.1929 4.85998C12.4529 5.11998 12.4529 5.53998 12.1929 5.79998L7.13294 10.86C6.8796 11.12 6.45294 11.12 6.19294 10.86Z" fill="#00B589"/>
</svg>
