<svg width="48" height="48" viewBox="0 0 48 48" fill="none" xmlns="http://www.w3.org/2000/svg">
<circle cx="24" cy="24" r="24" fill="#F3F6F9"/>
<mask id="mask0_15077_235" style="mask-type:alpha" maskUnits="userSpaceOnUse" x="0" y="0" width="48" height="48">
<circle cx="24" cy="24" r="24" fill="#F3F6F9"/>
</mask>
<g mask="url(#mask0_15077_235)">
<circle cx="24.8426" cy="23.0989" r="12.5623" fill="black"/>
<path fill-rule="evenodd" clip-rule="evenodd" d="M20.4893 35.2223H20.7871C21.2144 32.9078 21.2144 29.9545 21.2144 29.9545H27.0385C27.0385 29.9545 27.0726 33.529 27.4998 35.8434L28.6604 35.6658C27.5676 36.3522 26.2746 36.7493 24.8888 36.7493C23.2272 36.7493 21.6989 36.1785 20.4893 35.2223Z" fill="#BD9789"/>
<path d="M11.8049 43.7512C10.7118 38.2668 15.8221 35.2223 21.4144 35.2223H26.6412C32.221 35.2223 37.247 38.7319 36.0964 44.1918C35.5144 46.9535 32.3424 48.8387 29.52 48.8387C26.2759 48.8387 22.3571 48.8387 18.8576 48.8387C15.904 48.8387 12.3822 46.6479 11.8049 43.7512Z" fill="#911A3E"/>
<path d="M24.1567 37.589C23.196 37.589 22.2702 37.184 21.6174 36.8077C21.0204 36.4636 20.7871 35.7532 20.8846 35.0711C21.0336 34.0291 21.1423 32.8556 21.1423 32.8556C21.1423 32.8556 22.7825 33.3519 24.1567 33.3519C25.531 33.3519 27.1712 32.8556 27.1712 32.8556C27.1712 32.8556 27.2799 34.0291 27.4289 35.0711C27.5264 35.7532 27.293 36.4636 26.6961 36.8077C26.0433 37.184 25.1175 37.589 24.1567 37.589Z" fill="#901A3E"/>
<ellipse cx="33.7033" cy="21.6221" rx="1.37421" ry="1.83228" fill="#EFC9B4"/>
<ellipse cx="14.3195" cy="21.6222" rx="1.37421" ry="1.83228" fill="#EFC9B4"/>
<ellipse cx="33.7043" cy="21.6222" rx="1.37421" ry="1.83228" fill="#BD9789" fill-opacity="0.2"/>
<ellipse cx="14.3195" cy="21.6222" rx="1.37421" ry="1.83228" fill="#BD9789" fill-opacity="0.2"/>
<path d="M23.9373 11.1891C23.9415 11.1891 23.9458 11.1891 23.95 11.1891C29.1126 11.1992 33.3654 14.2927 33.3654 18.3324C33.3654 19.4011 33.4474 20.171 33.529 21.2214C33.6101 22.2642 33.6909 23.3032 33.6909 24.3489C33.6909 28.9399 27.9261 32.3516 23.959 32.3713C23.956 32.3714 23.953 32.3714 23.95 32.3714C23.9458 32.3714 23.9415 32.3714 23.9373 32.3714C23.933 32.3714 23.9287 32.3714 23.9245 32.3714C23.9215 32.3714 23.9185 32.3714 23.9155 32.3713C19.9485 32.3516 14.1836 28.9399 14.1836 24.3489C14.1836 23.3032 14.2644 22.2642 14.3455 21.2214C14.4272 20.171 14.5091 19.4011 14.5091 18.3324C14.5091 14.2927 18.7619 11.1993 23.9245 11.1891C23.9287 11.1891 23.933 11.1891 23.9373 11.1891Z" fill="#EFC9B4"/>
<path fill-rule="evenodd" clip-rule="evenodd" d="M11.7577 24.8606C10.7633 23.4547 10.1726 21.4843 10.1726 18.7712C10.1726 10.7584 17.3361 6.32402 23.8859 5.4386C27.6714 4.92687 30.2957 6.57425 31.531 9.23849C34.1577 9.61174 36.9219 12.7077 38.1401 16.9176C39.0887 20.196 38.9555 27.7693 36.677 30.6801C35.6709 31.4676 35.0036 32.2853 34.4153 33.0063C33.8147 33.7423 33.2964 34.3775 32.5837 34.777C30.3626 35.2212 28.7652 35.3846 27.6332 35.2966C27.4661 34.2136 27.3773 33.0551 27.33 32.1295C30.7637 30.894 34.1403 27.9965 34.1403 24.4082C34.1403 24.0819 34.1328 23.7563 34.12 23.431C34.6868 23.1762 35.095 22.4615 35.095 21.6198C35.095 20.6539 34.5576 19.8554 33.8597 19.7269C33.8246 19.2233 33.8008 18.7217 33.8008 18.1333C33.8008 13.9202 29.3654 10.6938 23.9811 10.6832L23.9678 10.6832L23.9545 10.6832C18.5702 10.6938 14.1348 13.9202 14.1348 18.1333C14.1348 18.7196 14.1111 19.2196 14.0763 19.7214C13.3628 19.8309 12.8088 20.639 12.8088 21.6197C12.8088 22.4769 13.2321 23.2022 13.8151 23.4445C13.8026 23.7653 13.7953 24.0864 13.7953 24.4082C13.7953 28.1824 17.5308 31.1924 21.1392 32.308C21.0813 33.3582 20.9701 34.667 20.7567 35.823H16.3546C14.9784 35.823 13.6925 36.2963 12.725 37.1027C12.6127 37.0718 12.5016 37.0352 12.3918 36.9929C9.60569 35.9193 8.7631 31.5446 10.5099 27.222C10.857 26.3628 11.2804 25.5704 11.7577 24.8606Z" fill="#150C0C"/>
<path d="M33.8411 17.235C34.2583 17.235 34.6457 17.0106 34.9664 16.6267L34.2385 14.2455L29.7256 10.9402L22.6288 8.48788L14.8768 11.189L14.2217 17.235C16.0414 19.0121 18.5162 16.2713 20.4815 16.2713C22.4468 16.2713 19.5716 18.1905 22.9563 18.1905C27.2872 18.1905 29.7058 14.5333 30.5627 13.3214C30.5627 13.3214 31.6113 17.235 33.8411 17.235Z" fill="#150C0C"/>
<path fill-rule="evenodd" clip-rule="evenodd" d="M11.5654 36.1742C9.96406 34.4327 8.79944 31.0564 10.6192 26.9692C10.923 26.2172 11.3041 25.5081 11.711 24.8723L17.7524 31.2696C17.4505 31.882 17.9934 32.2928 18.4258 32.6201C18.671 32.8057 18.8807 32.9644 18.8807 33.1177C18.9026 33.8604 18.9506 34.5627 18.9952 35.2138C19.1723 37.8034 19.2941 39.5834 17.4977 39.8705C16.627 37.3196 14.655 36.9716 13.1718 36.7098C12.4717 36.5863 11.8805 36.482 11.5654 36.1742Z" fill="#150C0C"/>
<path fill-rule="evenodd" clip-rule="evenodd" d="M27.9883 31.3662C28.0156 31.4214 28.0493 31.4737 28.0885 31.522C28.5818 32.1296 29.2875 33.2022 29.4632 35.1557C29.4688 35.2179 29.4814 35.2807 29.5018 35.3397C30.3215 37.7084 31.6939 39.1421 33.355 38.9165C33.7092 38.8684 33.9083 38.5141 33.9034 38.1567C33.879 36.3989 34.8226 35.5219 35.7415 34.6679C36.6031 33.8672 37.443 33.0866 37.4431 31.6191C37.4431 30.4134 37.2702 29.2709 36.961 28.2486C36.3422 26.2032 35.1776 24.6392 33.7606 24.0147C33.7497 24.0099 33.7387 24.0051 33.7278 24.0004C33.729 24.0928 33.7296 24.1852 33.7296 24.2777C33.7296 27.4427 30.99 30.0471 27.9883 31.3662Z" fill="#150C0C"/>
<ellipse cx="17.4352" cy="25.3881" rx="0.267208" ry="0.267208" fill="#F0C6C6" fill-opacity="0.5" style="mix-blend-mode:multiply"/>
<ellipse cx="17.9694" cy="26.228" rx="0.267208" ry="0.267208" fill="#F0C6C6" fill-opacity="0.5" style="mix-blend-mode:multiply"/>
<ellipse cx="18.8854" cy="25.3882" rx="0.267208" ry="0.267208" fill="#F0C6C6" fill-opacity="0.5" style="mix-blend-mode:multiply"/>
<ellipse rx="0.267208" ry="0.267208" transform="matrix(-1 0 0 1 30.1771 25.3882)" fill="#F0C6C6" fill-opacity="0.5" style="mix-blend-mode:multiply"/>
<ellipse rx="0.267208" ry="0.267208" transform="matrix(-1 0 0 1 29.6429 26.228)" fill="#F0C6C6" fill-opacity="0.5" style="mix-blend-mode:multiply"/>
<ellipse rx="0.267208" ry="0.267208" transform="matrix(-1 0 0 1 28.726 25.3882)" fill="#F0C6C6" fill-opacity="0.5" style="mix-blend-mode:multiply"/>
</g>
</svg>
