<svg width="54" height="54" viewBox="0 0 54 54" fill="none" xmlns="http://www.w3.org/2000/svg">
<path fill-rule="evenodd" clip-rule="evenodd" d="M26.9999 0C12.096 0 0 12.096 0 26.9999C0 41.9039 12.096 53.9998 26.9999 53.9998C41.9039 53.9998 53.9998 41.9039 53.9998 26.9999C53.9998 12.096 41.9039 0 26.9999 0ZM19.6833 38.583L9.99033 28.89C8.93733 27.837 8.93733 26.136 9.99033 25.083C11.0433 24.03 12.7443 24.03 13.7973 25.083L21.6003 32.859L40.1762 14.2831C41.2292 13.2301 42.9302 13.2301 43.9832 14.2831C45.0362 15.3361 45.0362 17.037 43.9832 18.09L23.4903 38.583C22.4643 39.636 20.7363 39.636 19.6833 38.583Z" fill="#04AC3D"/>
</svg>
