<svg width="32" height="32" viewBox="0 0 32 32" fill="none" xmlns="http://www.w3.org/2000/svg">
<g clip-path="url(#clip0_15093_27252)">
<g clip-path="url(#clip1_15093_27252)">
<path d="M23.0309 30.6667H25.729L22.653 20.2794H19.9549L21.608 25.8618H10.3915L12.0447 20.2794H9.34663L6.27063 30.6667H8.96873L9.81241 27.8174H22.1871L23.0309 30.6667Z" fill="#8F776D"/>
<path d="M1.33466 21.3919V2.89778C1.33466 2.03374 2.03508 1.33331 2.89906 1.33331H29.1034C29.9674 1.33331 30.6679 2.03374 30.6679 2.89778V21.3919C30.6679 22.256 29.9674 22.9564 29.1034 22.9564H2.89906C2.03508 22.9563 1.33466 22.2559 1.33466 21.3919Z" fill="#ECBB18"/>
<path d="M28.7701 3.23065H3.23058V21.0594H28.7701V3.23065Z" fill="#00B589"/>
<path d="M4.54624 3.23065H3.23058V21.0594H4.54624V3.23065Z" fill="#005B45"/>
<path d="M28.7698 3.23187H27.4541V21.0606H28.7698V3.23187Z" fill="#005B45"/>
<path d="M27.4069 4.99281H4.5357L3.23044 3.23059H28.7693L27.4069 4.99281Z" fill="#008867"/>
<path d="M27.4069 19.2969H4.5357L3.23044 21.0592H28.7693L27.4069 19.2969Z" fill="#008867"/>
<path d="M26.4189 17.674H19.3516V19.2963H26.4189V17.674Z" fill="black"/>
</g>
</g>
<defs>
<clipPath id="clip0_15093_27252">
<rect width="32" height="32" fill="white"/>
</clipPath>
<clipPath id="clip1_15093_27252">
<rect width="29.3333" height="29.3333" fill="white" transform="translate(1.33333 1.33331)"/>
</clipPath>
</defs>
</svg>
