<svg width="20" height="20" viewBox="0 0 20 20" fill="none" xmlns="http://www.w3.org/2000/svg">
<path fill-rule="evenodd" clip-rule="evenodd" d="M17.7503 16.572C18.0743 16.896 18.0754 17.4202 17.7477 17.7479C17.4223 18.0734 16.8964 18.0751 16.5718 17.7505L12.0478 13.2265C10.9963 14.0298 9.68228 14.507 8.25684 14.507C4.80506 14.507 2.00684 11.7088 2.00684 8.25702C2.00684 4.80524 4.80506 2.00702 8.25684 2.00702C11.7086 2.00702 14.5068 4.80524 14.5068 8.25702C14.5068 9.68247 14.0296 10.9965 13.2263 12.048L17.7503 16.572ZM8.25684 12.8404C10.7881 12.8404 12.8402 10.7883 12.8402 8.25702C12.8402 5.72571 10.7881 3.67369 8.25684 3.67369C5.72553 3.67369 3.6735 5.72571 3.6735 8.25702C3.6735 10.7883 5.72553 12.8404 8.25684 12.8404Z" fill="#2A353F"/>
</svg>
