<svg width="32" height="32" viewBox="0 0 32 32" fill="none" xmlns="http://www.w3.org/2000/svg">
<g clip-path="url(#clip0_15093_27263)">
<g clip-path="url(#clip1_15093_27263)">
<path d="M19.972 27H5.91645C4.06234 27 2.55534 25.493 2.55534 23.6389V4.69442C2.55534 2.84031 4.06234 1.33331 5.91645 1.33331H19.972C21.8261 1.33331 23.3331 2.84031 23.3331 4.69442V23.6389C23.3331 25.493 21.8261 27 19.972 27Z" fill="#F1CC52"/>
<path d="M13.5553 1.33331H5.91645C4.06234 1.33331 2.55534 2.84031 2.55534 4.69442V23.6389C2.55534 25.493 4.06234 27 5.91645 27H13.5553V1.33331Z" fill="#ECBB18"/>
<path d="M26.0833 30.6667H12.0278C10.1737 30.6667 8.66667 29.1597 8.66667 27.3056V9.58334C8.66667 7.72923 10.1737 6.22223 12.0278 6.22223H26.0833C27.9374 6.22223 29.4444 7.72923 29.4444 9.58334V27.3056C29.4444 29.1597 27.9374 30.6667 26.0833 30.6667Z" fill="#40C7A7"/>
<path d="M23.6387 22.1111H14.472C13.966 22.1111 13.5553 21.7004 13.5553 21.1944C13.5553 20.6884 13.966 20.2778 14.472 20.2778H23.6387C24.1447 20.2778 24.5553 20.6884 24.5553 21.1944C24.5553 21.7004 24.1447 22.1111 23.6387 22.1111Z" fill="black"/>
<path d="M23.6387 27H14.472C13.966 27 13.5553 26.5893 13.5553 26.0833C13.5553 25.5773 13.966 25.1666 14.472 25.1666H23.6387C24.1447 25.1666 24.5553 25.5773 24.5553 26.0833C24.5553 26.5893 24.1447 27 23.6387 27Z" fill="black"/>
<path d="M23.6387 17.8333H14.472C13.966 17.8333 13.5553 17.4227 13.5553 16.9167C13.5553 16.4107 13.966 16 14.472 16H23.6387C24.1447 16 24.5553 16.4107 24.5553 16.9167C24.5553 17.4227 24.1447 17.8333 23.6387 17.8333Z" fill="black"/>
<path d="M23.6387 12.9445H14.472C13.966 12.9445 13.5553 12.5338 13.5553 12.0278C13.5553 11.5218 13.966 11.1111 14.472 11.1111H23.6387C24.1447 11.1111 24.5553 11.5218 24.5553 12.0278C24.5553 12.5338 24.1447 12.9445 23.6387 12.9445Z" fill="black"/>
<path d="M19.0556 6.22223H12.0278C10.1737 6.22223 8.66667 7.72923 8.66667 9.58334V27.3056C8.66667 29.1597 10.1737 30.6667 12.0278 30.6667H19.0556V27H14.4722C13.9662 27 13.5556 26.5893 13.5556 26.0833C13.5556 25.5773 13.9662 25.1667 14.4722 25.1667H19.0556V22.1111H14.4722C13.9662 22.1111 13.5556 21.7005 13.5556 21.1945C13.5556 20.6885 13.9662 20.2778 14.4722 20.2778H19.0556V17.8333H14.4722C13.9662 17.8333 13.5556 17.4227 13.5556 16.9167C13.5556 16.4107 13.9662 16 14.4722 16H19.0556V12.9445H14.4722C13.9662 12.9445 13.5556 12.5338 13.5556 12.0278C13.5556 11.5218 13.9662 11.1111 14.4722 11.1111H19.0556V6.22223Z" fill="#00B589"/>
<path d="M19.0553 20.2778H14.472C13.966 20.2778 13.5553 20.6884 13.5553 21.1944C13.5553 21.7004 13.966 22.1111 14.472 22.1111H19.0553V20.2778Z" fill="#BFEDE1"/>
<path d="M19.0553 25.1666H14.472C13.966 25.1666 13.5553 25.5773 13.5553 26.0833C13.5553 26.5893 13.966 27 14.472 27H19.0553V25.1666Z" fill="#BFEDE1"/>
<path d="M19.0553 16H14.472C13.966 16 13.5553 16.4107 13.5553 16.9167C13.5553 17.4227 13.966 17.8333 14.472 17.8333H19.0553V16Z" fill="#BFEDE1"/>
<path d="M19.0553 11.1111H14.472C13.966 11.1111 13.5553 11.5218 13.5553 12.0278C13.5553 12.5338 13.966 12.9445 14.472 12.9445H19.0553V11.1111Z" fill="#BFEDE1"/>
</g>
</g>
<defs>
<clipPath id="clip0_15093_27263">
<rect width="32" height="32" fill="white"/>
</clipPath>
<clipPath id="clip1_15093_27263">
<rect width="29.3333" height="29.3333" fill="white" transform="translate(1.33334 1.33331)"/>
</clipPath>
</defs>
</svg>
