<svg width="20" height="20" viewBox="0 0 20 20" fill="none" xmlns="http://www.w3.org/2000/svg">
<path fill-rule="evenodd" clip-rule="evenodd" d="M16.6667 3.33335H14.0251L12.9917 2.20835C12.6834 1.86669 12.2334 1.66669 11.7667 1.66669H8.23342C7.76675 1.66669 7.31675 1.86669 7.00008 2.20835L5.97508 3.33335H3.33341C2.41675 3.33335 1.66675 4.08335 1.66675 5.00002V15C1.66675 15.9167 2.41675 16.6667 3.33341 16.6667H16.6667C17.5834 16.6667 18.3334 15.9167 18.3334 15V5.00002C18.3334 4.08335 17.5834 3.33335 16.6667 3.33335ZM12.5 12.9167V10.8334H7.50005V12.9167L4.87505 10.2917C4.70838 10.125 4.70838 9.86669 4.87505 9.70002L7.50005 7.08335V9.16669H12.5V7.08335L15.125 9.70835C15.2917 9.87502 15.2917 10.1334 15.125 10.3L12.5 12.9167Z" fill="#2A353F"/>
</svg>
