<svg width="20" height="20" viewBox="0 0 20 20" fill="none" xmlns="http://www.w3.org/2000/svg">
<path fill-rule="evenodd" clip-rule="evenodd" d="M13.4334 9.58335C13.7584 9.02502 13.3584 8.33335 12.7167 8.33335H11.1584L13.0584 10.2334L13.4334 9.58335ZM13.5667 2.87502C13.8417 2.31669 13.4417 1.66669 12.8167 1.66669H6.66673C6.20839 1.66669 5.83339 2.04169 5.83339 2.50002V3.00835L10.9417 8.11669L13.5667 2.87502ZM15.3667 14.9L3.4334 2.96668C3.1084 2.64168 2.5834 2.64168 2.2584 2.96668C1.9334 3.29168 1.9334 3.81668 2.2584 4.14168L5.8334 7.72502V10C5.8334 10.4584 6.2084 10.8334 6.66673 10.8334H8.3334V16.7917C8.3334 17.2167 8.89173 17.3667 9.1084 17L11.3167 13.2084L14.1834 16.075C14.5084 16.4 15.0334 16.4 15.3584 16.075C15.6917 15.75 15.6917 15.225 15.3667 14.9Z" fill="#2A353F"/>
</svg>
