<svg width="248" height="200" viewBox="0 0 248 200" fill="none" xmlns="http://www.w3.org/2000/svg">
<g clip-path="url(#clip0_15093_27082)">
<path d="M53.8518 42.7281C39.1982 50.453 24.1 58.5431 13.8864 71.4805C7.75272 79.259 3.66589 88.5181 1.51386 98.1525C-2.17244 114.597 0.556643 133.662 13.238 144.971C17.6507 148.924 23.0478 151.714 28.6146 153.858C40.1538 158.294 52.5569 160.109 64.9039 159.168C75.0429 158.387 85.1649 155.751 95.253 157.007C107.558 158.535 118.301 165.637 129.764 170.313C144.007 176.102 159.516 178.189 174.81 176.376C178.666 175.914 182.57 175.174 185.961 173.305C189.987 171.084 192.97 167.456 196.144 164.139C203.3 156.633 211.741 150.431 221.079 145.818C225.977 143.4 231.167 141.393 235.42 137.99C246.622 129.045 248.54 113.04 247.888 98.8459C247.236 84.6523 243.995 68.9848 232.484 60.3654C229.915 58.4426 227.023 56.9519 224.531 54.9252C216.222 48.1651 213.737 36.849 208.415 27.5999C196.48 6.91754 169.851 -2.13728 145.877 0.422055C111.522 4.09021 83.3862 27.1611 53.8518 42.7281Z" fill="#F3F6F9"/>
<path d="M233.845 98.99C233.533 101.837 229.972 106.618 225.047 111.991C216.975 120.781 205.248 131.149 198.194 137.189C194.555 140.308 192.162 142.274 192.162 142.274V88.1598C192.162 88.1598 200.703 77.3663 206.908 76.6729C213.112 75.9795 225.634 83.1416 225.634 83.1416C225.634 83.1416 234.891 89.0877 233.845 98.99Z" fill="#904754"/>
<path d="M225.047 111.991C216.975 120.781 205.248 131.149 198.194 137.189C197.668 136.362 197.563 135.236 197.515 134.218C197.329 129.129 197.373 124.034 197.42 118.942C197.464 113.998 197.509 109.057 197.824 104.122C198.123 99.5261 198.693 94.8262 200.825 90.7225C201.306 91.147 201.703 91.6558 201.996 92.2233C204.681 96.7758 206.378 101.797 208.075 106.782C208.915 109.239 209.754 111.705 210.594 114.182C212.475 113.161 214.157 111.816 215.56 110.212C216.85 108.802 218 107.278 219.185 105.784C220.013 104.739 221.629 101.764 222.919 102.883C225.01 104.682 225.18 108.799 225.047 111.991Z" fill="url(#paint0_linear_15093_27082)"/>
<path d="M197.599 16.9104H63.4016C61.1925 16.9104 59.4016 18.7013 59.4016 20.9104V189.943C59.4016 192.152 61.1925 193.943 63.4016 193.943H197.599C199.808 193.943 201.599 192.153 201.599 189.943V20.9104C201.599 18.7013 199.808 16.9104 197.599 16.9104Z" fill="#1DBAA3"/>
<path d="M91.1764 64.9011H67.1613V88.6017H91.1764V64.9011Z" fill="white"/>
<path d="M116.526 64.9011H92.5104V88.6017H116.526V64.9011Z" fill="white"/>
<path d="M141.878 64.9011H117.863V88.6017H141.878V64.9011Z" fill="white"/>
<path d="M167.227 64.9011H143.212V88.6017H167.227V64.9011Z" fill="white"/>
<path d="M91.1764 89.6437H67.1613V113.344H91.1764V89.6437Z" fill="white"/>
<path d="M116.526 89.6437H92.5104V113.344H116.526V89.6437Z" fill="white"/>
<path d="M141.878 89.6437H117.863V113.344H141.878V89.6437Z" fill="white"/>
<path d="M167.227 89.6437H143.212V113.344H167.227V89.6437Z" fill="white"/>
<path d="M91.1764 114.386H67.1613V138.087H91.1764V114.386Z" fill="white"/>
<path d="M116.526 114.386H92.5104V138.087H116.526V114.386Z" fill="white"/>
<path d="M141.878 114.386H117.863V138.087H141.878V114.386Z" fill="white"/>
<path d="M167.227 114.386H143.212V138.087H167.227V114.386Z" fill="white"/>
<path d="M91.1764 139.129H67.1613V162.829H91.1764V139.129Z" fill="white"/>
<path d="M116.526 139.129H92.5104V162.829H116.526V139.129Z" fill="white"/>
<path d="M141.878 139.129H117.863V162.829H141.878V139.129Z" fill="white"/>
<path d="M167.227 139.129H143.212V162.829H167.227V139.129Z" fill="white"/>
<path d="M91.1764 163.871H67.1613V187.572H91.1764V163.871Z" fill="white"/>
<path d="M116.526 163.871H92.5104V187.572H116.526V163.871Z" fill="white"/>
<path d="M141.878 163.871H117.863V187.572H141.878V163.871Z" fill="white"/>
<path d="M192.152 64.9011H168.137V88.6017H192.152V64.9011Z" fill="white"/>
<path d="M192.152 40.1589H168.137V63.8595H192.152V40.1589Z" fill="white"/>
<path d="M167.227 40.1589H143.212V63.8595H167.227V40.1589Z" fill="white"/>
<path d="M192.152 89.6437H168.137V113.344H192.152V89.6437Z" fill="white"/>
<path d="M192.152 114.386H168.137V138.087H192.152V114.386Z" fill="white"/>
<path d="M192.152 139.129H168.137V162.829H192.152V139.129Z" fill="white"/>
<path d="M70.172 10.4854V23.3357C70.172 24.0291 71.0647 24.5919 72.1611 24.5919C73.2609 24.5919 74.1502 24.0291 74.1502 23.3357V10.4854C74.1502 9.79197 73.2609 9.22919 72.1611 9.22919C71.0647 9.22919 70.172 9.79197 70.172 10.4854Z" fill="#BCDBD6"/>
<path d="M89.1873 10.4854V23.3357C89.1873 24.0291 90.0766 24.5919 91.1763 24.5919C92.2761 24.5919 93.1655 24.0291 93.1655 23.3357V10.4854C93.1655 9.79197 92.2761 9.22919 91.1763 9.22919C90.0766 9.22919 89.1873 9.79197 89.1873 10.4854Z" fill="#BCDBD6"/>
<path d="M108.203 10.4854V23.3357C108.203 24.0291 109.092 24.5919 110.192 24.5919C111.291 24.5919 112.181 24.0291 112.181 23.3357V10.4854C112.181 9.79197 111.291 9.22919 110.192 9.22919C109.092 9.22919 108.203 9.79197 108.203 10.4854Z" fill="#BCDBD6"/>
<path d="M127.218 10.4854V23.3357C127.218 24.0291 128.107 24.5919 129.207 24.5919C130.303 24.5919 131.196 24.0291 131.196 23.3357V10.4854C131.196 9.79197 130.303 9.22919 129.207 9.22919C128.107 9.22919 127.218 9.79197 127.218 10.4854Z" fill="#BCDBD6"/>
<path d="M146.23 10.4854V23.3357C146.23 24.0291 147.123 24.5919 148.222 24.5919C149.319 24.5919 150.212 24.0291 150.212 23.3357V10.4854C150.212 9.79197 149.319 9.22919 148.222 9.22919C147.123 9.22919 146.23 9.79197 146.23 10.4854Z" fill="#BCDBD6"/>
<path d="M165.245 10.4854V23.3357C165.245 24.0291 166.138 24.5919 167.234 24.5919C168.334 24.5919 169.227 24.0291 169.227 23.3357V10.4854C169.227 9.79197 168.334 9.22919 167.234 9.22919C166.138 9.22919 165.245 9.79197 165.245 10.4854Z" fill="#BCDBD6"/>
<path d="M183.853 10.4854V23.3357C183.853 24.0291 184.746 24.5919 185.842 24.5919C186.942 24.5919 187.831 24.0291 187.831 23.3357V10.4854C187.831 9.79197 186.942 9.22919 185.842 9.22919C184.746 9.22919 183.853 9.79197 183.853 10.4854Z" fill="#BCDBD6"/>
<path d="M148.758 43.6327C148.759 44.0057 148.648 44.3706 148.438 44.6811C148.229 44.9916 147.931 45.2339 147.582 45.3772C147.233 45.5206 146.849 45.5586 146.478 45.4865C146.107 45.4143 145.766 45.2353 145.499 44.972C145.231 44.7087 145.048 44.373 144.974 44.0073C144.899 43.6416 144.937 43.2623 145.081 42.9174C145.225 42.5725 145.469 42.2776 145.783 42.0698C146.097 41.862 146.466 41.7507 146.844 41.7501C147.351 41.7501 147.836 41.9482 148.195 42.3011C148.554 42.6539 148.757 43.1328 148.758 43.6327Z" fill="#EA3C47"/>
<path d="M148.758 68.3785C148.759 68.7515 148.648 69.1163 148.438 69.4269C148.229 69.7374 147.931 69.9796 147.582 70.123C147.233 70.2664 146.849 70.3044 146.478 70.2323C146.107 70.1601 145.766 69.9811 145.499 69.7178C145.231 69.4545 145.048 69.1188 144.974 68.7531C144.899 68.3874 144.937 68.0081 145.081 67.6632C145.225 67.3183 145.469 67.0233 145.783 66.8156C146.097 66.6078 146.466 66.4965 146.844 66.4958C147.351 66.4958 147.836 66.694 148.195 67.0469C148.554 67.3997 148.757 67.8786 148.758 68.3785Z" fill="#FFBA00"/>
<path d="M153.426 68.3785C153.426 68.7515 153.315 69.1163 153.105 69.4269C152.896 69.7374 152.598 69.9796 152.249 70.123C151.9 70.2664 151.516 70.3044 151.145 70.2323C150.774 70.1601 150.434 69.9811 150.166 69.7178C149.898 69.4545 149.715 69.1188 149.641 68.7531C149.567 68.3874 149.604 68.0081 149.748 67.6632C149.892 67.3183 150.136 67.0233 150.45 66.8156C150.764 66.6078 151.133 66.4965 151.511 66.4958C152.018 66.4958 152.504 66.694 152.863 67.0469C153.221 67.3997 153.424 67.8786 153.426 68.3785Z" fill="#FFBA00"/>
<path d="M158.12 68.3785C158.121 68.7515 158.01 69.1163 157.8 69.4269C157.591 69.7374 157.293 69.9796 156.944 70.123C156.595 70.2664 156.211 70.3044 155.84 70.2323C155.469 70.1601 155.128 69.9811 154.86 69.7178C154.593 69.4545 154.41 69.1188 154.336 68.7531C154.261 68.3874 154.298 68.0081 154.443 67.6632C154.587 67.3183 154.831 67.0233 155.145 66.8156C155.459 66.6078 155.828 66.4965 156.206 66.4958C156.713 66.4958 157.198 66.694 157.557 67.0469C157.916 67.3997 158.119 67.8786 158.12 68.3785Z" fill="#EA3C47"/>
<path d="M148.758 118.218C148.758 118.592 148.646 118.956 148.436 119.266C148.226 119.576 147.928 119.818 147.579 119.961C147.229 120.104 146.845 120.141 146.474 120.068C146.104 119.996 145.763 119.816 145.496 119.552C145.229 119.288 145.047 118.952 144.973 118.586C144.899 118.221 144.937 117.841 145.082 117.497C145.226 117.152 145.471 116.858 145.786 116.65C146.1 116.443 146.469 116.332 146.847 116.332C147.353 116.332 147.838 116.531 148.196 116.884C148.554 117.237 148.755 117.716 148.755 118.215L148.758 118.218Z" fill="#EA3C47"/>
<path d="M71.1935 120.101C72.2471 120.101 73.1012 119.258 73.1012 118.219C73.1012 117.179 72.2471 116.336 71.1935 116.336C70.14 116.336 69.2859 117.179 69.2859 118.219C69.2859 119.258 70.14 120.101 71.1935 120.101Z" fill="#EA3C47"/>
<path d="M153.426 118.218C153.426 118.592 153.314 118.956 153.104 119.266C152.894 119.576 152.595 119.818 152.246 119.961C151.897 120.104 151.513 120.141 151.142 120.068C150.771 119.996 150.431 119.816 150.163 119.552C149.896 119.288 149.714 118.952 149.64 118.586C149.567 118.221 149.604 117.841 149.749 117.497C149.894 117.152 150.139 116.858 150.453 116.65C150.767 116.443 151.137 116.332 151.515 116.332C152.021 116.332 152.506 116.531 152.864 116.884C153.221 117.237 153.422 117.716 153.422 118.215L153.426 118.218Z" fill="#FFBA00"/>
<path d="M158.12 118.218C158.12 118.592 158.008 118.956 157.798 119.266C157.588 119.576 157.29 119.818 156.941 119.961C156.591 120.104 156.207 120.141 155.837 120.068C155.466 119.996 155.125 119.816 154.858 119.552C154.591 119.288 154.409 118.952 154.335 118.586C154.261 118.221 154.299 117.841 154.444 117.497C154.588 117.152 154.833 116.858 155.148 116.65C155.462 116.443 155.831 116.332 156.209 116.332C156.715 116.332 157.201 116.531 157.558 116.884C157.916 117.237 158.117 117.716 158.117 118.215L158.12 118.218Z" fill="#EA3C47"/>
<path d="M233.618 67.5676C233.085 69.7182 233.798 72.6997 232.786 74.6728C231.089 77.9892 226.127 80.1901 225.394 83.8315C225.349 84.0425 219.827 86.6688 216.979 85.7711C215.489 85.3054 214.732 83.8717 215.879 80.6289C216.239 79.624 218.255 79.2488 218.798 78.3141L218.686 78.2304C215.93 76.1769 215.631 71.8253 216.202 68.921C216.772 66.0166 218.079 63.2261 219.481 60.573C220.56 58.5295 222.997 57.4207 225.332 57.4576C228.269 57.5078 231.368 58.6669 232.895 61.1425C234.063 63.0285 234.148 65.417 233.618 67.5676Z" fill="#F9D1AF"/>
<path d="M220.054 51.9236C218.55 52.7075 216.951 53.6321 215.268 53.3808C215.224 53.7799 215.29 54.1832 215.459 54.5485C215.627 54.9139 215.892 55.2279 216.225 55.4578L215.18 55.6889C215.137 55.6919 215.095 55.7043 215.057 55.7252C215.02 55.746 214.987 55.7748 214.962 55.8095C214.949 55.8469 214.945 55.8866 214.949 55.926C214.953 55.9653 214.966 56.0033 214.986 56.0373C215.243 56.6295 215.666 57.1372 216.205 57.5012C216.018 57.8965 215.343 57.8094 215.112 58.1712C215.063 58.2764 215.038 58.3906 215.038 58.5062C215.038 58.6218 215.063 58.736 215.112 58.8412C215.345 59.466 215.743 60.0177 216.266 60.4391C215.641 61.1091 216.032 62.3485 216.894 62.6534C217.337 62.7755 217.811 62.726 218.218 62.5149C218.626 62.3039 218.937 61.9472 219.087 61.5178C219.125 61.9052 219.035 62.2945 218.829 62.6266C221.676 63.0688 224.721 63.4842 227.342 62.2916C227.219 62.5593 227.152 62.8487 227.145 63.1425C227.777 63.3378 228.448 63.3792 229.1 63.2631C229.236 64.6429 229.11 66.0355 228.73 67.3701C228.496 68.2008 228.16 69.0048 228.01 69.8524C227.815 70.7111 227.97 71.6112 228.441 72.3581C228.893 72.3179 229.212 71.8991 229.385 71.4871C229.51 71.0578 229.699 70.6491 229.945 70.2744C230.624 69.4906 232.036 69.7787 232.583 70.6463C233.129 71.5139 232.922 72.6797 232.399 73.554C232.076 74.0695 231.649 74.514 231.145 74.8597C230.64 75.2055 230.069 75.4452 229.467 75.564C229.565 76.4986 229.667 77.4332 229.765 78.3645C231.554 76.6895 233.557 75.2524 235.166 73.42C236.775 71.5876 237.993 69.2427 237.786 66.824C237.661 65.3333 237.002 63.9163 236.951 62.4189C236.927 61.7489 237.029 61.0622 237.002 60.3855C236.939 59.3073 236.556 58.2711 235.902 57.4057C235.247 56.5403 234.349 55.8839 233.319 55.5181C232.454 55.2266 231.5 55.1429 230.733 54.6504C229.779 54.0408 229.283 52.9051 228.336 52.2821C227.318 51.6121 225.736 51.3374 224.551 51.0057C223.01 50.5836 221.408 51.2235 220.054 51.9236Z" fill="#2A353F"/>
<path d="M198.7 83.6206C198.579 83.6939 198.475 83.7913 198.394 83.9067C198.313 84.0221 198.258 84.1528 198.232 84.2906C198.245 84.4349 198.306 84.5711 198.404 84.6786C198.503 84.7861 198.634 84.8592 198.778 84.8869C199.068 84.9372 199.366 84.9235 199.651 84.8467L201.375 84.5117C200.444 85.0253 199.671 85.7776 199.138 86.6891C199.075 86.7942 199.045 86.9151 199.05 87.037C199.055 87.1589 199.097 87.2766 199.169 87.3759C199.399 87.6639 199.79 87.5501 200.102 87.4295L201.599 86.8399L200.581 87.8147C200.264 88.0957 199.988 88.418 199.759 88.7728C199.66 88.9386 199.587 89.1182 199.542 89.3054C199.514 89.4235 199.534 89.5476 199.597 89.6515C199.661 89.7553 199.763 89.8307 199.881 89.8615C199.959 89.885 200.042 89.885 200.119 89.8615C200.741 89.6872 201.319 89.3859 201.816 88.9771C201.449 89.4869 201.039 89.9653 200.591 90.4075C200.142 90.8531 199.889 91.4545 199.885 92.0825C199.887 92.15 199.909 92.2154 199.949 92.2701C199.999 92.3199 200.065 92.3507 200.136 92.3572C200.689 92.4476 201.192 92.049 201.609 91.6872L203.147 90.3104C203.394 90.1101 203.613 89.8767 203.795 89.617C203.897 89.4668 203.955 89.2917 203.961 89.1111C203.946 88.9344 203.86 88.771 203.723 88.6567C203.585 88.5424 203.407 88.4866 203.228 88.5014C203.12 88.512 203.015 88.5476 202.923 88.6053C202.967 88.3138 203.082 88.0425 203.154 87.7577C203.241 87.4771 203.222 87.1744 203.099 86.9069C203.033 86.7762 202.92 86.675 202.781 86.6234C202.643 86.5718 202.49 86.5738 202.352 86.6288C202.533 86.2801 202.648 85.9022 202.692 85.5133C202.71 85.3168 202.673 85.1192 202.585 84.942C202.497 84.7648 202.361 84.6148 202.193 84.5083C202.1 84.4708 202.015 84.4175 201.942 84.3509C201.806 84.1867 201.915 83.9522 201.972 83.7479C202.017 83.6276 202.037 83.4998 202.031 83.3719C202.025 83.244 201.994 83.1184 201.939 83.0024C201.884 82.8864 201.807 82.7821 201.711 82.6956C201.616 82.6092 201.504 82.5421 201.382 82.4984C201.245 82.4506 201.099 82.4323 200.954 82.4448C200.078 82.5352 199.348 83.0779 198.7 83.6206Z" fill="#F9D1AF"/>
<path d="M226.551 96.2061C230.454 92.8026 235.288 95.382 233.591 100.243C229.922 110.758 222.24 134.851 214.946 134.851C205.441 134.851 201.599 118.218 201.599 118.218L205.988 109.452C205.988 109.452 212.196 122.895 215.322 119.257C218.449 115.619 220.295 101.837 226.371 96.3635L226.551 96.2061Z" fill="#984B59"/>
<path d="M204.548 108.872C204.491 108.092 204.477 107.309 204.508 106.527C204.487 103.115 203.466 99.7817 201.568 96.9297C201.368 97.2127 201.282 97.5591 201.327 97.9012L201.378 106.799C201.408 107.537 201.358 108.275 201.229 109.003C201.113 109.532 200.917 110.038 200.764 110.561C200.441 111.647 200.326 112.783 200.424 113.91C200.454 114.516 200.619 115.108 200.91 115.642C201.059 115.908 201.27 116.135 201.524 116.305C201.779 116.475 202.071 116.583 202.376 116.621C202.576 116.621 203.394 114.946 203.513 114.718C203.877 114.048 204.217 113.372 204.531 112.691C204.766 112.175 205.265 111.415 205.176 110.835C205.078 110.185 204.63 109.586 204.548 108.872Z" fill="#F9D1AF"/>
<path d="M222.688 80.5857C221.867 81.4969 221.052 82.4114 220.231 83.326C219.603 84.1053 218.857 84.7834 218.018 85.3359C217.692 85.5261 217.343 85.6747 216.979 85.7781C215.489 85.3125 214.732 83.8787 215.879 80.636C216.239 79.631 218.255 79.2558 218.798 78.3212L218.686 78.2374C219.076 78.419 219.488 78.5518 219.912 78.6327C220.794 78.7634 222.967 78.0867 223.235 79.3764C223.33 79.8219 223.011 80.2407 222.688 80.5857Z" fill="#EDC5A4"/>
<path d="M122.544 151.66L125.966 156.906C126.119 157.139 126.359 157.304 126.635 157.363C126.91 157.422 127.198 157.371 127.435 157.221C127.52 157.165 127.596 157.098 127.663 157.023L137.086 146.303C137.219 146.152 137.306 145.966 137.335 145.768C137.365 145.569 137.336 145.367 137.251 145.184C137.167 145.001 137.032 144.847 136.861 144.738C136.69 144.629 136.491 144.571 136.288 144.571H136.21C136.055 144.571 135.901 144.605 135.76 144.669C135.62 144.734 135.495 144.829 135.395 144.946L128.023 153.656C127.844 153.868 127.587 154.002 127.308 154.028C127.029 154.053 126.752 153.969 126.536 153.794C126.455 153.726 126.384 153.647 126.326 153.559L124.319 150.544C124.208 150.377 124.05 150.245 123.865 150.164C123.679 150.083 123.474 150.055 123.274 150.085C123.105 150.114 122.945 150.182 122.809 150.285C122.673 150.388 122.564 150.522 122.492 150.676C122.42 150.83 122.387 150.998 122.396 151.167C122.406 151.337 122.456 151.501 122.544 151.646V151.66Z" fill="#3EC885"/>
<path d="M81.5246 176.517L85.832 180.701C85.9836 180.849 86.0872 181.037 86.1298 181.243C86.1724 181.449 86.152 181.662 86.0712 181.857C85.9904 182.051 85.8529 182.217 85.6761 182.334C85.4993 182.451 85.2913 182.514 85.0785 182.513H84.8952C84.6105 182.513 84.3374 182.403 84.1348 182.205L79.9428 178.065C79.7412 177.867 79.4684 177.756 79.1841 177.756C78.8998 177.756 78.6271 177.867 78.4255 178.065L74.2334 182.205C74.134 182.303 74.0159 182.381 73.886 182.434C73.7562 182.487 73.617 182.514 73.4765 182.513H73.2898C73.077 182.514 72.869 182.451 72.6922 182.334C72.5154 182.217 72.3779 182.051 72.2971 181.857C72.2163 181.662 72.1959 181.449 72.2385 181.243C72.2811 181.037 72.3847 180.849 72.5363 180.701L76.8471 176.517C77.0469 176.32 77.1592 176.052 77.1592 175.773C77.1592 175.494 77.0469 175.227 76.8471 175.03L72.4955 170.735C72.3461 170.587 72.2444 170.399 72.2033 170.194C72.1622 169.989 72.1834 169.777 72.2643 169.583C72.3453 169.39 72.4823 169.225 72.6581 169.109C72.834 168.993 73.0408 168.93 73.2525 168.93C73.533 168.929 73.8025 169.037 74.0026 169.231L78.4153 173.526C78.6159 173.72 78.8859 173.829 79.1672 173.829C79.4484 173.829 79.7184 173.72 79.919 173.526L84.3317 169.231C84.5318 169.037 84.8014 168.929 85.0819 168.93C85.2939 168.929 85.5011 168.991 85.6775 169.108C85.8538 169.224 85.9914 169.389 86.0727 169.582C86.1541 169.775 86.1756 169.988 86.1346 170.193C86.0935 170.398 85.9918 170.587 85.8422 170.735L81.4906 175.03C81.2935 175.23 81.1849 175.499 81.1887 175.778C81.1925 176.057 81.3084 176.323 81.511 176.517H81.5246Z" fill="#EA3C47"/>
<path d="M44.3779 164.119H45.4302L45.9563 187.589L45.4302 183.723H44.3779V164.119Z" fill="#1DBAA3"/>
<path d="M45.4304 172.675V172.702C45.4304 173.435 45.1656 174.169 44.8839 175.046C43.0306 175.576 41.795 176.001 39.9756 174.145C38.1563 172.289 36.2792 168.702 36.8732 166.889C38.7265 166.36 42.3381 168.286 44.1609 170.142C45.1045 171.09 45.4236 171.884 45.4304 172.675Z" fill="#1DBAA3"/>
<path d="M50.858 174.159C49.188 175.757 48.0135 175.542 46.4827 175.06V183.723H45.4304V164.119H46.4827V170.353C46.5811 170.246 46.6863 170.139 46.8018 170.018C48.6822 168.223 52.3176 166.367 54.154 166.957C54.6937 168.796 52.7385 172.36 50.858 174.159Z" fill="#2B46A6"/>
<path d="M50.858 174.159C49.188 175.757 48.0135 175.542 46.4827 175.06V183.723H45.4304V164.119H46.4827V170.353C46.5811 170.246 46.6863 170.139 46.8018 170.018C48.6822 168.223 52.3176 166.367 54.154 166.957C54.6937 168.796 52.7385 172.36 50.858 174.159Z" fill="#1DA490"/>
<path d="M45.4302 159.386H40.7324C40.7324 162.679 42.8335 165.349 45.4268 165.349L46.5334 162.424L45.4302 159.386Z" fill="#1DBAA3"/>
<path d="M45.5119 160.528L45.4304 160.585V160.25L45.5119 160.528Z" fill="#2B46A6"/>
<path d="M36.5372 152.669C35.9432 154.481 37.8203 158.073 39.6431 159.925C41.4659 161.778 42.698 161.359 44.548 160.826C45.142 159.014 45.6477 157.778 43.825 155.922C42.0022 154.066 38.3906 152.14 36.5372 152.669Z" fill="#1DBAA3"/>
<path d="M50.5219 159.948C50.3657 160.099 50.213 160.233 50.0636 160.354C49.7004 163.188 47.7622 165.348 45.4303 165.348V160.585L45.5118 160.528L45.4303 160.246V160.581C45.3235 160.656 45.2099 160.721 45.0909 160.776C43.4208 159.821 42.0699 156.783 42.1785 154.2C42.2871 151.617 43.6041 147.798 45.342 146.967C47.0121 147.922 48.1017 151.825 48.0032 154.411V154.602C49.9278 153.299 52.4159 152.3 53.8314 152.753C54.3575 154.588 52.399 158.149 50.5219 159.948Z" fill="#2B46A6"/>
<path d="M50.5219 159.948C50.3657 160.099 50.213 160.233 50.0636 160.354C49.7004 163.188 47.7622 165.348 45.4303 165.348V160.585L45.5118 160.528L45.4303 160.246V160.581C45.3235 160.656 45.2099 160.721 45.0909 160.776C43.4208 159.821 42.0699 156.783 42.1785 154.2C42.2871 151.617 43.6041 147.798 45.342 146.967C47.0121 147.922 48.1017 151.825 48.0032 154.411V154.602C49.9278 153.299 52.4159 152.3 53.8314 152.753C54.3575 154.588 52.399 158.149 50.5219 159.948Z" fill="#1DA490"/>
<path d="M45.5119 160.528L45.4304 160.585V160.25L45.5119 160.528Z" fill="#2B46A6"/>
<path d="M36.1465 180.731L37.8029 193.943H45.464L48.5937 186.426L45.464 180.363L36.1465 180.731Z" fill="#2B46A6"/>
<path d="M54.7853 180.731L53.1289 193.943H45.4644V180.363L54.7853 180.731Z" fill="#2B46A6"/>
<path d="M48.879 180.453L48.7941 180.493L46.1941 181.766L45.4846 182.121H35.1352C34.8228 182.121 34.5232 181.999 34.3023 181.781C34.0814 181.563 33.9573 181.267 33.9573 180.959V178.004C33.956 177.868 33.982 177.732 34.0338 177.605C34.0856 177.478 34.1622 177.362 34.2593 177.265C34.3564 177.167 34.472 177.089 34.5996 177.036C34.7271 176.982 34.8642 176.954 35.0028 176.953H35.1012L45.4846 176.973L48.879 180.453Z" fill="#2B46A6"/>
<path d="M48.879 180.453L48.7941 180.493L46.1941 181.766L45.4846 182.121H35.1352C34.8228 182.121 34.5232 181.999 34.3023 181.781C34.0814 181.563 33.9573 181.267 33.9573 180.959V178.004C33.956 177.868 33.982 177.732 34.0338 177.605C34.0856 177.478 34.1622 177.362 34.2593 177.265C34.3564 177.167 34.472 177.089 34.5996 177.036C34.7271 176.982 34.8642 176.954 35.0028 176.953H35.1012L45.4846 176.973L48.879 180.453Z" fill="#967F6D"/>
<path d="M55.7968 182.122H45.4644V176.842H55.7968C56.1092 176.842 56.4088 176.965 56.6297 177.183C56.8506 177.401 56.9747 177.696 56.9747 178.005V180.959C56.9747 181.268 56.8506 181.563 56.6297 181.781C56.4088 181.999 56.1092 182.122 55.7968 182.122Z" fill="#2B46A6"/>
<path d="M45.4677 182.121V193.943H37.8032L36.3198 182.121H45.4677Z" fill="#BAA38F"/>
<path d="M54.612 182.121L53.1286 193.943H45.4675V182.121H54.612Z" fill="#AB9481"/>
<path d="M56.9746 178.139V181.093C56.9746 181.402 56.8505 181.697 56.6296 181.915C56.4087 182.133 56.1091 182.256 55.7967 182.256H45.4846V176.976H55.8137C56.1231 176.981 56.4184 177.105 56.6356 177.323C56.8528 177.54 56.9746 177.833 56.9746 178.139Z" fill="#7E6E60"/>
<path opacity="0.8" d="M38.6959 193.969L19.2258 200.882C19.0618 200.885 18.8998 200.95 18.75 201.074C18.6002 201.197 18.4657 201.377 18.355 201.601C18.2443 201.825 18.1597 202.089 18.1064 202.376C18.0532 202.663 18.0325 202.968 18.0456 203.27C18.0586 203.573 18.1052 203.868 18.1825 204.135C18.2597 204.403 18.3659 204.639 18.4944 204.828C18.623 205.016 18.7711 205.154 18.9297 205.232C19.0882 205.31 19.2537 205.327 19.4159 205.281H19.4736H239.382C239.692 205.305 239.994 205.104 240.225 204.721C240.456 204.338 240.598 203.804 240.619 203.231C240.641 202.658 240.541 202.093 240.341 201.654C240.141 201.215 239.857 200.938 239.548 200.882L211.168 194.271H211.005L38.9437 193.957C38.8611 193.945 38.7781 193.949 38.6959 193.969Z" fill="#CBECFF" fill-opacity="0.1"/>
</g>
<defs>
<linearGradient id="paint0_linear_15093_27082" x1="216.385" y1="94.9535" x2="159.532" y2="203.352" gradientUnits="userSpaceOnUse">
<stop stop-opacity="0"/>
<stop offset="0.91" stop-opacity="0.8"/>
<stop offset="1"/>
</linearGradient>
<clipPath id="clip0_15093_27082">
<rect width="248" height="200" fill="white"/>
</clipPath>
</defs>
</svg>
