<svg width="32" height="32" viewBox="0 0 32 32" fill="none" xmlns="http://www.w3.org/2000/svg">
<g clip-path="url(#clip0_15093_27273)">
<g clip-path="url(#clip1_15093_27273)">
<path d="M30.6667 7.43463H1.33334V24.2798H30.6667V7.43463Z" fill="#ECBB18"/>
<path d="M5.06075 17.2995C5.77938 17.2995 6.36194 16.717 6.36194 15.9983C6.36194 15.2797 5.77938 14.6971 5.06075 14.6971C4.34212 14.6971 3.75955 15.2797 3.75955 15.9983C3.75955 16.717 4.34212 17.2995 5.06075 17.2995Z" fill="#B18C12"/>
<path d="M26.9705 17.3309C27.7064 17.3309 28.303 16.7343 28.303 15.9983C28.303 15.2624 27.7064 14.6658 26.9705 14.6658C26.2346 14.6658 25.638 15.2624 25.638 15.9983C25.638 16.7343 26.2346 17.3309 26.9705 17.3309Z" fill="#B18C12"/>
<path d="M12.9893 12.0046L11.028 17.9142L9.00676 12.0046H7.25964L10.1116 19.9953H11.8331L14.7021 12.0046H12.9893Z" fill="#B18C12"/>
<path d="M15.4735 12.0046V19.9953H17.0835V12.0046H15.4735Z" fill="#B18C12"/>
<path d="M24.2778 12.9039C23.9694 12.5014 23.5926 12.2444 23.1301 12.1246C22.8304 12.0388 22.1966 12.0046 21.2117 12.0046H18.6252V19.9953H20.2353V16.9806H21.2888C22.0167 16.9806 22.5735 16.9378 22.9589 16.8694C23.2414 16.8008 23.524 16.6808 23.7981 16.4838C24.0723 16.2954 24.3034 16.0301 24.4748 15.6959C24.6546 15.3618 24.7488 14.9507 24.7488 14.4627C24.7488 13.8289 24.5861 13.3064 24.2778 12.9039ZM22.8989 15.105C22.7791 15.2848 22.6078 15.4132 22.3937 15.4989C22.1796 15.5847 21.7599 15.619 21.1176 15.619H20.2354V13.3578H21.0147C21.5971 13.3578 21.9825 13.375 22.1795 13.4093C22.4364 13.4607 22.6591 13.5719 22.8219 13.7603C22.9932 13.9488 23.0787 14.1885 23.0787 14.4798C23.0787 14.7195 23.0188 14.9252 22.8989 15.105Z" fill="#B18C12"/>
<path d="M30.6667 23.6523V24.6372C30.6667 26.0933 29.4847 27.2751 28.0288 27.2751H3.97971C2.51515 27.2751 1.33334 26.0933 1.33334 24.6372V23.6524H30.6667V23.6523Z" fill="#F7BE56"/>
<path d="M30.6667 7.36276V8.34757H1.33334V7.36276C1.33334 5.90685 2.51515 4.72485 3.97971 4.72485H28.0287C29.4846 4.72485 30.6667 5.90685 30.6667 7.36276Z" fill="#F1CC52"/>
</g>
</g>
<defs>
<clipPath id="clip0_15093_27273">
<rect width="32" height="32" fill="white"/>
</clipPath>
<clipPath id="clip1_15093_27273">
<rect width="29.3333" height="29.3333" fill="white" transform="translate(1.33334 1.33331)"/>
</clipPath>
</defs>
</svg>
