<svg width="24" height="24" viewBox="0 0 24 24" fill="none" xmlns="http://www.w3.org/2000/svg">
<path fill-rule="evenodd" clip-rule="evenodd" d="M21.3004 19.8864C21.6892 20.2752 21.6905 20.9043 21.2973 21.2975C20.9068 21.688 20.2756 21.6901 19.8862 21.3006L14.4573 15.8718C13.1955 16.8358 11.6187 17.4084 9.9082 17.4084C5.76607 17.4084 2.4082 14.0506 2.4082 9.90843C2.4082 5.7663 5.76607 2.40843 9.9082 2.40843C14.0503 2.40843 17.4082 5.7663 17.4082 9.90843C17.4082 11.619 16.8356 13.1958 15.8715 14.4576L21.3004 19.8864ZM9.9082 15.4084C12.9458 15.4084 15.4082 12.946 15.4082 9.90843C15.4082 6.87087 12.9458 4.40843 9.9082 4.40843C6.87064 4.40843 4.4082 6.87087 4.4082 9.90843C4.4082 12.946 6.87064 15.4084 9.9082 15.4084Z" fill="#00B589"/>
</svg>
