<svg width="48" height="48" viewBox="0 0 48 48" fill="none" xmlns="http://www.w3.org/2000/svg">
<circle cx="24" cy="24" r="24" fill="#F3F6F9"/>
<mask id="mask0_0_626" style="mask-type:alpha" maskUnits="userSpaceOnUse" x="0" y="0" width="48" height="48">
<circle cx="24" cy="24" r="24" fill="#F3F6F9"/>
</mask>
<g mask="url(#mask0_0_626)">
<path d="M11.0518 47.2004C9.73067 41.4994 15.1288 37.0969 20.9809 37.0969H26.7821C32.8853 37.0969 38.3555 40.9976 37.1523 46.981C36.5336 50.0576 33.0266 52.2133 29.8884 52.2133C26.3944 52.2133 22.2004 52.2133 18.459 52.2133C15.3208 52.2133 12.1032 50.9754 11.2462 47.9564C11.1754 47.7071 11.1108 47.4548 11.0518 47.2004Z" fill="#ECF3F7"/>
<path fill-rule="evenodd" clip-rule="evenodd" d="M19.5112 37.2626C19.9519 37.188 20.3996 37.1379 20.8515 37.1137C20.8499 36.9924 20.8593 36.8698 20.8791 36.7483C21.2459 34.4968 21.2459 31.8291 21.2459 31.8291H27.07C27.07 31.8291 27.07 34.4968 27.4368 36.7483C27.4584 36.8806 27.4676 37.0141 27.4638 37.146C27.854 37.1784 28.2398 37.2267 28.6194 37.2903C27.3891 38.3137 25.8073 38.9292 24.0819 38.9292C22.3409 38.9292 20.7463 38.3026 19.5112 37.2626Z" fill="#DEB3A3"/>
<path fill-rule="evenodd" clip-rule="evenodd" d="M19.7386 52.2131H18.4595C15.3213 52.2131 12.1037 50.9752 11.2467 47.9563C11.1759 47.707 11.1112 47.4547 11.0523 47.2003C9.82537 41.9058 14.3936 37.7313 19.7386 37.1628V52.2131ZM28.9075 37.2569C34.0842 38.0467 38.214 41.7037 37.1528 46.9809C36.5341 50.0575 33.0271 52.2131 29.8889 52.2131H28.9075V37.2569Z" fill="#4D8FAB"/>
<path d="M28.1436 37.0969H31.5791L30.4465 52.2133H28.4078L28.1436 37.0969Z" fill="#4D8FAB"/>
<path d="M20.1201 37.0969H16.6082L17.766 52.2133H19.85L20.1201 37.0969Z" fill="#4D8FAB"/>
<path fill-rule="evenodd" clip-rule="evenodd" d="M26.118 6C28.1291 6 29.9066 7.0597 30.9809 8.68107C33.314 9.15851 35.069 11.2215 35.069 13.694C35.069 14.1979 34.9961 14.6848 34.8603 15.1447C35.3645 16.165 35.6608 17.4112 35.6608 18.7564C35.6608 20.8336 34.9544 22.6745 33.8669 23.8129C33.859 23.7152 33.851 23.6174 33.8429 23.5197V23.5196C33.828 23.3385 33.8132 23.1661 33.7987 22.9991C33.7327 22.2342 33.6765 21.5838 33.6765 20.7397C33.6765 16.8525 29.3519 13.8757 24.1022 13.8659L24.0892 13.8659L24.0762 13.8659C18.8264 13.8757 14.5019 16.8525 14.5019 20.7397C14.5019 21.5838 14.4457 22.2342 14.3796 22.9992C14.3652 23.1661 14.3503 23.3386 14.3354 23.5196C14.3131 23.7912 14.2908 24.0624 14.2702 24.3336C13.1001 22.9542 12.3604 20.9211 12.3604 18.6538C12.3604 16.5083 13.0227 14.5725 14.0854 13.2019C14.3118 10.0395 16.8767 7.5462 20.0076 7.5462C20.6695 7.5462 21.3061 7.65763 21.9006 7.86325C22.9767 6.71263 24.4688 6 26.118 6Z" fill="#150C0C"/>
<ellipse cx="13.527" cy="23.5903" rx="1.37421" ry="1.83228" fill="#EFC9B4"/>
<ellipse rx="1.37421" ry="1.83228" transform="matrix(-1 0 0 1 34.9114 23.5903)" fill="#EFC9B4"/>
<ellipse opacity="0.1" cx="13.527" cy="23.5903" rx="1.37421" ry="1.83228" fill="#A67F71"/>
<ellipse opacity="0.1" rx="1.37421" ry="1.83228" transform="matrix(-1 0 0 1 34.9114 23.5903)" fill="#A67F71"/>
<path d="M24.0398 12.8903C24.0444 12.8903 24.049 12.8903 24.0536 12.8903C29.6367 12.9013 34.2358 16.2707 34.2358 20.6705C34.2358 21.8345 34.3245 22.673 34.4128 23.8171C34.5005 24.9529 34.5879 26.0845 34.5879 27.2234C34.5879 32.2238 28.3535 35.9397 24.0633 35.9611C24.0601 35.9612 24.0568 35.9612 24.0536 35.9612C24.049 35.9612 24.0444 35.9612 24.0398 35.9612C24.0352 35.9612 24.0306 35.9612 24.026 35.9612C24.0228 35.9612 24.0195 35.9612 24.0163 35.9611C19.7261 35.9397 13.4917 32.2238 13.4917 27.2234C13.4917 26.0845 13.5791 24.9529 13.6668 23.8171C13.7551 22.673 13.8438 21.8345 13.8438 20.6705C13.8438 16.2707 18.4429 12.9014 24.026 12.8903C24.0306 12.8903 24.0352 12.8903 24.0398 12.8903Z" fill="#EFC9B4"/>
<ellipse cx="16.9864" cy="28.3317" rx="0.267208" ry="0.267208" fill="#CCA8A0" fill-opacity="0.5" style="mix-blend-mode:multiply"/>
<ellipse cx="17.5211" cy="29.1715" rx="0.267208" ry="0.267208" fill="#CCA8A0" fill-opacity="0.5" style="mix-blend-mode:multiply"/>
<ellipse cx="18.4366" cy="28.3317" rx="0.267208" ry="0.267208" fill="#CCA8A0" fill-opacity="0.5" style="mix-blend-mode:multiply"/>
<ellipse rx="0.267209" ry="0.267208" transform="matrix(-1 0 0 1 30.7284 28.3317)" fill="#CCA8A0" fill-opacity="0.5" style="mix-blend-mode:multiply"/>
<ellipse rx="0.267209" ry="0.267208" transform="matrix(-1 0 0 1 30.1942 29.1715)" fill="#CCA8A0" fill-opacity="0.5" style="mix-blend-mode:multiply"/>
<ellipse rx="0.267209" ry="0.267208" transform="matrix(-1 0 0 1 29.2777 28.3317)" fill="#CCA8A0" fill-opacity="0.5" style="mix-blend-mode:multiply"/>
</g>
</svg>
