<svg width="48" height="36" viewBox="0 0 48 36" fill="none" xmlns="http://www.w3.org/2000/svg">
<path fill-rule="evenodd" clip-rule="evenodd" d="M13.6805 1.08323C15.1817 0.992912 16.6812 1.00014 18.1824 1.00014C18.1927 1.00014 25.7892 1.00014 25.7892 1.00014C27.3197 1.00014 28.8191 0.992912 30.3195 1.08323C31.6835 1.16452 33.0121 1.33794 34.3347 1.72542C37.1187 2.54013 39.55 4.2418 41.3074 6.6543C43.0544 9.05145 44 11.986 44 14.9992C44 18.0159 43.0544 20.9487 41.3074 23.3458C39.55 25.7574 37.1187 27.46 34.3347 28.2747C33.0121 28.6622 31.6835 28.8347 30.3195 28.9169C28.8191 29.0072 27.3197 28.9991 25.8185 28.9991C25.8082 28.9991 18.21 29 18.21 29C16.6812 28.9991 15.1817 29.0072 13.6805 28.9169C12.3174 28.8347 10.9888 28.6622 9.6662 28.2747C6.88212 27.46 4.4509 25.7574 2.69349 23.3458C0.946431 20.9487 0 18.0159 0 15.0001C0 11.986 0.946431 9.05145 2.69349 6.6543C4.4509 4.2418 6.88212 2.54013 9.6662 1.72542C10.9888 1.33794 12.3174 1.16452 13.6805 1.08323Z" fill="#00B589"/>
<g filter="url(#filter0_dd_15052_61)">
<path fill-rule="evenodd" clip-rule="evenodd" d="M30 25C35.5228 25 40 20.5228 40 15C40 9.47715 35.5228 5 30 5C24.4772 5 20 9.47715 20 15C20 20.5228 24.4772 25 30 25Z" fill="white"/>
</g>
<defs>
<filter id="filter0_dd_15052_61" x="12" y="0" width="36" height="36" filterUnits="userSpaceOnUse" color-interpolation-filters="sRGB">
<feFlood flood-opacity="0" result="BackgroundImageFix"/>
<feColorMatrix in="SourceAlpha" type="matrix" values="0 0 0 0 0 0 0 0 0 0 0 0 0 0 0 0 0 0 127 0" result="hardAlpha"/>
<feOffset dy="3"/>
<feGaussianBlur stdDeviation="0.5"/>
<feColorMatrix type="matrix" values="0 0 0 0 0 0 0 0 0 0 0 0 0 0 0 0 0 0 0.06 0"/>
<feBlend mode="normal" in2="BackgroundImageFix" result="effect1_dropShadow_15052_61"/>
<feColorMatrix in="SourceAlpha" type="matrix" values="0 0 0 0 0 0 0 0 0 0 0 0 0 0 0 0 0 0 127 0" result="hardAlpha"/>
<feOffset dy="3"/>
<feGaussianBlur stdDeviation="4"/>
<feColorMatrix type="matrix" values="0 0 0 0 0 0 0 0 0 0 0 0 0 0 0 0 0 0 0.15 0"/>
<feBlend mode="normal" in2="effect1_dropShadow_15052_61" result="effect2_dropShadow_15052_61"/>
<feBlend mode="normal" in="SourceGraphic" in2="effect2_dropShadow_15052_61" result="shape"/>
</filter>
</defs>
</svg>
