<svg width="192" height="200" viewBox="0 0 192 200" fill="none" xmlns="http://www.w3.org/2000/svg">
<g clip-path="url(#clip0_15093_27030)">
<path d="M174.614 109.665C176.587 120.776 200.838 136.262 170.313 174.79C152.586 197.166 130.534 185.389 125.284 186.905C116.847 189.343 109.583 198.973 100.826 199.514C90.8727 200.109 38.1891 203.485 16.3443 178.583C14.5995 176.608 13.0702 174.451 11.7822 172.15C3.35113 157.086 38.0469 152.027 4.4413 117.102C-1.84494 110.563 -5.03843 67.9802 19.9525 54.2061C33.8877 46.5374 26.5824 42.8873 49.6892 13.9541C62.5224 -2.09684 93.1538 -4.09428 108.724 6.93328C110.344 8.0826 111.924 9.15662 113.464 10.1553C149.819 33.8631 166.485 20.636 184.639 46.7514C206.632 78.3835 172.049 95.2488 174.614 109.665Z" fill="#F3F6F9"/>
<path opacity="0.16" d="M132.941 131.255C130.298 142.223 146.301 166.181 102.925 189.157C77.7331 202.503 62.2515 182.826 56.854 182.107C48.1563 180.918 37.6457 186.833 29.4102 183.789C27.1054 182.939 22.3596 181.197 16.3755 178.581C14.6308 176.606 13.1014 174.45 11.8134 172.149C3.38238 157.085 38.0782 152.026 4.47255 117.1C-1.8137 110.561 -5.00718 67.9788 19.9838 54.2048C33.8893 46.536 26.584 42.8859 49.6909 13.9527C62.524 -2.09818 93.1554 -4.09562 108.726 6.93193C110.345 8.08126 111.925 9.15528 113.466 10.154L113.744 10.6058C138.854 52.3738 160.906 45.1271 167.334 77.6807C174.788 115.513 136.365 117.017 132.941 131.255Z" fill="#1DBAA3"/>
<path d="M143.353 46.9933C143.353 46.9933 149.211 48.5576 148.568 50.2353C147.924 51.9131 145.23 53.6266 141.487 55.6088L141.62 57.5254C141.62 57.5254 151.511 54.4386 152.682 50.2771C153.016 49.0613 153.074 47.7825 152.851 46.5399C152.628 45.2973 152.13 44.1245 151.395 43.1124L143.353 46.9933Z" fill="#FFB800"/>
<path opacity="0.4" d="M143.353 46.9933C143.353 46.9933 149.211 48.5576 148.568 50.2353C147.924 51.9131 145.23 53.6266 141.487 55.6088L141.62 57.5254C141.62 57.5254 151.511 54.4386 152.682 50.2771C153.016 49.0613 153.074 47.7825 152.851 46.5399C152.628 45.2973 152.13 44.1245 151.395 43.1124L143.353 46.9933Z" fill="url(#paint0_linear_15093_27030)"/>
<path d="M141.823 40.5812C141.823 40.5812 137.824 43.0172 137.187 43.5665C136.55 44.1158 136.561 45.9069 138.074 47.7936C140.351 50.6237 142.234 49.9012 142.234 49.9012L146.087 45.7815L141.823 40.5812Z" fill="#FFB800"/>
<path d="M141.823 40.5812C141.823 40.5812 137.824 43.0172 137.187 43.5665C136.55 44.1158 136.561 45.9069 138.074 47.7936C140.351 50.6237 142.234 49.9012 142.234 49.9012L146.087 45.7815L141.823 40.5812Z" fill="url(#paint1_linear_15093_27030)"/>
<path d="M138.653 43.1723C142.287 36.8854 147.123 31.4252 152.867 27.1234C162.555 19.7856 176.868 14.3464 181.642 15.8987C186.417 17.4511 180.362 29.1236 160.493 40.3124C160.07 40.5453 157.219 42.1633 156.778 42.3603L142.958 48.3309C142.958 48.3309 140.363 48.1996 138.653 43.1723Z" fill="#FFB800"/>
<path d="M138.653 43.1723C142.287 36.8854 147.123 31.4252 152.867 27.1234C162.555 19.7856 176.868 14.3464 181.642 15.8987C186.417 17.4511 180.362 29.1236 160.493 40.3124C160.07 40.5453 157.219 42.1633 156.778 42.3603L142.958 48.3309C142.958 48.3309 140.363 48.1996 138.653 43.1723Z" fill="url(#paint2_linear_15093_27030)"/>
<path d="M146.708 32.5987C146.708 32.5987 142.414 28.2103 137.599 30.3836C132.784 32.5569 125.871 43.1547 125.871 43.1547L128.258 43.292C128.258 43.292 136.226 35.4944 137.663 36.1273C139.1 36.7602 139.216 42.1397 139.216 42.1397C139.216 42.1397 142.547 41.6979 144.917 37.6916C147.287 33.6854 146.708 32.5987 146.708 32.5987Z" fill="#FFB800"/>
<path d="M172.551 161.843C153.545 161.187 134.499 161.431 115.516 162.578C111.015 162.845 106.517 163.165 102.021 163.539C93.0623 164.273 83.9881 165.217 75.1283 163.856C74.4272 163.748 73.7203 163.629 73.0134 163.485C64.9416 161.891 56.9684 157.849 52.0026 151.264C54.4131 123.166 69.9944 105.027 76.6871 95.9581C87.9283 80.7451 133.247 44.8082 137.871 43.4529C142.454 42.1215 141.319 44.05 141.319 44.05L142.228 49.9011C141.324 50.54 70.1451 101.206 103.29 132.838C120.725 149.478 148.069 157.76 172.551 161.843Z" fill="url(#paint3_linear_15093_27030)"/>
<path opacity="0.6" d="M80.7198 141.088C71.9527 170.079 89.7708 187.079 115.516 199.117C111.015 199.465 106.517 199.884 102.02 200.373C93.062 201.333 83.9879 202.565 75.1281 200.786C70.2607 186.127 68.1747 172.701 68.4587 163.198C69.9247 110.873 135.644 45.1228 136.681 44.093C136.681 44.093 137.31 46.9116 138.506 48.1463C139.625 49.3003 142.139 49.9983 142.139 49.9983C141.38 50.3416 101.922 70.9283 80.7198 141.088Z" fill="#00B589"/>
<path d="M171.81 29.0162C173.579 29.0162 175.014 27.5379 175.014 25.7144C175.014 23.891 173.579 22.4127 171.81 22.4127C170.04 22.4127 168.605 23.891 168.605 25.7144C168.605 27.5379 170.04 29.0162 171.81 29.0162Z" fill="url(#paint4_linear_15093_27030)"/>
<path d="M171.809 28.4726C173.288 28.4726 174.486 27.2376 174.486 25.7142C174.486 24.1908 173.288 22.9558 171.809 22.9558C170.331 22.9558 169.132 24.1908 169.132 25.7142C169.132 27.2376 170.331 28.4726 171.809 28.4726Z" fill="#F8F9FB"/>
<path opacity="0.25" d="M97.7123 9.1969C97.7123 9.1969 116.974 34.1174 96 55.3819L103.702 59.6621C103.702 59.6621 115.896 48.0282 114.894 36.2872C113.893 24.5463 112.234 18.3935 97.7123 9.1969Z" fill="url(#paint5_linear_15093_27030)"/>
<path d="M74.9374 174.801C74.9374 174.801 68.2719 182.047 71.1277 185.644C73.9835 189.24 87.024 196.701 90.3834 195.263C93.7428 193.824 93.4939 189.021 91.3965 185.816C89.2991 182.612 86.9174 179.277 86.9174 179.277L74.9374 174.801Z" fill="#2A353F"/>
<path d="M135.412 164.967C135.412 164.967 135.282 171.554 137.93 174.788C140.578 178.022 160.824 170.626 161.386 167.868C161.949 165.11 158.738 162.03 153.441 161.959C150.442 161.98 147.472 161.373 144.72 160.175C144.72 160.175 134.867 159.718 135.412 164.967Z" fill="#2A353F"/>
<path opacity="0.49" d="M117.14 35.0568C117.14 40.8262 115.434 46.4662 112.24 51.2633C109.045 56.0605 104.505 59.7994 99.1923 62.0073C93.8798 64.2151 88.0342 64.7928 82.3946 63.6673C76.7549 62.5417 71.5746 59.7634 67.5086 55.6838C63.4427 51.6041 60.6737 46.4064 59.5519 40.7477C58.4301 35.0891 59.0059 29.2238 61.2064 23.8935C63.4068 18.5632 67.1332 14.0073 71.9143 10.802C76.6953 7.59662 82.3163 5.88577 88.0665 5.88577C91.8859 5.88029 95.6689 6.63108 99.1987 8.09512C102.728 9.55916 105.936 11.7077 108.636 14.4175C111.337 17.1274 113.479 20.3454 114.938 23.887C116.397 27.4287 117.145 31.2244 117.14 35.0568Z" fill="#1DBAA3"/>
<path d="M103.684 59.6622C98.5367 62.9424 92.492 64.5166 86.4044 64.1624C80.3167 63.8083 74.4939 61.5437 69.7587 57.6886C69.7587 57.6886 76.8685 53.8601 88.1256 54.199C97.3921 54.5022 103.684 58.0571 103.684 59.6622Z" fill="#1DBAA3"/>
<path d="M150.609 95.193C149.719 96.4998 148.561 97.6004 147.212 98.4208C145.863 99.2411 144.355 99.7621 142.788 99.9488C139.774 100.299 136.734 100.379 133.705 100.187C119.006 99.3484 105.639 84.2546 105.639 84.2546C105.639 84.2546 106.042 102.909 110.19 107.225C114.337 111.541 126.151 112.254 133.705 116.309C141.805 120.66 144.891 140.623 146.148 151.87C147.143 160.918 146.373 164.117 141.408 166.138C138.06 167.505 134.724 166.893 133.788 159.955C129.831 130.547 108.584 133.412 104.069 131.254C103.222 130.85 102.588 130.868 102.108 131.218C100.994 132.033 100.757 134.654 100.757 137.9C100.757 140.665 100.929 143.881 100.882 146.817C100.746 154.659 95.4665 171.375 88.1494 178.247C85.7794 180.495 83.445 181.131 81.4188 180.97C79.5357 180.765 77.7508 180.023 76.276 178.83C75.685 178.373 75.2439 177.749 75.0095 177.038C74.7751 176.327 74.7581 175.562 74.9607 174.841C76.5545 169.122 79.5821 152.584 67.9398 135.29C53.5306 113.889 56.8129 83.0359 56.8129 83.0359C56.8129 83.0359 49.1107 88.0949 44.9988 91.6737C40.887 95.2524 45.0699 106.904 44.122 110.209C41.9061 117.89 32.4678 116.921 32.4678 116.921C31.3288 116.885 30.2118 116.597 29.1975 116.075C28.1832 115.554 27.2968 114.814 26.6022 113.907C24.1256 110.828 22.3719 104.627 25.0914 92.1433C30.0801 69.2619 62.5245 59.6432 68.7752 57.9906C69.4506 57.8122 69.8179 57.729 69.8179 57.729L103.744 59.6789C103.744 59.6789 127.271 78.2623 135.341 81.3833C138.921 82.7216 142.814 82.9779 146.539 82.1204C147.732 81.8533 148.982 82.0592 150.027 82.6951C151.073 83.331 151.833 84.3476 152.149 85.5327L152.256 85.9251C152.672 87.4969 152.741 89.1411 152.456 90.7422C152.172 92.3433 151.541 93.8624 150.609 95.193Z" fill="#2B46A6"/>
<path d="M150.609 95.193C149.719 96.4998 148.561 97.6004 147.212 98.4208C145.863 99.2411 144.355 99.7621 142.788 99.9488C139.774 100.299 136.734 100.379 133.705 100.187C119.006 99.3484 105.639 84.2546 105.639 84.2546C105.639 84.2546 106.042 102.909 110.19 107.225C114.337 111.541 126.151 112.254 133.705 116.309C141.805 120.66 144.891 140.623 146.148 151.87C147.143 160.918 146.373 164.117 141.408 166.138C138.06 167.505 134.724 166.893 133.788 159.955C129.831 130.547 108.584 133.412 104.069 131.254C103.222 130.85 102.588 130.868 102.108 131.218C100.994 132.033 100.757 134.654 100.757 137.9C100.757 140.665 100.929 143.881 100.882 146.817C100.746 154.659 95.4665 171.375 88.1494 178.247C85.7794 180.495 83.445 181.131 81.4188 180.97C79.5357 180.765 77.7508 180.023 76.276 178.83C75.685 178.373 75.2439 177.749 75.0095 177.038C74.7751 176.327 74.7581 175.562 74.9607 174.841C76.5545 169.122 79.5821 152.584 67.9398 135.29C53.5306 113.889 56.8129 83.0359 56.8129 83.0359C56.8129 83.0359 49.1107 88.0949 44.9988 91.6737C40.887 95.2524 45.0699 106.904 44.122 110.209C41.9061 117.89 32.4678 116.921 32.4678 116.921C31.3288 116.885 30.2118 116.597 29.1975 116.075C28.1832 115.554 27.2968 114.814 26.6022 113.907C24.1256 110.828 22.3719 104.627 25.0914 92.1433C30.0801 69.2619 62.5245 59.6432 68.7752 57.9906C69.4506 57.8122 69.8179 57.729 69.8179 57.729L103.744 59.6789C103.744 59.6789 127.271 78.2623 135.341 81.3833C138.921 82.7216 142.814 82.9779 146.539 82.1204C147.732 81.8533 148.982 82.0592 150.027 82.6951C151.073 83.331 151.833 84.3476 152.149 85.5327L152.256 85.9251C152.672 87.4969 152.741 89.1411 152.456 90.7422C152.172 92.3433 151.541 93.8624 150.609 95.193Z" fill="#1DBAA3"/>
<path opacity="0.45" d="M70.4289 62.8305C70.4289 62.8305 42.2148 72.5443 38.0793 83.6907C33.9438 94.8372 33.1499 102.684 33.1499 102.684L26.5851 113.908C24.1086 110.829 22.3548 104.628 25.0743 92.1442C30.063 69.2627 62.5074 59.6441 68.7581 57.9915L70.4289 62.8305Z" fill="#20AC98"/>
<path opacity="0.25" d="M103.684 59.6622C98.5367 62.9424 92.492 64.5166 86.4044 64.1624C80.3167 63.8083 74.4939 61.5437 69.7587 57.6886C69.7587 57.6886 76.8685 53.8601 88.1256 54.199C97.3921 54.5022 103.684 58.0571 103.684 59.6622Z" fill="url(#paint6_linear_15093_27030)"/>
<path d="M26.5843 113.908C26.5843 113.908 26.4954 102.94 35.3352 102.268C44.1751 101.596 44.104 110.21 44.104 110.21C44.104 110.21 39.613 118.402 32.4498 116.922C27.9174 115.988 26.5843 113.908 26.5843 113.908Z" fill="url(#paint7_linear_15093_27030)"/>
<path opacity="0.25" d="M81.3837 180.971C79.5432 180.772 77.7957 180.057 76.3416 178.908C75.7221 178.442 75.2567 177.8 75.0062 177.065C74.7557 176.331 74.7318 175.537 74.9375 174.788C76.5372 169.028 79.5114 152.537 67.9047 135.291C53.4955 113.89 56.7779 83.0367 56.7779 83.0367C56.7779 83.0367 66.3405 77.5912 68.355 81.6278C70.3694 85.6643 64.4268 88.2978 68.829 105.544C73.2311 122.789 78.5338 133.163 84.3343 143.792C90.1347 154.421 87.1308 179.253 81.3837 180.971Z" fill="#20AC98"/>
<path opacity="0.25" d="M79.9085 79.0062C79.9085 79.0062 94.6376 77.2643 98.6428 78.4474C102.648 79.6304 102.648 101.4 104.917 106.982C104.917 106.982 106.221 107.868 103.424 108.629C100.628 109.39 86.2422 113.563 83.6056 112.041C80.9691 110.519 78.1962 102.678 76.6143 97.6192C75.0324 92.5602 72.5084 82.4304 74.0192 80.6588C75.5301 78.8873 79.9085 79.0062 79.9085 79.0062Z" fill="#20AC98"/>
<path opacity="0.25" d="M150.461 83.037C150.461 83.037 147.943 82.6981 147.102 86.1164C146.26 89.5346 147.013 94.3083 147.896 95.2C148.779 96.0917 148.784 96.4603 150.609 95.2C152.434 93.9397 154.579 89.5168 154.579 89.5168C154.579 89.5168 154.958 82.3414 150.461 83.037Z" fill="url(#paint8_linear_15093_27030)"/>
<path d="M150.461 83.0365C150.668 85.456 149.11 90.6696 150.461 92.352C151.812 94.0343 165.558 92.5065 169.089 83.0365C172.62 73.5665 167.572 74.3869 166.375 74.5117C165.178 74.6366 157.488 79.7015 157.488 79.7015C157.488 79.7015 161.463 76.5389 159.698 75.2726C157.932 74.0064 150.254 80.611 150.461 83.0365Z" fill="#FFBA00"/>
<path d="M150.461 83.0365C150.668 85.456 149.11 90.6696 150.461 92.352C151.812 94.0343 165.558 92.5065 169.089 83.0365C172.62 73.5665 167.572 74.3869 166.375 74.5117C165.178 74.6366 157.488 79.7015 157.488 79.7015C157.488 79.7015 161.463 76.5389 159.698 75.2726C157.932 74.0064 150.254 80.611 150.461 83.0365Z" fill="#2A353F"/>
<path d="M30.317 112.314C30.317 112.314 32.4381 104.919 38.3274 107.089C44.2167 109.259 46.5333 115.661 46.5036 115.941C46.474 116.22 45.846 119.347 43.2035 117.647C40.5611 115.947 40.0219 116.553 40.0871 116.844C40.1522 117.136 42.22 122.284 45.1528 123.08C48.0856 123.877 45.4431 128.128 42.617 128.098C39.7908 128.068 33.6112 125.964 32.9713 124.947C32.3315 123.931 27.9826 117.308 30.317 112.314Z" fill="#FFBA00"/>
<path d="M30.317 112.314C30.317 112.314 32.4381 104.919 38.3274 107.089C44.2167 109.259 46.5333 115.661 46.5036 115.941C46.474 116.22 45.846 119.347 43.2035 117.647C40.5611 115.947 40.0219 116.553 40.0871 116.844C40.1522 117.136 42.22 122.284 45.1528 123.08C48.0856 123.877 45.4431 128.128 42.617 128.098C39.7908 128.068 33.6112 125.964 32.9713 124.947C32.3315 123.931 27.9826 117.308 30.317 112.314Z" fill="#2A353F"/>
<path opacity="0.25" d="M141.372 166.145C138.025 167.512 134.689 166.9 133.753 159.962C129.795 130.554 108.549 133.419 104.034 131.261C103.187 130.857 102.553 130.875 102.073 131.225C102.073 131.225 103.335 126.755 108.039 126.077C112.743 125.399 127.97 126.077 130.488 131.261C133.006 136.445 141.153 152.311 141.372 166.145Z" fill="#20AC98"/>
<path d="M150.609 95.1935C149.719 96.5003 148.561 97.6009 147.212 98.4213C145.863 99.2416 144.355 99.7626 142.788 99.9493C139.774 100.3 136.734 100.38 133.706 100.187C119.006 99.3489 105.64 84.2551 105.64 84.2551C105.45 80.2781 107.222 78.0428 107.222 78.0428C107.222 78.0428 119.895 89.213 130.074 92.9998C140.253 96.7867 151.089 88.8742 150.609 95.1935Z" fill="#20AC98"/>
<path d="M80.5659 49.6388C80.5659 49.6388 84.3104 58.6273 78.7885 60.274C73.2665 61.9207 86.4433 65.0298 90.6381 64.2213C94.8329 63.4128 94.7855 62.8065 94.7855 62.8065C94.1759 62.327 93.7495 61.6515 93.5779 60.8936C93.4064 60.1358 93.5001 59.3418 93.8435 58.6451C94.9277 55.9759 80.5659 49.6388 80.5659 49.6388Z" fill="#F9D1AF"/>
<path d="M100.266 32.1846C100.266 32.1846 102.103 51.1485 99.229 54.7153C96.3555 58.2822 92.1192 61.1416 84.962 55.3455C77.8048 49.5493 75.2631 34.0929 80.4295 31.0551C85.596 28.0174 94.7617 23.4518 100.266 32.1846Z" fill="#F9D1AF"/>
<path d="M91.0762 24.2128C91.0762 24.2128 84.8374 24.8073 81.3062 28.1958C77.775 31.5844 77.7039 31.9292 77.7039 31.9292C77.7039 31.9292 74.4926 31.4239 74.5578 34.3962C74.623 37.3686 73.4854 37.1843 74.1194 40.662C74.7533 44.1397 81.3062 51.7431 81.3062 51.7431L78.5156 44.1932L79.8783 44.966C79.8783 44.966 78.0238 39.1402 80.7374 37.975C83.451 36.8098 87.3614 33.7007 88.3034 33.5759C89.2455 33.451 97.5758 33.0706 98.583 34.3368C99.4195 35.5636 100.126 36.8746 100.692 38.2485C100.692 38.2485 102.997 34.3368 101.925 31.299C100.852 28.2612 99.2288 27.1377 99.2288 27.1377L101.356 25.6931C101.356 25.6931 92.593 22.8218 91.0762 24.2128Z" fill="#2A353F"/>
<path d="M79.9083 44.9662C79.9083 44.9662 76.3179 42.4338 76.2705 44.9662C76.2231 47.4987 78.593 49.3178 80.5956 49.6388C82.5982 49.9598 79.9083 44.9662 79.9083 44.9662Z" fill="#F9D1AF"/>
<path d="M68.3545 56.9388C68.3545 56.9388 66.2571 57.6284 66.577 59.2454C66.897 60.8624 77.538 69.6428 90.5963 67.6989C103.655 65.7549 105.628 61.1596 105.628 61.1596C105.628 61.1596 106.119 59.186 103.672 59.6318C101.225 60.0777 82.1475 67.794 68.3545 56.9388Z" fill="#2B46A6"/>
<path d="M68.3545 56.9388C68.3545 56.9388 66.2571 57.6284 66.577 59.2454C66.897 60.8624 77.538 69.6428 90.5963 67.6989C103.655 65.7549 105.628 61.1596 105.628 61.1596C105.628 61.1596 106.119 59.186 103.672 59.6318C101.225 60.0777 82.1475 67.794 68.3545 56.9388Z" fill="#20AC98"/>
<path d="M148.051 64.2569C148.035 64.3641 147.99 64.4648 147.921 64.5482C147.834 64.6195 147.729 64.6648 147.618 64.6789L145.438 65.1961L147.097 65.7906C147.235 65.8304 147.36 65.9063 147.458 66.0106C147.54 66.1464 147.575 66.3048 147.559 66.4624L147.589 68.2458L148.969 66.3494L150.391 67.5384L149.443 65.0059C150.09 64.8544 150.704 64.5865 151.256 64.2152L149.763 64.0547C148.845 63.9477 148.863 63.3651 148.531 62.6577C148.317 63.1729 148.156 63.7088 148.051 64.2569Z" fill="white"/>
<path d="M164.041 129.352C164.026 129.458 163.981 129.557 163.91 129.637C163.825 129.711 163.72 129.758 163.608 129.774L161.428 130.291L163.087 130.886C163.226 130.923 163.351 130.999 163.448 131.106C163.529 131.241 163.565 131.4 163.549 131.557L163.579 133.341L164.959 131.444L166.381 132.633L165.433 130.101C166.079 129.947 166.693 129.679 167.246 129.31L165.753 129.144C164.835 129.043 164.853 128.46 164.521 127.753C164.307 128.268 164.146 128.804 164.041 129.352Z" fill="white"/>
<path d="M40.68 158.934C40.6653 159.039 40.6199 159.139 40.5496 159.219C40.4639 159.292 40.3591 159.34 40.2475 159.356L38.0671 159.873L39.7261 160.467C39.8639 160.507 39.9887 160.583 40.0875 160.687C40.1686 160.823 40.2039 160.982 40.1882 161.139V162.923L41.5746 161.026L42.9966 162.215L42.0486 159.683C42.6956 159.531 43.3099 159.263 43.8616 158.892L42.3686 158.726C41.4502 158.624 41.468 158.042 41.1362 157.334C40.9277 157.85 40.7748 158.386 40.68 158.934Z" fill="white"/>
<path d="M143.588 113.7C143.58 113.761 143.556 113.819 143.517 113.866C143.466 113.909 143.405 113.938 143.339 113.95L142.071 114.247L143.037 114.603C143.117 114.627 143.189 114.672 143.244 114.734C143.291 114.813 143.312 114.905 143.304 114.996V116.03L144.109 114.924L144.933 115.608L144.382 114.14C144.758 114.049 145.115 113.892 145.437 113.676L144.566 113.581C144.032 113.521 144.044 113.183 143.849 112.772C143.733 113.073 143.646 113.383 143.588 113.7Z" fill="white"/>
<path d="M111.126 165.532C111.106 165.636 111.061 165.734 110.996 165.818C110.909 165.892 110.802 165.94 110.688 165.954L108.513 166.472L110.172 167.066C110.311 167.105 110.436 167.181 110.534 167.286C110.615 167.422 110.65 167.58 110.635 167.738V169.521L112.021 167.625L113.443 168.814L112.495 166.281C113.141 166.127 113.755 165.86 114.308 165.491L112.809 165.324C111.896 165.223 111.914 164.641 111.582 163.933C111.374 164.448 111.221 164.984 111.126 165.532Z" fill="white"/>
<path d="M127.935 28.5885C127.928 28.6248 127.914 28.6592 127.894 28.6896C127.861 28.7114 127.825 28.7275 127.787 28.7371L127.052 28.9095L127.615 29.1176C127.661 29.1319 127.702 29.1587 127.734 29.1949C127.761 29.2395 127.773 29.2914 127.769 29.3435V29.938L128.237 29.2959L128.723 29.6883L128.397 28.8322C128.608 28.7777 128.809 28.6872 128.99 28.5647L128.486 28.5112C128.172 28.4756 128.178 28.2794 128.065 28.0356C128.006 28.2156 127.962 28.4007 127.935 28.5885Z" fill="white"/>
<path d="M121.625 49.2346C121.617 49.2699 121.601 49.3027 121.577 49.3297C121.547 49.3525 121.513 49.3687 121.476 49.3773L120.742 49.5497L121.299 49.7577C121.347 49.7704 121.39 49.7973 121.423 49.835C121.45 49.8799 121.462 49.9316 121.459 49.9836V50.5781L121.927 49.9361L122.407 50.3284L122.087 49.4724C122.299 49.4192 122.499 49.3287 122.679 49.2049L122.17 49.1514C121.862 49.1157 121.868 48.9195 121.755 48.6758C121.691 48.8568 121.648 49.0441 121.625 49.2346Z" fill="white"/>
<path d="M46.4029 46.2147C46.3944 46.2496 46.3782 46.2821 46.3555 46.3098C46.327 46.3348 46.2921 46.3513 46.2548 46.3574L45.5142 46.5298L46.1066 46.7378C46.1549 46.7505 46.1983 46.7774 46.2311 46.8151C46.2554 46.8629 46.2676 46.916 46.2666 46.9697V47.5641L46.7288 46.9281L47.2087 47.3263L46.8887 46.4644C47.1005 46.4112 47.3011 46.3206 47.4812 46.1968L46.9717 46.1433C46.6636 46.1077 46.6695 45.9115 46.5569 45.6737C46.4862 45.8479 46.4346 46.0293 46.4029 46.2147Z" fill="white"/>
<path d="M28.1963 58.7104L29.6834 55.3813C29.5199 56.2177 29.6128 57.0841 29.9501 57.8663C30.1284 58.2514 30.4155 58.5755 30.7757 58.7984C31.1359 59.0214 31.5533 59.1334 31.9763 59.1206C31.0284 59.1206 29.796 59.3346 29.6538 60.268C29.5649 60.8624 29.9441 61.7423 29.3754 61.9979L28.5696 60.0302C27.9728 60.377 27.3184 60.6126 26.6381 60.7257C26.8483 60.3324 27.1672 60.0083 27.5564 59.7924C27.0108 59.2081 26.5787 58.5266 26.2826 57.783C26.8057 58.0874 27.2792 58.4703 27.6868 58.9185" fill="white"/>
<path d="M48.9215 29.4443L49.3659 28.4515C49.3126 28.6992 49.3396 28.9575 49.4429 29.1887C49.4953 29.3017 49.5791 29.3971 49.6842 29.4635C49.7893 29.53 49.9112 29.5646 50.0354 29.5632C49.751 29.5632 49.3837 29.6286 49.3422 29.908C49.3422 30.0923 49.4311 30.3479 49.2592 30.4193L49.0222 29.8248C48.8384 29.9283 48.6378 29.9987 48.4298 30.0329C48.4901 29.914 48.5852 29.8165 48.7023 29.7534C48.5414 29.5797 48.413 29.3783 48.3231 29.159C48.4765 29.2519 48.6161 29.366 48.7379 29.4978" fill="white"/>
<path d="M74.4751 57.4088C76.4006 57.6645 77.3486 56.2199 77.8048 54.4365C78.1184 53.1896 78.1638 51.89 77.938 50.6241C77.7123 49.3582 77.2205 48.1551 76.4954 47.0947C73.7404 42.9987 69.0598 33.6892 75.0794 23.9992C83.1431 11.0218 73.0235 12.4604 69.747 15.95C50.8053 36.2395 69.9781 56.8144 74.4751 57.4088Z" fill="url(#paint9_linear_15093_27030)"/>
<path d="M85.5979 14.8466C88.716 14.3466 90.998 12.3985 90.6948 10.4954C90.3917 8.59233 87.6183 7.4549 84.5002 7.9549C81.3821 8.4549 79.1001 10.403 79.4032 12.3061C79.7063 14.2092 82.4798 15.3466 85.5979 14.8466Z" fill="url(#paint10_linear_15093_27030)"/>
</g>
<defs>
<linearGradient id="paint0_linear_15093_27030" x1="149.62" y1="53.3569" x2="140.517" y2="42.3361" gradientUnits="userSpaceOnUse">
<stop stop-opacity="0"/>
<stop offset="0.95"/>
</linearGradient>
<linearGradient id="paint1_linear_15093_27030" x1="2753.27" y1="2026.5" x2="2898.62" y2="2026.5" gradientUnits="userSpaceOnUse">
<stop stop-opacity="0"/>
<stop offset="0.95"/>
</linearGradient>
<linearGradient id="paint2_linear_15093_27030" x1="164.552" y1="34.3549" x2="152.59" y2="20.2961" gradientUnits="userSpaceOnUse">
<stop offset="0.02" stop-color="white" stop-opacity="0"/>
<stop offset="0.32" stop-color="white" stop-opacity="0.39"/>
<stop offset="0.68" stop-color="white" stop-opacity="0.68"/>
<stop offset="1" stop-color="white"/>
</linearGradient>
<linearGradient id="paint3_linear_15093_27030" x1="8088.96" y1="26632.5" x2="33167.8" y2="26632.5" gradientUnits="userSpaceOnUse">
<stop offset="0.02" stop-color="white" stop-opacity="0"/>
<stop offset="0.32" stop-color="white" stop-opacity="0.39"/>
<stop offset="0.68" stop-color="white" stop-opacity="0.68"/>
<stop offset="1" stop-color="white"/>
</linearGradient>
<linearGradient id="paint4_linear_15093_27030" x1="2509.55" y1="912.861" x2="2461.22" y2="735.101" gradientUnits="userSpaceOnUse">
<stop offset="0.02" stop-color="white" stop-opacity="0"/>
<stop offset="0.32" stop-color="white" stop-opacity="0.39"/>
<stop offset="0.68" stop-color="white" stop-opacity="0.68"/>
<stop offset="1" stop-color="white"/>
</linearGradient>
<linearGradient id="paint5_linear_15093_27030" x1="110.7" y1="20.1888" x2="61.7639" y2="93.6811" gradientUnits="userSpaceOnUse">
<stop stop-opacity="0"/>
<stop offset="0.91" stop-opacity="0.8"/>
<stop offset="1"/>
</linearGradient>
<linearGradient id="paint6_linear_15093_27030" x1="5900.54" y1="1083.23" x2="7843.12" y2="1083.23" gradientUnits="userSpaceOnUse">
<stop stop-opacity="0"/>
<stop offset="0.91" stop-opacity="0.8"/>
<stop offset="1"/>
</linearGradient>
<linearGradient id="paint7_linear_15093_27030" x1="2190.45" y1="2756.84" x2="1089.67" y2="3899.7" gradientUnits="userSpaceOnUse">
<stop stop-opacity="0"/>
<stop offset="0.91" stop-opacity="0.8"/>
<stop offset="1"/>
</linearGradient>
<linearGradient id="paint8_linear_15093_27030" x1="2576.02" y1="1917.19" x2="2521.78" y2="2315.86" gradientUnits="userSpaceOnUse">
<stop stop-opacity="0"/>
<stop offset="0.91" stop-opacity="0.8"/>
<stop offset="1"/>
</linearGradient>
<linearGradient id="paint9_linear_15093_27030" x1="46.3427" y1="38.2416" x2="159.867" y2="27.4368" gradientUnits="userSpaceOnUse">
<stop stop-color="white" stop-opacity="0"/>
<stop offset="1" stop-color="white"/>
</linearGradient>
<linearGradient id="paint10_linear_15093_27030" x1="2322.29" y1="66.5406" x2="2340.01" y2="329.272" gradientUnits="userSpaceOnUse">
<stop stop-color="white" stop-opacity="0"/>
<stop offset="1" stop-color="white"/>
</linearGradient>
<clipPath id="clip0_15093_27030">
<rect width="192" height="200" fill="white"/>
</clipPath>
</defs>
</svg>
