<svg width="24" height="24" viewBox="0 0 24 24" fill="none" xmlns="http://www.w3.org/2000/svg">
<path fill-rule="evenodd" clip-rule="evenodd" d="M21.3002 19.8864C21.689 20.2752 21.6904 20.9043 21.2971 21.2975C20.9066 21.6881 20.2755 21.6901 19.886 21.3007L14.4572 15.8718C13.1954 16.8358 11.6186 17.4084 9.90804 17.4084C5.7659 17.4084 2.40804 14.0506 2.40804 9.90845C2.40804 5.76631 5.7659 2.40845 9.90804 2.40845C14.0502 2.40845 17.408 5.76631 17.408 9.90845C17.408 11.619 16.8354 13.1958 15.8714 14.4576L21.3002 19.8864ZM9.90804 15.4084C12.9456 15.4084 15.408 12.946 15.408 9.90845C15.408 6.87088 12.9456 4.40845 9.90804 4.40845C6.87047 4.40845 4.40804 6.87088 4.40804 9.90845C4.40804 12.946 6.87047 15.4084 9.90804 15.4084Z" fill="#949A9F"/>
</svg>
