<svg width="28" height="28" viewBox="0 0 28 28" fill="none" xmlns="http://www.w3.org/2000/svg">
<circle cx="14" cy="14" r="11" fill="white"/>
<path fill-rule="evenodd" clip-rule="evenodd" d="M14 2.33337C7.56004 2.33337 2.33337 7.56004 2.33337 14C2.33337 20.44 7.56004 25.6667 14 25.6667C20.44 25.6667 25.6667 20.44 25.6667 14C25.6667 7.56004 20.44 2.33337 14 2.33337ZM10.8384 19.0051L6.65008 14.8167C6.19508 14.3617 6.19508 13.6267 6.65008 13.1717C7.10508 12.7167 7.84008 12.7167 8.29508 13.1717L11.6667 16.5317L19.6934 8.50505C20.1484 8.05005 20.8834 8.05005 21.3384 8.50505C21.7934 8.96005 21.7934 9.69505 21.3384 10.15L12.4834 19.0051C12.0401 19.4601 11.2934 19.4601 10.8384 19.0051Z" fill="#00B589"/>
</svg>
