<svg width="36" height="36" viewBox="0 0 36 36" fill="none" xmlns="http://www.w3.org/2000/svg">
<circle cx="18" cy="18" r="18" fill="#F3F6F9"/>
<mask id="mask0_15027_1726" style="mask-type:alpha" maskUnits="userSpaceOnUse" x="0" y="0" width="36" height="36">
<circle cx="18" cy="18" r="18" fill="#F3F6F9"/>
</mask>
<g mask="url(#mask0_15027_1726)">
<circle cx="18.6318" cy="17.3241" r="9.42174" fill="black"/>
<path fill-rule="evenodd" clip-rule="evenodd" d="M15.3669 26.4167H15.5902C15.9106 24.6808 15.9106 22.4658 15.9106 22.4658H20.2787C20.2787 22.4658 20.3042 25.1467 20.6247 26.8825L21.4953 26.7493C20.6757 27.2641 19.7059 27.5619 18.6665 27.5619C17.4203 27.5619 16.2741 27.1338 15.3669 26.4167Z" fill="#BD9789"/>
<path d="M8.85325 32.8134C8.0334 28.7001 11.8662 26.4167 16.0604 26.4167H19.9805C24.1654 26.4167 27.9348 29.0489 27.0719 33.1439C26.6354 35.2151 24.2564 36.629 22.1396 36.629C19.7065 36.629 16.7674 36.629 14.1428 36.629C11.9276 36.629 9.28626 34.9859 8.85325 32.8134Z" fill="#911A3E"/>
<path d="M18.117 28.1918C17.5102 28.1918 16.922 27.9763 16.459 27.7398C15.8454 27.4263 15.6112 26.7083 15.701 26.0252C15.7927 25.327 15.8562 24.6417 15.8562 24.6417C15.8562 24.6417 17.0863 25.0139 18.117 25.0139C19.1477 25.0139 20.3778 24.6417 20.3778 24.6417C20.3778 24.6417 20.4413 25.327 20.533 26.0251C20.6228 26.7083 20.3886 27.4263 19.775 27.7398C19.312 27.9763 18.7238 28.1918 18.117 28.1918Z" fill="#901A3E"/>
<ellipse cx="25.2776" cy="16.2166" rx="1.03066" ry="1.37421" fill="#EFC9B4"/>
<ellipse cx="10.7396" cy="16.2166" rx="1.03066" ry="1.37421" fill="#EFC9B4"/>
<ellipse cx="25.2779" cy="16.2166" rx="1.03066" ry="1.37421" fill="#BD9789" fill-opacity="0.2"/>
<ellipse cx="10.7396" cy="16.2166" rx="1.03066" ry="1.37421" fill="#BD9789" fill-opacity="0.2"/>
<path d="M17.9524 8.39179C17.9555 8.39179 17.9587 8.39178 17.9619 8.39178C21.8339 8.39941 25.0234 10.7195 25.0234 13.7493C25.0234 14.5508 25.0849 15.1282 25.1462 15.916C25.207 16.6981 25.2676 17.4774 25.2676 18.2616C25.2676 21.7049 20.944 24.2637 17.9686 24.2785C17.9664 24.2785 17.9642 24.2785 17.9619 24.2785C17.9587 24.2785 17.9555 24.2785 17.9524 24.2785C17.9492 24.2785 17.946 24.2785 17.9428 24.2785C17.9405 24.2785 17.9383 24.2785 17.9361 24.2785C14.9608 24.2637 10.6371 21.7049 10.6371 18.2616C10.6371 17.4774 10.6977 16.6981 10.7585 15.916C10.8198 15.1282 10.8813 14.5508 10.8813 13.7493C10.8813 10.7195 14.0708 8.39943 17.9428 8.3918C17.946 8.3918 17.9492 8.39179 17.9524 8.39179Z" fill="#EFC9B4"/>
<path fill-rule="evenodd" clip-rule="evenodd" d="M8.81856 18.6454C8.07278 17.591 7.62974 16.1132 7.62974 14.0784C7.62974 8.06881 13.0023 4.743 17.9147 4.07894C20.7538 3.69514 22.722 4.93067 23.6485 6.92886C25.6185 7.20879 27.6917 9.53079 28.6053 12.6882C29.3168 15.147 29.2169 20.8269 27.508 23.01C26.7534 23.6007 26.253 24.214 25.8117 24.7547L25.8117 24.7547C25.3613 25.3067 24.9726 25.7831 24.4381 26.0827C22.7723 26.4159 21.5743 26.5384 20.7253 26.4725C20.5999 25.6602 20.5333 24.7913 20.4979 24.0971C23.0731 23.1705 25.6056 20.9973 25.6056 18.3061C25.6056 18.0614 25.6 17.8172 25.5903 17.5732C26.0154 17.3821 26.3216 16.8461 26.3216 16.2148C26.3216 15.4904 25.9185 14.8916 25.3951 14.7952C25.3688 14.4174 25.351 14.0413 25.351 13.6C25.351 10.4401 22.0244 8.02032 17.9862 8.01237L17.9762 8.01237L17.9662 8.01239C13.928 8.02034 10.6014 10.4401 10.6014 13.6C10.6014 14.0396 10.5837 14.4147 10.5576 14.791C10.0224 14.873 9.60675 15.4792 9.60675 16.2148C9.60675 16.8577 9.92429 17.4018 10.3617 17.5834C10.3523 17.824 10.3468 18.0648 10.3468 18.3061C10.3468 21.1368 13.1485 23.3943 15.8548 24.231C15.8113 25.0186 15.7279 26.0002 15.5678 26.8672H12.2663C11.2341 26.8672 10.2697 27.2222 9.54408 27.827C9.45982 27.8038 9.37647 27.7764 9.29415 27.7447C7.20454 26.9394 6.57259 23.6585 7.88267 20.4165C8.14305 19.7721 8.46054 19.1778 8.81856 18.6454Z" fill="#150C0C"/>
<path d="M25.381 12.9263C25.6939 12.9263 25.9845 12.758 26.225 12.47L25.6791 10.6841L22.2944 8.20514L16.9718 6.36591L11.1578 8.39173L10.6665 12.9263C12.0312 14.259 13.8874 12.2035 15.3613 12.2035C16.8353 12.2035 14.6789 13.6429 17.2174 13.6429C20.4656 13.6429 22.2796 10.9 22.9222 9.99107C22.9222 9.99107 23.7086 12.9263 25.381 12.9263Z" fill="#150C0C"/>
<path fill-rule="evenodd" clip-rule="evenodd" d="M8.67413 27.1307C7.47312 25.8245 6.59966 23.2923 7.96444 20.2269C8.19233 19.6629 8.47814 19.131 8.78332 18.6542L13.3144 23.4522C13.088 23.9115 13.4951 24.2196 13.8194 24.4651C14.0033 24.6042 14.1606 24.7233 14.1606 24.8383C14.177 25.3953 14.2131 25.922 14.2465 26.4103C14.3793 28.3526 14.4707 29.6875 13.1233 29.9029C12.4703 27.9897 10.9913 27.7287 9.87892 27.5324C9.35385 27.4397 8.91045 27.3614 8.67413 27.1307Z" fill="#150C0C"/>
<path fill-rule="evenodd" clip-rule="evenodd" d="M21.0022 23.5199C21.0308 23.5826 21.0676 23.6421 21.1109 23.6969C21.4755 24.1589 21.9654 24.9505 22.0954 26.3434C22.1012 26.4055 22.1136 26.4681 22.1342 26.527C22.7245 28.2177 23.6919 29.2669 24.8643 29.202C25.2211 29.1822 25.4182 28.822 25.4288 28.4647C25.4651 27.2474 26.1442 26.6162 26.8063 26.0009C27.4524 25.4004 28.0824 24.8149 28.0824 23.7143C28.0825 22.8101 27.9528 21.9532 27.7208 21.1864C27.2568 19.6524 26.3833 18.4794 25.3206 18.011C25.3124 18.0074 25.3042 18.0038 25.2959 18.0003C25.2968 18.0696 25.2973 18.1389 25.2973 18.2083C25.2973 20.5782 23.2492 22.5291 21.0022 23.5199Z" fill="#150C0C"/>
<ellipse cx="13.076" cy="19.0411" rx="0.200406" ry="0.200406" fill="#F0C6C6" fill-opacity="0.5" style="mix-blend-mode:multiply"/>
<ellipse cx="13.4768" cy="19.671" rx="0.200406" ry="0.200406" fill="#F0C6C6" fill-opacity="0.5" style="mix-blend-mode:multiply"/>
<ellipse cx="14.1639" cy="19.0411" rx="0.200406" ry="0.200406" fill="#F0C6C6" fill-opacity="0.5" style="mix-blend-mode:multiply"/>
<ellipse rx="0.200406" ry="0.200406" transform="matrix(-1 0 0 1 22.6326 19.0411)" fill="#F0C6C6" fill-opacity="0.5" style="mix-blend-mode:multiply"/>
<ellipse rx="0.200406" ry="0.200406" transform="matrix(-1 0 0 1 22.2319 19.671)" fill="#F0C6C6" fill-opacity="0.5" style="mix-blend-mode:multiply"/>
<ellipse rx="0.200406" ry="0.200406" transform="matrix(-1 0 0 1 21.5444 19.0411)" fill="#F0C6C6" fill-opacity="0.5" style="mix-blend-mode:multiply"/>
</g>
</svg>
