<svg width="268" height="200" viewBox="0 0 268 200" fill="none" xmlns="http://www.w3.org/2000/svg">
<path d="M232.469 117.296C236.195 107.4 238.499 95.8002 233.241 86.5824C229.665 80.3194 223.227 76.2761 216.789 72.8972C198.32 63.227 177.798 56.8227 161.825 43.5404C159.207 41.3632 156.689 38.9881 153.592 37.5672C150.309 36.0545 146.61 35.7293 142.998 35.4466C127.369 34.1954 111.332 33.2623 96.3316 37.7581C81.3316 42.2539 67.4046 53.3095 63.9139 68.4085C61.2315 80.065 64.9654 92.605 61.5034 104.064C58.6421 113.564 51.0957 121.227 48.5563 130.826C44.2645 146.858 55.8095 163.788 70.8739 171.118C85.9382 178.449 103.528 178.187 120.23 176.865C128.635 176.194 137.061 175.261 145.208 173.126C152.526 171.21 159.643 168.319 167.183 167.846C178.942 167.103 191.982 172.037 201.839 165.661C205.28 163.442 207.841 160.049 211.36 157.949C218.642 153.609 222.261 152.443 223.856 144.01C225.659 134.58 229.114 126.217 232.469 117.296Z" fill="#F3F6F9"/>
<path d="M123.184 122.067C123.184 122.067 75.6809 127.74 70.7765 139.647C67.5109 147.38 63.7049 154.876 59.3865 162.08C59.3865 162.08 99.0572 194.554 130.507 184.307C161.957 174.06 164.59 167.347 180.476 168.52C196.361 169.694 209.567 152.147 209.567 144.84C209.567 137.534 160.449 122.527 152.537 123.007C144.624 123.487 123.184 122.067 123.184 122.067Z" fill="#1DBAA3"/>
<path d="M124.296 121.613C124.296 123.287 123.847 120.533 123.17 122.067C122.273 124.107 120.772 130 119.78 131.987C118.072 135.393 119.727 139.747 122.634 142.247C125.542 144.747 129.395 145.8 133.14 146.64C138.681 147.88 145.012 148.64 149.575 145.307C153.937 142.1 155.176 136.1 154.815 130.72C154.585 128.051 154.2 125.398 153.662 122.773L150.439 105.333C150.427 105.112 150.365 104.895 150.257 104.701C150.149 104.506 149.998 104.339 149.816 104.21C149.633 104.082 149.424 103.997 149.204 103.96C148.983 103.924 148.758 103.937 148.543 104C142.513 103.927 132.785 104.107 127.519 107.46C122.601 110.533 124.283 115.933 124.296 121.613Z" fill="#EFC7A5"/>
<path d="M123.994 125.473C124.933 127.37 126.298 129.027 127.982 130.316C129.666 131.605 131.626 132.491 133.709 132.907C137.917 133.696 142.27 132.91 145.93 130.7C148.918 128.94 151.485 126.28 152.536 122.993C153.043 121.119 153.304 119.188 153.314 117.247L153.575 111.687C151.887 114.127 148.818 115.233 145.87 115.647C138.446 116.667 131.981 114 125.033 112C121.77 111.047 121.83 113.027 122.092 115.78C122.4 119 122.608 122.467 123.994 125.473Z" fill="#EFC7A5"/>
<path d="M112.176 102.327C112.176 102.327 124.236 122.213 132.698 123.147C141.16 124.08 153.843 123.727 162.848 102.813C171.853 81.9001 173.434 54.0801 159.109 49.1267C159.096 49.1267 88.8664 30.4667 112.176 102.327Z" fill="#F9D1AF"/>
<path d="M161.776 103.14C161.521 104.474 161.2 105.927 160.154 106.787C158.721 107.994 156.51 107.6 154.861 106.727C151.511 104.954 149.24 101.66 146.627 98.8869C145.496 97.6666 144.205 96.6037 142.788 95.7268L144.309 98.7335C144.611 99.2788 144.851 99.8556 145.026 100.454C145.188 101.11 145.188 101.797 145.026 102.454C144.999 102.604 144.937 102.745 144.845 102.867C144.704 103.008 144.525 103.105 144.329 103.147C143.504 103.357 142.655 103.463 141.803 103.46C140.31 103.617 138.8 103.479 137.361 103.054C136.946 102.9 136.483 102.614 136.443 102.167C136.389 101.547 137.173 101.2 137.783 101.12C138.634 101.12 139.438 101.014 140.275 101.12C141.428 101.227 141.388 101.32 141.394 100.127C141.394 98.4135 141.394 96.7202 141.347 94.9868C139.869 94.2824 138.207 94.0496 136.59 94.3202C133.441 94.9335 131.157 97.6068 129.395 100.267C127.633 102.927 126.004 105.887 123.324 107.587C120.303 109.467 114.943 109.087 114.447 104.92C113.911 100.487 116.504 95.0269 118.99 91.5335C122.332 86.8679 127.16 83.4618 132.691 81.8668C134.637 81.2531 136.69 81.0421 138.721 81.2468C140.952 81.5335 143.036 82.5268 145.066 83.5002L155.726 88.5935C157.555 89.4668 159.444 90.3868 160.71 91.9668C163.102 94.9935 162.499 99.3335 161.776 103.14Z" fill="url(#paint0_linear_15093_27155)"/>
<path d="M183.202 47.0534C183.256 47.5534 183.752 47.8734 184.134 48.2268C185.722 49.7401 185.052 52.5134 183.551 54.1134C182.05 55.7134 179.953 56.6201 178.278 58.0401C177.258 58.8457 176.577 60.0011 176.368 61.2801C176.074 63.0334 176.589 64.9201 176.656 66.8934C176.679 67.4478 176.654 68.0032 176.583 68.5534C175.954 73.2754 174.178 77.7739 171.41 81.6601C170.586 82.7734 169.501 83.9134 168.114 83.9734C165.869 84.0734 164.59 81.4934 163.987 79.3401C162.761 74.9682 161.865 70.5114 161.307 66.0068C161.092 64.3001 160.927 62.5912 160.811 60.8801C160.369 62.9468 157.36 63.4468 155.585 62.2868C155.484 62.2201 155.391 62.1534 155.29 62.0734C153.716 60.8801 152.898 58.9201 152.027 57.1201C151.089 55.2134 149.803 53.2201 147.746 52.6868C145.414 52.0934 143.056 52.6868 140.664 52.5934C136.999 52.4401 133.328 52.0334 129.669 51.7601C127.659 51.6134 125.649 51.4668 123.773 52.1801C123.115 52.4199 122.508 52.7819 121.984 53.2468C121.492 53.6629 121.108 54.191 120.864 54.7864C120.62 55.3817 120.524 56.0267 120.584 56.6668C116.872 56.5401 116.738 59.5068 113.991 62.0001C111.244 64.4934 106.34 66.7868 108.477 69.8068C110.702 72.9534 109.02 75.0268 108.812 78.7468C108.471 84.9201 106.561 90.8934 104.672 96.7934C101.804 92.7068 98.8896 88.5201 97.6032 83.7134C96.9332 81.2934 96.5379 78.9201 96.089 76.5868C95.419 72.8668 94.615 69.2068 92.739 65.5468C91.9099 64.1558 91.1865 62.7051 90.5749 61.2068C89.7977 58.9201 89.9049 56.4401 90.0657 54.0334C90.3739 48.8934 90.7826 43.3668 94.0053 39.3668C95.1915 37.9267 96.7018 36.7848 98.4139 36.0334C100.772 34.9268 103.291 34.2468 105.456 32.6001C106.606 31.6399 107.497 30.4095 108.048 29.0201C109.228 26.4001 109.884 23.2601 111.305 21.0201C113.862 17.1047 117.497 14.0036 121.777 12.0868C128.879 8.85344 137.033 8.65344 144.778 9.70677C151.19 10.5801 157.615 12.3268 162.942 15.9801C165.201 17.5997 167.317 19.4085 169.266 21.3868C174.043 26.0201 178.526 31.0201 184.837 32.7601C186.961 33.3534 189.46 33.6934 190.659 35.5334C191.859 37.3734 191.035 40.0868 189.474 41.7534C187.912 43.4201 185.795 44.4201 183.973 45.8068C183.624 46.1201 183.149 46.5401 183.202 47.0534Z" fill="#2A353F"/>
<path d="M101.275 60.8801C100.136 62.8801 99.2647 65.2801 100.082 67.4401C101.167 66.8201 102.266 66.2268 103.332 65.6268L96.0956 76.5601C95.3921 72.8401 94.6216 69.1801 92.7456 65.5201C91.9187 64.129 91.1975 62.6783 90.5882 61.1801C89.8043 58.8934 89.9182 56.4134 90.0723 54.0068C90.3805 48.8668 90.7959 43.3401 94.0186 39.3401C95.2021 37.9002 96.7102 36.7582 98.4205 36.0068C98.8985 36.2346 99.3284 36.5514 99.6868 36.9401C101.368 38.7668 101.784 41.6868 102.467 43.9668C103.512 47.4134 105.248 51.0934 104.377 54.7601C103.847 56.9934 102.4 58.8801 101.275 60.8801Z" fill="#2A353F"/>
<path d="M177.427 54.2268C175.933 56.2268 176.013 58.7335 176.355 61.2801C176.496 62.3268 176.663 63.3735 176.817 64.3735C176.992 65.2113 176.932 66.0807 176.643 66.8868C176.58 67.0271 176.504 67.1611 176.415 67.2868C175.337 68.7468 173.065 68.2868 171.364 67.6868C167.169 66.2068 164.087 66.5935 161.314 65.9735C159.364 65.5335 157.548 64.6401 155.585 62.2535C155.504 62.1658 155.406 62.0954 155.297 62.0468C153.716 60.8535 152.898 58.8868 152.027 57.0868C151.096 55.1801 149.81 53.1868 147.746 52.6601C145.414 52.0601 143.056 52.6601 140.664 52.5668C136.999 52.4068 133.294 52.0068 129.669 51.7335C127.659 51.5801 125.649 51.4401 123.78 52.1535C123.117 52.3972 122.507 52.7662 121.985 53.2401C121.187 53.0601 120.591 52.4935 120.296 51.2401C119.573 48.0735 120.758 43.6735 123.077 41.4135C125.395 39.1535 128.785 38.5601 132.008 38.2468C138.862 37.5801 146.205 37.8668 151.96 41.6135C154.6 43.3335 156.811 45.7068 159.618 47.1468C164.731 49.7601 170.848 48.8468 176.549 49.5335C177.514 49.6468 178.633 49.9335 178.995 50.8668C179.471 52.0468 178.218 53.1801 177.427 54.2268Z" fill="#2A353F"/>
<path d="M129.931 70.2935C129.192 68.829 128.126 67.552 126.815 66.5602C121.737 62.4335 114.675 60.6335 108.37 62.4268C107.146 62.7549 105.978 63.2651 104.906 63.9402C103.212 65.149 101.779 66.6837 100.692 68.4535C93.7843 78.6668 91.4728 91.2135 90.4946 103.447C90.2735 106.22 90.575 109.167 89.436 111.707C79.9086 132.954 59.152 159.654 59.4066 162.08C66.8503 168.28 79.7947 176.78 85.6572 176.994C88.9469 170.994 101.637 127.754 104.303 121.44C105.355 118.96 107.218 113.52 108.759 111.307C112.886 105.36 119.358 105.307 124.243 99.9735C125.532 98.6716 126.47 97.0663 126.969 95.3068C127.218 93.7769 127.257 92.2204 127.083 90.6802C126.898 86.9395 127.229 83.1911 128.068 79.5402C128.765 76.4668 131.365 73.4802 129.931 70.2935Z" fill="#F9D1AF"/>
<path d="M98.0654 80.8735H97.2882C95.7859 80.8735 94.568 82.0853 94.568 83.5802V84.5335C94.568 86.0284 95.7859 87.2402 97.2882 87.2402H98.0654C99.5677 87.2402 100.786 86.0284 100.786 84.5335V83.5802C100.786 82.0853 99.5677 80.8735 98.0654 80.8735Z" fill="#2B46A6"/>
<path d="M98.6082 80.8735H97.831C96.3287 80.8735 95.1108 82.0853 95.1108 83.5802V84.5335C95.1108 86.0284 96.3287 87.2402 97.831 87.2402H98.6082C100.111 87.2402 101.328 86.0284 101.328 84.5335V83.5802C101.328 82.0853 100.111 80.8735 98.6082 80.8735Z" fill="#42484E"/>
<path d="M147.706 70.2935C148.448 68.8253 149.521 67.5476 150.841 66.5602C155.913 62.4335 162.982 60.6335 169.287 62.4268C170.509 62.7549 171.675 63.2652 172.744 63.9402C174.439 65.1472 175.873 66.6823 176.958 68.4535C183.859 78.6602 186.171 91.2135 187.155 103.447C187.377 106.22 187.068 109.167 188.207 111.707C197.735 132.947 212.173 143.567 211.925 145.994C216.2 159.7 197.185 167.994 189.44 167.287C186.15 161.287 176.04 127.747 173.36 121.427C172.315 118.947 170.452 113.507 168.911 111.294C164.784 105.347 158.325 105.327 153.428 99.9602C152.136 98.6594 151.198 97.0537 150.701 95.2935C150.452 93.7636 150.413 92.207 150.587 90.6668C150.769 86.9262 150.438 83.1783 149.602 79.5268C148.872 76.4668 146.292 73.4802 147.706 70.2935Z" fill="#F9D1AF"/>
<path d="M177.621 80.8735H176.844C175.342 80.8735 174.124 82.0853 174.124 83.5802V84.5335C174.124 86.0284 175.342 87.2402 176.844 87.2402H177.621C179.124 87.2402 180.342 86.0284 180.342 84.5335V83.5802C180.342 82.0853 179.124 80.8735 177.621 80.8735Z" fill="#2B46A6"/>
<path d="M176.992 80.8735H176.214C174.712 80.8735 173.494 82.0853 173.494 83.5802V84.5335C173.494 86.0284 174.712 87.2402 176.214 87.2402H176.992C178.494 87.2402 179.712 86.0284 179.712 84.5335V83.5802C179.712 82.0853 178.494 80.8735 176.992 80.8735Z" fill="#42484E"/>
<path d="M129.301 74C129.301 74 136.269 78.54 145.642 73.64V89.18C145.642 89.18 137.348 83.32 130.138 89.18L129.301 74Z" fill="#2B46A6"/>
<path d="M129.301 74C129.301 74 136.269 78.54 145.642 73.64V89.18C145.642 89.18 137.348 83.32 130.138 89.18L129.301 74Z" fill="#42484E"/>
<path d="M145.254 79.2267H130.386V83.9467H145.254V79.2267Z" fill="#505860"/>
<path opacity="0.69" d="M145.254 79.2267H130.386V83.9467H145.254V79.2267Z" fill="#505860"/>
<path d="M115.057 100.427C124.515 100.427 132.182 92.7978 132.182 83.3869C132.182 73.9759 124.515 66.3469 115.057 66.3469C105.599 66.3469 97.9314 73.9759 97.9314 83.3869C97.9314 92.7978 105.599 100.427 115.057 100.427Z" fill="#505860"/>
<path opacity="0.69" d="M115.057 100.427C124.515 100.427 132.182 92.7978 132.182 83.3869C132.182 73.9759 124.515 66.3469 115.057 66.3469C105.599 66.3469 97.9314 73.9759 97.9314 83.3869C97.9314 92.7978 105.599 100.427 115.057 100.427Z" fill="#505860"/>
<path d="M114.956 98.3C123.145 98.3 129.783 91.6947 129.783 83.5467C129.783 75.3987 123.145 68.7934 114.956 68.7934C106.767 68.7934 100.129 75.3987 100.129 83.5467C100.129 91.6947 106.767 98.3 114.956 98.3Z" fill="#F8F9FB"/>
<path d="M160.007 100.427C169.465 100.427 177.132 92.7978 177.132 83.3869C177.132 73.9759 169.465 66.3469 160.007 66.3469C150.549 66.3469 142.882 73.9759 142.882 83.3869C142.882 92.7978 150.549 100.427 160.007 100.427Z" fill="#505860"/>
<path opacity="0.69" d="M160.007 100.427C169.465 100.427 177.132 92.7978 177.132 83.3869C177.132 73.9759 169.465 66.3469 160.007 66.3469C150.549 66.3469 142.882 73.9759 142.882 83.3869C142.882 92.7978 150.549 100.427 160.007 100.427Z" fill="#505860"/>
<path d="M159.9 98.3C168.089 98.3 174.727 91.6947 174.727 83.5467C174.727 75.3987 168.089 68.7934 159.9 68.7934C151.711 68.7934 145.073 75.3987 145.073 83.5467C145.073 91.6947 151.711 98.3 159.9 98.3Z" fill="#F8F9FB"/>
<path d="M137.187 73.82H136.564C135.491 73.82 134.621 74.6856 134.621 75.7533V76.7333C134.621 77.8011 135.491 78.6667 136.564 78.6667H137.187C138.26 78.6667 139.13 77.8011 139.13 76.7333V75.7533C139.13 74.6856 138.26 73.82 137.187 73.82Z" fill="#505860"/>
<path opacity="0.69" d="M169.28 21.3935C168.782 21.9873 168.216 22.52 167.591 22.9801C163.176 26.1735 157.025 24.3135 151.96 22.3135C146.386 20.0601 140.744 17.7735 134.714 17.3935C128.684 17.0135 122.259 18.9068 118.634 23.6668C116.578 26.3335 114.916 30.2268 111.519 30.4135C110.873 30.4299 110.231 30.3134 109.633 30.0714C109.034 29.8293 108.493 29.4669 108.042 29.0068C109.214 26.3868 109.871 23.2468 111.291 21.0068C113.85 17.0926 117.485 13.9919 121.763 12.0735C128.872 8.86014 137.026 8.66681 144.764 9.71348C151.17 10.5868 157.602 12.3335 162.921 15.9868C165.193 17.6041 167.32 19.413 169.28 21.3935Z" fill="#2A353F"/>
<path opacity="0.69" d="M177.936 34.8868C179.846 36.1668 182.217 36.5335 184.516 36.6335C185.357 36.6276 186.195 36.7329 187.008 36.9468C187.414 37.0566 187.788 37.2615 188.098 37.5445C188.408 37.8276 188.645 38.1804 188.79 38.5735C188.846 39.0667 188.98 39.5481 189.185 40.0002C189.233 40.0685 189.301 40.12 189.38 40.1468C189.44 40.1469 189.5 40.1324 189.554 40.1045C189.607 40.0766 189.653 40.0363 189.688 39.9868C190.194 39.4269 190.504 38.7195 190.573 37.9699C190.641 37.2203 190.465 36.4686 190.07 35.8268C189.058 34.2735 187.035 33.8268 185.259 33.2335C183.002 32.5063 180.881 31.4139 178.981 30.0002C177.876 29.1735 175.323 27.4335 175.162 29.9202C175.035 31.8868 176.368 33.8402 177.936 34.8868Z" fill="url(#paint1_linear_15093_27155)"/>
<path opacity="0.69" d="M117.918 38.5602C118.742 36.7002 119.666 34.7868 121.227 33.4668C123.097 31.9002 125.616 31.3802 128.021 30.9935C130.781 30.4657 133.586 30.2155 136.396 30.2468C141.883 30.518 147.172 32.371 151.619 35.5802C155.243 38.1335 158.989 41.6202 163.377 41.0135C167.156 42.8735 161.876 48.1802 160.483 47.6135C157.635 46.4468 151.82 41.0468 148.999 39.8135C143.451 37.3868 137.167 37.5468 131.11 37.9535C129.666 37.9546 128.239 38.2519 126.916 38.8268C125.664 39.5757 124.609 40.611 123.84 41.8468C122.562 43.5465 121.619 45.4715 121.06 47.5202C120.678 49.0935 121.348 51.2002 119.264 50.4935C114.554 48.9135 116.625 41.5468 117.918 38.5602Z" fill="#2A353F"/>
<defs>
<linearGradient id="paint0_linear_15093_27155" x1="138.091" y1="112.287" x2="141.289" y2="-16.0806" gradientUnits="userSpaceOnUse">
<stop stop-opacity="0"/>
<stop offset="0.99"/>
</linearGradient>
<linearGradient id="paint1_linear_15093_27155" x1="4958.49" y1="-9570.32" x2="5786.73" y2="-9880.89" gradientUnits="userSpaceOnUse">
<stop offset="0.02" stop-color="white" stop-opacity="0"/>
<stop offset="0.58" stop-color="white" stop-opacity="0.39"/>
<stop offset="0.68" stop-color="white" stop-opacity="0.68"/>
<stop offset="1" stop-color="white"/>
</linearGradient>
</defs>
</svg>
