<svg width="28" height="28" viewBox="0 0 28 28" fill="none" xmlns="http://www.w3.org/2000/svg">
<path fill-rule="evenodd" clip-rule="evenodd" d="M22.1667 3.5H5.83333C4.55 3.5 3.5 4.55 3.5 5.83333V22.1667C3.5 23.45 4.55 24.5 5.83333 24.5H22.1667C23.45 24.5 24.5 23.45 24.5 22.1667V5.83333C24.5 4.55 23.45 3.5 22.1667 3.5ZM12.495 19.005C12.04 19.46 11.305 19.46 10.85 19.005L6.66166 14.8167C6.20666 14.3617 6.20666 13.6267 6.66166 13.1717C7.11666 12.7167 7.85166 12.7167 8.30666 13.1717L11.6667 16.5317L19.6933 8.50501C20.1483 8.05001 20.8833 8.05001 21.3383 8.50501C21.7933 8.96001 21.7933 9.69501 21.3383 10.15L12.495 19.005Z" fill="#00B589"/>
</svg>
