<svg width="32" height="32" viewBox="0 0 32 32" fill="none" xmlns="http://www.w3.org/2000/svg">
<g clip-path="url(#clip0_15093_27247)">
<g clip-path="url(#clip1_15093_27247)">
<path d="M26.673 3.97882H5.32759C3.44418 3.97882 1.9173 5.5057 1.9173 7.38911V27.2564C1.9173 29.1398 3.44418 30.6667 5.32759 30.6667H26.673C28.5564 30.6667 30.0832 29.1398 30.0832 27.2564V7.38911C30.0832 5.5056 28.5564 3.97882 26.673 3.97882Z" fill="#FAEEC5"/>
<path d="M30.0832 10.3864V6.25428C30.0832 4.37087 28.5564 2.84399 26.673 2.84399H5.32759C3.44418 2.84399 1.9173 4.37087 1.9173 6.25428V10.3864H30.0832Z" fill="#008867"/>
<path d="M30.0832 11.1573V7.38911C30.0832 5.5057 28.5564 3.97882 26.673 3.97882H5.32759C3.44418 3.97882 1.9173 5.5057 1.9173 7.38911V11.1573H30.0832Z" fill="#00B589"/>
<path d="M7.50334 5.81036C6.84598 5.81036 6.31309 6.34325 6.31309 7.00061C6.31309 7.65797 6.84598 8.19077 7.50334 8.19077C8.1607 8.19077 8.69349 7.65788 8.69349 7.00061C8.69359 6.34325 8.1607 5.81036 7.50334 5.81036Z" fill="#008867"/>
<path d="M7.50309 1.33331C7.15146 1.33331 6.86633 1.61844 6.86633 1.97008V6.93127C6.86633 7.283 7.15146 7.56803 7.50309 7.56803C7.85472 7.56803 8.13985 7.283 8.13985 6.93127V1.97008C8.13985 1.61844 7.85482 1.33331 7.50309 1.33331V1.33331Z" fill="#5F686F"/>
<path d="M13.1679 5.81036C12.5106 5.81036 11.9777 6.34325 11.9777 7.00061C11.9777 7.65797 12.5106 8.19077 13.1679 8.19077C13.8253 8.19077 14.3581 7.65788 14.3581 7.00061C14.3582 6.34325 13.8253 5.81036 13.1679 5.81036Z" fill="#008867"/>
<path d="M13.1675 1.33331C12.8159 1.33331 12.5307 1.61844 12.5307 1.97008V6.93127C12.5307 7.283 12.8159 7.56803 13.1675 7.56803C13.5191 7.56803 13.8043 7.283 13.8043 6.93127V1.97008C13.8043 1.61844 13.5191 1.33331 13.1675 1.33331V1.33331Z" fill="#5F686F"/>
<path d="M18.8323 5.81036C18.175 5.81036 17.6421 6.34325 17.6421 7.00061C17.6421 7.65797 18.175 8.19077 18.8323 8.19077C19.4897 8.19077 20.0225 7.65788 20.0225 7.00061C20.0225 6.34325 19.4897 5.81036 18.8323 5.81036Z" fill="#008867"/>
<path d="M18.8321 1.33331C18.4805 1.33331 18.1953 1.61844 18.1953 1.97008V6.93127C18.1953 7.283 18.4805 7.56803 18.8321 7.56803C19.1837 7.56803 19.4688 7.283 19.4688 6.93127V1.97008C19.4688 1.61844 19.1837 1.33331 18.8321 1.33331V1.33331Z" fill="#5F686F"/>
<path d="M24.4969 5.81036C23.8396 5.81036 23.3067 6.34325 23.3067 7.00061C23.3067 7.65797 23.8396 8.19077 24.4969 8.19077C25.1543 8.19077 25.6871 7.65788 25.6871 7.00061C25.6871 6.34325 25.1542 5.81036 24.4969 5.81036Z" fill="#008867"/>
<path d="M24.4968 1.33331C24.1452 1.33331 23.8601 1.61844 23.8601 1.97008V6.93127C23.8601 7.283 24.1452 7.56803 24.4968 7.56803C24.8484 7.56803 25.1336 7.283 25.1336 6.93127V1.97008C25.1336 1.61844 24.8485 1.33331 24.4968 1.33331V1.33331Z" fill="#5F686F"/>
<path d="M12.3094 15.8691H14.8837V18.4433H12.3094V15.8691Z" fill="#00B589"/>
<path d="M17.116 15.8691H19.6902V18.4433H17.116V15.8691Z" fill="#00B589"/>
<path d="M21.923 15.8691H24.4973V18.4433H21.923V15.8691Z" fill="#00B589"/>
<path d="M7.5032 19.9045H10.0774V22.4788H7.5032V19.9045Z" fill="#00B589"/>
<path d="M12.3094 19.9045H14.8837V22.4788H12.3094V19.9045Z" fill="#00B589"/>
<path d="M17.116 19.9045H19.6902V22.4788H17.116V19.9045Z" fill="#00B589"/>
<path d="M21.923 19.9045H24.4973V22.4788H21.923V19.9045Z" fill="#00B589"/>
<path d="M7.5032 23.94H10.0774V26.5142H7.5032V23.94Z" fill="#00B589"/>
<path d="M12.3094 23.94H14.8837V26.5142H12.3094V23.94Z" fill="#00B589"/>
<path d="M17.116 23.94H19.6902V26.5142H17.116V23.94Z" fill="#00B589"/>
</g>
</g>
<defs>
<clipPath id="clip0_15093_27247">
<rect width="32" height="32" fill="white"/>
</clipPath>
<clipPath id="clip1_15093_27247">
<rect width="29.3333" height="29.3333" fill="white" transform="translate(1.33334 1.33331)"/>
</clipPath>
</defs>
</svg>
