<svg width="24" height="24" viewBox="0 0 24 24" fill="none" xmlns="http://www.w3.org/2000/svg">
<path fill-rule="evenodd" clip-rule="evenodd" d="M11.9998 14.6316C13.7471 14.6316 15.1471 13.2211 15.1471 11.4737L15.1577 5.15789C15.1577 3.41053 13.7471 2 11.9998 2C10.2524 2 8.84187 3.41053 8.84187 5.15789V11.4737C8.84187 13.2211 10.2524 14.6316 11.9998 14.6316ZM17.5787 11.4737C17.5787 14.6316 14.905 16.8421 11.9998 16.8421C9.09451 16.8421 6.42082 14.6316 6.42082 11.4737H4.63135C4.63135 15.0632 7.49451 18.0316 10.9471 18.5474V22H13.0524V18.5474C16.505 18.0421 19.3682 15.0737 19.3682 11.4737H17.5787Z" fill="#5F686F"/>
</svg>
