<svg width="57" height="57" viewBox="0 0 57 57" fill="none" xmlns="http://www.w3.org/2000/svg">
<g clip-path="url(#clip0_15440_23186)">
<path d="M45.1194 32.561L56.6849 28.3138C56.9454 28.2181 56.9394 27.8474 56.6758 27.7603L44.9769 23.8953L43.4258 23.9208L43.5682 32.5865L45.1194 32.561Z" fill="#FED9A8"/>
<path d="M56.6758 27.7602L50.4788 25.713L50.5585 30.5636L56.6849 28.3138C56.9455 28.218 56.9394 27.8474 56.6758 27.7602Z" fill="#333333"/>
<path d="M56.8772 28.0341C56.8753 27.9185 56.8079 27.8041 56.6761 27.7606L44.9773 23.8956L43.4262 23.9211L43.4974 28.254L56.8772 28.0341Z" fill="#F4C892"/>
<path d="M56.8771 28.0342C56.8752 27.9186 56.8078 27.8042 56.6759 27.7607L50.479 25.7134L50.5188 28.1387L56.8771 28.0342Z" fill="#1A1A1A"/>
<path d="M1.79549 28.9393C1.75616 26.5463 3.66412 24.5746 6.05711 24.5353L44.9468 23.8962L45.0892 32.5618L6.19952 33.2009C3.80652 33.2402 1.83481 31.3323 1.79549 28.9393Z" fill="#FFBF14"/>
<path d="M1.79442 28.9385C1.80505 29.585 1.95778 30.1956 2.22078 30.7425C2.88215 29.2427 4.36915 28.1843 6.11555 28.1556L45.0053 27.5165L44.9458 23.8953L6.05605 24.5344C3.66305 24.5737 1.7551 26.5455 1.79442 28.9385Z" fill="#FF901D"/>
<path d="M9.40928 24.4797L9.55168 33.1451L12.8499 33.0909L12.7075 24.4255L9.40928 24.4797Z" fill="#21D8DE"/>
<path d="M9.40963 24.4803L9.46986 28.1463L12.7681 28.0921L12.7078 24.4261L9.40963 24.4803Z" fill="#11B9C1"/>
<path d="M1.79485 28.9386C1.83417 31.3316 3.80588 33.2396 6.19887 33.2003L9.55184 33.1452L9.40945 24.4795L6.05647 24.5346C3.66354 24.574 1.75558 26.5457 1.79485 28.9386Z" fill="#FF4C4C"/>
<path d="M1.79483 28.9389C1.80554 29.5906 1.96047 30.2058 2.22731 30.756C2.89152 29.2633 4.37511 28.2109 6.11639 28.1823L9.46936 28.1272L9.40943 24.4798L6.05646 24.5349C3.66352 24.5743 1.75551 26.5459 1.79483 28.9389Z" fill="#F33939"/>
<path d="M45.041 29.6749L44.9935 26.7821L12.7556 27.3118L12.8032 30.2046L45.041 29.6749Z" fill="#FFB123"/>
</g>
<defs>
<clipPath id="clip0_15440_23186">
<rect width="40" height="40" fill="white" transform="translate(28.9683 57) scale(1.00776) rotate(-135.941)"/>
</clipPath>
</defs>
</svg>
