<svg width="269" height="200" viewBox="0 0 269 200" fill="none" xmlns="http://www.w3.org/2000/svg">
<path d="M232.736 117.296C236.462 107.4 238.766 95.8002 233.508 86.5824C229.932 80.3194 223.494 76.2761 217.056 72.8972C198.587 63.227 178.065 56.8227 162.092 43.5404C159.474 41.3632 156.956 38.9881 153.859 37.5672C150.576 36.0545 146.878 35.7293 143.265 35.4466C127.636 34.1954 111.599 33.2623 96.5987 37.7581C81.5987 42.2539 67.6717 53.3095 64.181 68.4085C61.4986 80.065 65.2325 92.605 61.7704 104.064C58.9092 113.564 51.3627 121.227 48.8234 130.826C44.5316 146.858 56.0766 163.788 71.1409 171.118C86.2053 178.449 103.795 178.187 120.497 176.865C128.902 176.194 137.328 175.261 145.476 173.126C152.793 171.21 159.91 168.319 167.45 167.846C179.209 167.103 192.249 172.037 202.106 165.661C205.547 163.442 208.108 160.049 211.627 157.949C218.909 153.609 222.528 152.443 224.123 144.01C225.926 134.58 229.381 126.217 232.736 117.296Z" fill="#F3F6F9"/>
<path d="M123.451 122.067C123.451 122.067 75.948 127.74 71.0436 139.647C67.778 147.38 63.972 154.876 59.6536 162.08C59.6536 162.08 99.3243 194.554 130.774 184.307C162.224 174.06 164.857 167.347 180.743 168.52C196.628 169.694 209.834 152.147 209.834 144.84C209.834 137.534 160.716 122.527 152.804 123.007C144.891 123.487 123.451 122.067 123.451 122.067Z" fill="#1DBAA3"/>
<path d="M124.563 121.613C124.563 123.287 124.114 120.533 123.438 122.067C122.54 124.107 121.039 130 120.047 131.987C118.339 135.393 119.994 139.747 122.902 142.247C125.809 144.747 129.662 145.8 133.407 146.64C138.948 147.88 145.28 148.64 149.842 145.307C154.204 142.1 155.443 136.1 155.082 130.72C154.852 128.051 154.467 125.398 153.929 122.773L150.707 105.333C150.694 105.112 150.632 104.895 150.524 104.701C150.416 104.506 150.265 104.339 150.083 104.21C149.9 104.082 149.691 103.997 149.471 103.96C149.25 103.924 149.025 103.937 148.81 104C142.78 103.927 133.052 104.107 127.786 107.46C122.868 110.533 124.55 115.933 124.563 121.613Z" fill="#EFC7A5"/>
<path d="M124.262 125.473C125.2 127.37 126.565 129.027 128.249 130.316C129.934 131.605 131.893 132.491 133.977 132.907C138.184 133.696 142.537 132.91 146.197 130.7C149.186 128.94 151.752 126.28 152.804 122.993C153.31 121.119 153.571 119.188 153.581 117.247L153.842 111.687C152.154 114.127 149.085 115.233 146.137 115.647C138.713 116.667 132.248 114 125.3 112C122.037 111.047 122.097 113.027 122.359 115.78C122.667 119 122.875 122.467 124.262 125.473Z" fill="#EFC7A5"/>
<path d="M112.443 102.327C112.443 102.327 124.503 122.213 132.965 123.147C141.427 124.08 154.11 123.727 163.115 102.813C172.12 81.9001 173.701 54.0801 159.376 49.1267C159.363 49.1267 89.1335 30.4667 112.443 102.327Z" fill="#F9D1AF"/>
<path d="M162.043 103.14C161.788 104.474 161.467 105.927 160.421 106.787C158.988 107.994 156.777 107.6 155.128 106.727C151.778 104.954 149.507 101.66 146.894 98.8869C145.763 97.6666 144.472 96.6037 143.055 95.7268L144.576 98.7335C144.878 99.2788 145.118 99.8556 145.293 100.454C145.455 101.11 145.455 101.797 145.293 102.454C145.266 102.604 145.204 102.745 145.112 102.867C144.971 103.008 144.792 103.105 144.596 103.147C143.771 103.357 142.922 103.463 142.07 103.46C140.577 103.617 139.067 103.479 137.628 103.054C137.213 102.9 136.75 102.614 136.71 102.167C136.656 101.547 137.44 101.2 138.05 101.12C138.901 101.12 139.705 101.014 140.542 101.12C141.695 101.227 141.655 101.32 141.661 100.127C141.661 98.4135 141.661 96.7202 141.614 94.9868C140.136 94.2824 138.474 94.0496 136.857 94.3202C133.708 94.9335 131.424 97.6068 129.662 100.267C127.9 102.927 126.271 105.887 123.591 107.587C120.57 109.467 115.21 109.087 114.714 104.92C114.178 100.487 116.771 95.0269 119.257 91.5335C122.599 86.8679 127.427 83.4618 132.958 81.8668C134.905 81.2531 136.957 81.0421 138.988 81.2468C141.219 81.5335 143.303 82.5268 145.333 83.5002L155.993 88.5935C157.822 89.4668 159.711 90.3868 160.978 91.9668C163.369 94.9935 162.766 99.3335 162.043 103.14Z" fill="url(#paint0_linear_15093_27155)"/>
<path d="M183.469 47.0534C183.523 47.5534 184.019 47.8734 184.401 48.2268C185.989 49.7401 185.319 52.5134 183.818 54.1134C182.317 55.7134 180.22 56.6201 178.545 58.0401C177.525 58.8457 176.844 60.0011 176.635 61.2801C176.341 63.0334 176.857 64.9201 176.924 66.8934C176.946 67.4478 176.921 68.0032 176.85 68.5534C176.221 73.2754 174.445 77.7739 171.677 81.6601C170.853 82.7734 169.768 83.9134 168.381 83.9734C166.137 84.0734 164.857 81.4934 164.254 79.3401C163.028 74.9682 162.132 70.5114 161.574 66.0068C161.359 64.3001 161.194 62.5912 161.078 60.8801C160.636 62.9468 157.628 63.4468 155.852 62.2868C155.752 62.2201 155.658 62.1534 155.557 62.0734C153.983 60.8801 153.165 58.9201 152.294 57.1201C151.356 55.2134 150.07 53.2201 148.013 52.6868C145.681 52.0934 143.323 52.6868 140.931 52.5934C137.266 52.4401 133.595 52.0334 129.936 51.7601C127.926 51.6134 125.916 51.4668 124.04 52.1801C123.382 52.4199 122.775 52.7819 122.252 53.2468C121.759 53.6629 121.375 54.191 121.131 54.7864C120.887 55.3817 120.791 56.0267 120.851 56.6668C117.139 56.5401 117.005 59.5068 114.258 62.0001C111.511 64.4934 106.607 66.7868 108.744 69.8068C110.969 72.9534 109.287 75.0268 109.079 78.7468C108.738 84.9201 106.828 90.8934 104.939 96.7934C102.071 92.7068 99.1567 88.5201 97.8703 83.7134C97.2003 81.2934 96.805 78.9201 96.3561 76.5868C95.6861 72.8668 94.8821 69.2068 93.0061 65.5468C92.177 64.1558 91.4536 62.7051 90.842 61.2068C90.0648 58.9201 90.172 56.4401 90.3328 54.0334C90.641 48.8934 91.0497 43.3668 94.2724 39.3668C95.4586 37.9267 96.9688 36.7848 98.681 36.0334C101.039 34.9268 103.559 34.2468 105.723 32.6001C106.873 31.6399 107.764 30.4095 108.316 29.0201C109.495 26.4001 110.151 23.2601 111.572 21.0201C114.129 17.1047 117.764 14.0036 122.044 12.0868C129.146 8.85344 137.3 8.65344 145.045 9.70677C151.457 10.5801 157.882 12.3268 163.209 15.9801C165.468 17.5997 167.584 19.4085 169.533 21.3868C174.311 26.0201 178.793 31.0201 185.104 32.7601C187.228 33.3534 189.727 33.6934 190.927 35.5334C192.126 37.3734 191.302 40.0868 189.741 41.7534C188.18 43.4201 186.062 44.4201 184.24 45.8068C183.892 46.1201 183.416 46.5401 183.469 47.0534Z" fill="#2A353F"/>
<path d="M101.542 60.8801C100.403 62.8801 99.5317 65.2801 100.349 67.4401C101.435 66.8201 102.533 66.2268 103.599 65.6268L96.3627 76.5601C95.6592 72.8401 94.8887 69.1801 93.0127 65.5201C92.1858 64.129 91.4646 62.6783 90.8553 61.1801C90.0714 58.8934 90.1852 56.4134 90.3393 54.0068C90.6475 48.8668 91.0629 43.3401 94.2856 39.3401C95.4692 37.9002 96.9773 36.7582 98.6876 36.0068C99.1656 36.2346 99.5955 36.5514 99.9539 36.9401C101.636 38.7668 102.051 41.6868 102.734 43.9668C103.78 47.4134 105.515 51.0934 104.644 54.7601C104.115 56.9934 102.667 58.8801 101.542 60.8801Z" fill="#2A353F"/>
<path d="M177.694 54.2268C176.2 56.2268 176.28 58.7335 176.622 61.2801C176.763 62.3268 176.93 63.3735 177.084 64.3735C177.259 65.2113 177.199 66.0807 176.91 66.8868C176.847 67.0271 176.771 67.1611 176.682 67.2868C175.604 68.7468 173.332 68.2868 171.631 67.6868C167.436 66.2068 164.354 66.5935 161.581 65.9735C159.631 65.5335 157.815 64.6401 155.852 62.2535C155.771 62.1658 155.673 62.0954 155.564 62.0468C153.983 60.8535 153.165 58.8868 152.294 57.0868C151.363 55.1801 150.077 53.1868 148.013 52.6601C145.681 52.0601 143.323 52.6601 140.931 52.5668C137.266 52.4068 133.561 52.0068 129.937 51.7335C127.927 51.5801 125.916 51.4401 124.047 52.1535C123.384 52.3972 122.774 52.7662 122.252 53.2401C121.454 53.0601 120.858 52.4935 120.563 51.2401C119.84 48.0735 121.026 43.6735 123.344 41.4135C125.662 39.1535 129.052 38.5601 132.275 38.2468C139.129 37.5801 146.472 37.8668 152.227 41.6135C154.867 43.3335 157.078 45.7068 159.885 47.1468C164.998 49.7601 171.115 48.8468 176.816 49.5335C177.781 49.6468 178.9 49.9335 179.262 50.8668C179.738 52.0468 178.485 53.1801 177.694 54.2268Z" fill="#2A353F"/>
<path d="M130.198 70.2935C129.459 68.829 128.393 67.552 127.082 66.5602C122.004 62.4335 114.942 60.6335 108.637 62.4268C107.413 62.7549 106.245 63.2651 105.173 63.9402C103.479 65.149 102.046 66.6837 100.959 68.4535C94.0514 78.6668 91.7399 91.2135 90.7617 103.447C90.5406 106.22 90.8421 109.167 89.7031 111.707C80.1757 132.954 59.4191 159.654 59.6737 162.08C67.1174 168.28 80.0618 176.78 85.9243 176.994C89.214 170.994 101.904 127.754 104.57 121.44C105.622 118.96 107.485 113.52 109.026 111.307C113.153 105.36 119.625 105.307 124.51 99.9735C125.799 98.6716 126.738 97.0663 127.236 95.3068C127.486 93.7769 127.524 92.2204 127.35 90.6802C127.165 86.9395 127.496 83.1911 128.335 79.5402C129.032 76.4668 131.632 73.4802 130.198 70.2935Z" fill="#F9D1AF"/>
<path d="M98.3325 80.8735H97.5553C96.053 80.8735 94.8351 82.0853 94.8351 83.5802V84.5335C94.8351 86.0284 96.053 87.2402 97.5553 87.2402H98.3325C99.8348 87.2402 101.053 86.0284 101.053 84.5335V83.5802C101.053 82.0853 99.8348 80.8735 98.3325 80.8735Z" fill="#2B46A6"/>
<path d="M98.8753 80.8735H98.0981C96.5958 80.8735 95.3779 82.0853 95.3779 83.5802V84.5335C95.3779 86.0284 96.5958 87.2402 98.0981 87.2402H98.8753C100.378 87.2402 101.596 86.0284 101.596 84.5335V83.5802C101.596 82.0853 100.378 80.8735 98.8753 80.8735Z" fill="#42484E"/>
<path d="M147.973 70.2935C148.715 68.8253 149.788 67.5476 151.109 66.5602C156.18 62.4335 163.249 60.6335 169.554 62.4268C170.776 62.7549 171.942 63.2652 173.011 63.9402C174.706 65.1472 176.14 66.6823 177.225 68.4535C184.126 78.6602 186.438 91.2135 187.423 103.447C187.644 106.22 187.335 109.167 188.474 111.707C198.002 132.947 212.44 143.567 212.192 145.994C216.467 159.7 197.452 167.994 189.707 167.287C186.418 161.287 176.307 127.747 173.627 121.427C172.582 118.947 170.719 113.507 169.178 111.294C165.051 105.347 158.592 105.327 153.695 99.9602C152.403 98.6594 151.465 97.0537 150.968 95.2935C150.719 93.7636 150.68 92.207 150.854 90.6668C151.036 86.9262 150.705 83.1783 149.869 79.5268C149.139 76.4668 146.559 73.4802 147.973 70.2935Z" fill="#F9D1AF"/>
<path d="M177.888 80.8735H177.111C175.609 80.8735 174.391 82.0853 174.391 83.5802V84.5335C174.391 86.0284 175.609 87.2402 177.111 87.2402H177.888C179.391 87.2402 180.609 86.0284 180.609 84.5335V83.5802C180.609 82.0853 179.391 80.8735 177.888 80.8735Z" fill="#2B46A6"/>
<path d="M177.259 80.8735H176.481C174.979 80.8735 173.761 82.0853 173.761 83.5802V84.5335C173.761 86.0284 174.979 87.2402 176.481 87.2402H177.259C178.761 87.2402 179.979 86.0284 179.979 84.5335V83.5802C179.979 82.0853 178.761 80.8735 177.259 80.8735Z" fill="#42484E"/>
<path d="M129.568 74C129.568 74 136.536 78.54 145.909 73.64V89.18C145.909 89.18 137.615 83.32 130.405 89.18L129.568 74Z" fill="#2B46A6"/>
<path d="M129.568 74C129.568 74 136.536 78.54 145.909 73.64V89.18C145.909 89.18 137.615 83.32 130.405 89.18L129.568 74Z" fill="#42484E"/>
<path d="M145.521 79.2267H130.653V83.9467H145.521V79.2267Z" fill="#505860"/>
<path opacity="0.69" d="M145.521 79.2267H130.653V83.9467H145.521V79.2267Z" fill="#505860"/>
<path d="M115.324 100.427C124.782 100.427 132.449 92.7978 132.449 83.3869C132.449 73.9759 124.782 66.3469 115.324 66.3469C105.866 66.3469 98.1985 73.9759 98.1985 83.3869C98.1985 92.7978 105.866 100.427 115.324 100.427Z" fill="#505860"/>
<path opacity="0.69" d="M115.324 100.427C124.782 100.427 132.449 92.7978 132.449 83.3869C132.449 73.9759 124.782 66.3469 115.324 66.3469C105.866 66.3469 98.1985 73.9759 98.1985 83.3869C98.1985 92.7978 105.866 100.427 115.324 100.427Z" fill="#505860"/>
<path d="M115.223 98.3C123.412 98.3 130.05 91.6947 130.05 83.5467C130.05 75.3987 123.412 68.7934 115.223 68.7934C107.035 68.7934 100.396 75.3987 100.396 83.5467C100.396 91.6947 107.035 98.3 115.223 98.3Z" fill="#F8F9FB"/>
<path d="M160.274 100.427C169.732 100.427 177.399 92.7978 177.399 83.3869C177.399 73.9759 169.732 66.3469 160.274 66.3469C150.816 66.3469 143.149 73.9759 143.149 83.3869C143.149 92.7978 150.816 100.427 160.274 100.427Z" fill="#505860"/>
<path opacity="0.69" d="M160.274 100.427C169.732 100.427 177.399 92.7978 177.399 83.3869C177.399 73.9759 169.732 66.3469 160.274 66.3469C150.816 66.3469 143.149 73.9759 143.149 83.3869C143.149 92.7978 150.816 100.427 160.274 100.427Z" fill="#505860"/>
<path d="M160.167 98.3C168.356 98.3 174.994 91.6947 174.994 83.5467C174.994 75.3987 168.356 68.7934 160.167 68.7934C151.978 68.7934 145.34 75.3987 145.34 83.5467C145.34 91.6947 151.978 98.3 160.167 98.3Z" fill="#F8F9FB"/>
<path d="M137.454 73.82H136.831C135.758 73.82 134.888 74.6856 134.888 75.7533V76.7333C134.888 77.8011 135.758 78.6667 136.831 78.6667H137.454C138.527 78.6667 139.397 77.8011 139.397 76.7333V75.7533C139.397 74.6856 138.527 73.82 137.454 73.82Z" fill="#505860"/>
<path opacity="0.69" d="M169.547 21.3935C169.049 21.9873 168.483 22.52 167.858 22.9801C163.443 26.1735 157.293 24.3135 152.227 22.3135C146.653 20.0601 141.012 17.7735 134.982 17.3935C128.952 17.0135 122.526 18.9068 118.902 23.6668C116.845 26.3335 115.183 30.2268 111.786 30.4135C111.14 30.4299 110.498 30.3134 109.9 30.0714C109.302 29.8293 108.76 29.4669 108.309 29.0068C109.481 26.3868 110.138 23.2468 111.558 21.0068C114.117 17.0926 117.752 13.9919 122.03 12.0735C129.139 8.86014 137.293 8.66681 145.032 9.71348C151.437 10.5868 157.869 12.3335 163.189 15.9868C165.46 17.6041 167.587 19.413 169.547 21.3935Z" fill="#2A353F"/>
<path opacity="0.69" d="M178.203 34.8868C180.113 36.1668 182.485 36.5335 184.783 36.6335C185.624 36.6276 186.462 36.7329 187.275 36.9468C187.681 37.0566 188.055 37.2615 188.365 37.5445C188.675 37.8276 188.912 38.1804 189.057 38.5735C189.113 39.0667 189.247 39.5481 189.453 40.0002C189.5 40.0685 189.568 40.12 189.647 40.1468C189.707 40.1469 189.767 40.1324 189.821 40.1045C189.874 40.0766 189.92 40.0363 189.955 39.9868C190.461 39.4269 190.771 38.7195 190.84 37.9699C190.909 37.2203 190.732 36.4686 190.337 35.8268C189.325 34.2735 187.302 33.8268 185.526 33.2335C183.269 32.5063 181.148 31.4139 179.248 30.0002C178.143 29.1735 175.59 27.4335 175.429 29.9202C175.302 31.8868 176.635 33.8402 178.203 34.8868Z" fill="url(#paint1_linear_15093_27155)"/>
<path opacity="0.69" d="M118.185 38.5602C119.009 36.7002 119.933 34.7868 121.495 33.4668C123.364 31.9002 125.883 31.3802 128.288 30.9935C131.048 30.4657 133.854 30.2155 136.663 30.2468C142.15 30.518 147.439 32.371 151.886 35.5802C155.51 38.1335 159.256 41.6202 163.644 41.0135C167.423 42.8735 162.143 48.1802 160.75 47.6135C157.902 46.4468 152.087 41.0468 149.266 39.8135C143.718 37.3868 137.434 37.5468 131.377 37.9535C129.933 37.9546 128.506 38.2519 127.183 38.8268C125.931 39.5757 124.876 40.611 124.108 41.8468C122.829 43.5465 121.886 45.4715 121.327 47.5202C120.945 49.0935 121.615 51.2002 119.531 50.4935C114.821 48.9135 116.892 41.5468 118.185 38.5602Z" fill="#2A353F"/>
<defs>
<linearGradient id="paint0_linear_15093_27155" x1="138.358" y1="112.287" x2="141.556" y2="-16.0806" gradientUnits="userSpaceOnUse">
<stop stop-opacity="0"/>
<stop offset="0.99"/>
</linearGradient>
<linearGradient id="paint1_linear_15093_27155" x1="4958.76" y1="-9570.32" x2="5787" y2="-9880.89" gradientUnits="userSpaceOnUse">
<stop offset="0.02" stop-color="white" stop-opacity="0"/>
<stop offset="0.58" stop-color="white" stop-opacity="0.39"/>
<stop offset="0.68" stop-color="white" stop-opacity="0.68"/>
<stop offset="1" stop-color="white"/>
</linearGradient>
</defs>
</svg>
