<svg width="193" height="200" viewBox="0 0 193 200" fill="none" xmlns="http://www.w3.org/2000/svg">
<g clip-path="url(#clip0_15093_27030)">
<path d="M174.881 109.665C176.854 120.776 201.105 136.262 170.58 174.79C152.853 197.166 130.801 185.389 125.551 186.905C117.114 189.343 109.85 198.973 101.094 199.514C91.1398 200.109 38.4562 203.485 16.6114 178.583C14.8666 176.608 13.3372 174.451 12.0492 172.15C3.61822 157.086 38.314 152.027 4.70839 117.102C-1.57785 110.563 -4.77134 67.9802 20.2196 54.2061C34.1548 46.5374 26.8495 42.8873 49.9563 13.9541C62.7895 -2.09684 93.4209 -4.09428 108.991 6.93328C110.611 8.0826 112.191 9.15662 113.731 10.1553C150.086 33.8631 166.752 20.636 184.906 46.7514C206.899 78.3835 172.316 95.2488 174.881 109.665Z" fill="#F3F6F9"/>
<path opacity="0.16" d="M133.208 131.255C130.565 142.223 146.568 166.181 103.193 189.157C78.0002 202.503 62.5186 182.826 57.1211 182.107C48.4234 180.918 37.9128 186.833 29.6772 183.789C27.3725 182.939 22.6267 181.197 16.6426 178.581C14.8979 176.606 13.3685 174.45 12.0805 172.149C3.64947 157.085 38.3453 152.026 4.73964 117.1C-1.54661 110.561 -4.74009 67.9788 20.2508 54.2048C34.1564 46.536 26.8511 42.8859 49.9579 13.9527C62.7911 -2.09818 93.4225 -4.09562 108.993 6.93193C110.612 8.08126 112.192 9.15528 113.733 10.154L114.011 10.6058C139.121 52.3738 161.173 45.1271 167.601 77.6807C175.055 115.513 136.632 117.017 133.208 131.255Z" fill="#1DBAA3"/>
<path d="M143.62 46.9933C143.62 46.9933 149.478 48.5576 148.835 50.2353C148.192 51.9131 145.497 53.6266 141.754 55.6088L141.887 57.5254C141.887 57.5254 151.778 54.4386 152.949 50.2771C153.283 49.0613 153.341 47.7825 153.118 46.5399C152.895 45.2973 152.397 44.1245 151.662 43.1124L143.62 46.9933Z" fill="#FFB800"/>
<path opacity="0.4" d="M143.62 46.9933C143.62 46.9933 149.478 48.5576 148.835 50.2353C148.192 51.9131 145.497 53.6266 141.754 55.6088L141.887 57.5254C141.887 57.5254 151.778 54.4386 152.949 50.2771C153.283 49.0613 153.341 47.7825 153.118 46.5399C152.895 45.2973 152.397 44.1245 151.662 43.1124L143.62 46.9933Z" fill="url(#paint0_linear_15093_27030)"/>
<path d="M142.09 40.5812C142.09 40.5812 138.092 43.0172 137.454 43.5665C136.817 44.1158 136.828 45.9069 138.341 47.7936C140.618 50.6237 142.501 49.9012 142.501 49.9012L146.354 45.7815L142.09 40.5812Z" fill="#FFB800"/>
<path d="M142.09 40.5812C142.09 40.5812 138.092 43.0172 137.454 43.5665C136.817 44.1158 136.828 45.9069 138.341 47.7936C140.618 50.6237 142.501 49.9012 142.501 49.9012L146.354 45.7815L142.09 40.5812Z" fill="url(#paint1_linear_15093_27030)"/>
<path d="M138.92 43.1723C142.554 36.8854 147.39 31.4252 153.134 27.1234C162.823 19.7856 177.135 14.3464 181.91 15.8987C186.684 17.4511 180.629 29.1236 160.76 40.3124C160.337 40.5453 157.486 42.1633 157.045 42.3603L143.226 48.3309C143.226 48.3309 140.63 48.1996 138.92 43.1723Z" fill="#FFB800"/>
<path d="M138.92 43.1723C142.554 36.8854 147.39 31.4252 153.134 27.1234C162.823 19.7856 177.135 14.3464 181.91 15.8987C186.684 17.4511 180.629 29.1236 160.76 40.3124C160.337 40.5453 157.486 42.1633 157.045 42.3603L143.226 48.3309C143.226 48.3309 140.63 48.1996 138.92 43.1723Z" fill="url(#paint2_linear_15093_27030)"/>
<path d="M146.975 32.5987C146.975 32.5987 142.681 28.2103 137.866 30.3836C133.051 32.5569 126.138 43.1547 126.138 43.1547L128.525 43.292C128.525 43.292 136.493 35.4944 137.93 36.1273C139.367 36.7602 139.483 42.1397 139.483 42.1397C139.483 42.1397 142.814 41.6979 145.184 37.6916C147.554 33.6854 146.975 32.5987 146.975 32.5987Z" fill="#FFB800"/>
<path d="M172.818 161.843C153.812 161.187 134.766 161.431 115.783 162.578C111.283 162.845 106.784 163.165 102.288 163.539C93.3293 164.273 84.2552 165.217 75.3954 163.856C74.6943 163.748 73.9874 163.629 73.2804 163.485C65.2087 161.891 57.2355 157.849 52.2697 151.264C54.6802 123.166 70.2615 105.027 76.9541 95.9581C88.1954 80.7451 133.514 44.8082 138.138 43.4529C142.722 42.1215 141.586 44.05 141.586 44.05L142.496 49.9011C141.592 50.54 70.4122 101.206 103.557 132.838C120.992 149.478 148.336 157.76 172.818 161.843Z" fill="url(#paint3_linear_15093_27030)"/>
<path opacity="0.6" d="M80.9869 141.088C72.2198 170.079 90.0378 187.079 115.783 199.117C111.282 199.465 106.784 199.884 102.287 200.373C93.3291 201.333 84.255 202.565 75.3952 200.786C70.5278 186.127 68.4418 172.701 68.7257 163.198C70.1917 110.873 135.911 45.1228 136.948 44.093C136.948 44.093 137.577 46.9116 138.773 48.1463C139.892 49.3003 142.406 49.9983 142.406 49.9983C141.647 50.3416 102.189 70.9283 80.9869 141.088Z" fill="#00B589"/>
<path d="M172.077 29.0162C173.846 29.0162 175.281 27.5379 175.281 25.7144C175.281 23.891 173.846 22.4127 172.077 22.4127C170.307 22.4127 168.872 23.891 168.872 25.7144C168.872 27.5379 170.307 29.0162 172.077 29.0162Z" fill="url(#paint4_linear_15093_27030)"/>
<path d="M172.076 28.4726C173.555 28.4726 174.753 27.2376 174.753 25.7142C174.753 24.1908 173.555 22.9558 172.076 22.9558C170.598 22.9558 169.399 24.1908 169.399 25.7142C169.399 27.2376 170.598 28.4726 172.076 28.4726Z" fill="#F8F9FB"/>
<path opacity="0.25" d="M97.9794 9.1969C97.9794 9.1969 117.241 34.1174 96.2671 55.3819L103.969 59.6621C103.969 59.6621 116.163 48.0282 115.161 36.2872C114.16 24.5463 112.501 18.3935 97.9794 9.1969Z" fill="url(#paint5_linear_15093_27030)"/>
<path d="M75.2044 174.801C75.2044 174.801 68.539 182.047 71.3948 185.644C74.2505 189.24 87.2911 196.701 90.6505 195.263C94.0098 193.824 93.761 189.021 91.6636 185.816C89.5662 182.612 87.1844 179.277 87.1844 179.277L75.2044 174.801Z" fill="#2A353F"/>
<path d="M135.679 164.967C135.679 164.967 135.549 171.554 138.197 174.788C140.845 178.022 161.091 170.626 161.653 167.868C162.216 165.11 159.005 162.03 153.708 161.959C150.709 161.98 147.739 161.373 144.987 160.175C144.987 160.175 135.134 159.718 135.679 164.967Z" fill="#2A353F"/>
<path opacity="0.49" d="M117.407 35.0568C117.407 40.8262 115.702 46.4662 112.507 51.2633C109.312 56.0605 104.772 59.7994 99.4594 62.0073C94.1469 64.2151 88.3013 64.7928 82.6616 63.6673C77.022 62.5417 71.8417 59.7634 67.7757 55.6838C63.7098 51.6041 60.9408 46.4064 59.819 40.7477C58.6972 35.0891 59.273 29.2238 61.4734 23.8935C63.6739 18.5632 67.4003 14.0073 72.1814 10.802C76.9624 7.59662 82.5834 5.88577 88.3335 5.88577C92.153 5.88029 95.936 6.63108 99.4658 8.09512C102.996 9.55916 106.203 11.7077 108.904 14.4175C111.604 17.1274 113.746 20.3454 115.205 23.887C116.664 27.4287 117.412 31.2244 117.407 35.0568Z" fill="#1DBAA3"/>
<path d="M103.951 59.6622C98.8038 62.9424 92.7591 64.5166 86.6715 64.1624C80.5838 63.8083 74.761 61.5437 70.0258 57.6886C70.0258 57.6886 77.1355 53.8601 88.3927 54.199C97.6591 54.5022 103.951 58.0571 103.951 59.6622Z" fill="#1DBAA3"/>
<path d="M150.876 95.193C149.986 96.4998 148.828 97.6004 147.479 98.4208C146.13 99.2411 144.622 99.7621 143.055 99.9488C140.041 100.299 137.001 100.379 133.972 100.187C119.273 99.3484 105.907 84.2546 105.907 84.2546C105.907 84.2546 106.309 102.909 110.457 107.225C114.604 111.541 126.418 112.254 133.972 116.309C142.072 120.66 145.159 140.623 146.415 151.87C147.41 160.918 146.64 164.117 141.675 166.138C138.327 167.505 134.992 166.893 134.055 159.955C130.098 130.547 108.851 133.412 104.336 131.254C103.489 130.85 102.855 130.868 102.375 131.218C101.261 132.033 101.024 134.654 101.024 137.9C101.024 140.665 101.196 143.881 101.149 146.817C101.013 154.659 95.7336 171.375 88.4164 178.247C86.0465 180.495 83.7121 181.131 81.6858 180.97C79.8028 180.765 78.0178 180.023 76.5431 178.83C75.9521 178.373 75.511 177.749 75.2766 177.038C75.0422 176.327 75.0252 175.562 75.2278 174.841C76.8215 169.122 79.8491 152.584 68.2069 135.29C53.7977 113.889 57.08 83.0359 57.08 83.0359C57.08 83.0359 49.3777 88.0949 45.2659 91.6737C41.1541 95.2524 45.337 106.904 44.389 110.209C42.1732 117.89 32.7349 116.921 32.7349 116.921C31.5959 116.885 30.4789 116.597 29.4646 116.075C28.4503 115.554 27.5639 114.814 26.8693 113.907C24.3927 110.828 22.639 104.627 25.3585 92.1433C30.3472 69.2619 62.7916 59.6432 69.0423 57.9906C69.7177 57.8122 70.085 57.729 70.085 57.729L104.011 59.6789C104.011 59.6789 127.538 78.2623 135.608 81.3833C139.188 82.7216 143.081 82.9779 146.806 82.1204C147.999 81.8533 149.249 82.0592 150.295 82.6951C151.34 83.331 152.1 84.3476 152.416 85.5327L152.523 85.9251C152.939 87.4969 153.008 89.1411 152.723 90.7422C152.439 92.3433 151.808 93.8624 150.876 95.193Z" fill="#2B46A6"/>
<path d="M150.876 95.193C149.986 96.4998 148.828 97.6004 147.479 98.4208C146.13 99.2411 144.622 99.7621 143.055 99.9488C140.041 100.299 137.001 100.379 133.972 100.187C119.273 99.3484 105.907 84.2546 105.907 84.2546C105.907 84.2546 106.309 102.909 110.457 107.225C114.604 111.541 126.418 112.254 133.972 116.309C142.072 120.66 145.159 140.623 146.415 151.87C147.41 160.918 146.64 164.117 141.675 166.138C138.327 167.505 134.992 166.893 134.055 159.955C130.098 130.547 108.851 133.412 104.336 131.254C103.489 130.85 102.855 130.868 102.375 131.218C101.261 132.033 101.024 134.654 101.024 137.9C101.024 140.665 101.196 143.881 101.149 146.817C101.013 154.659 95.7336 171.375 88.4164 178.247C86.0465 180.495 83.7121 181.131 81.6858 180.97C79.8028 180.765 78.0178 180.023 76.5431 178.83C75.9521 178.373 75.511 177.749 75.2766 177.038C75.0422 176.327 75.0252 175.562 75.2278 174.841C76.8215 169.122 79.8491 152.584 68.2069 135.29C53.7977 113.889 57.08 83.0359 57.08 83.0359C57.08 83.0359 49.3777 88.0949 45.2659 91.6737C41.1541 95.2524 45.337 106.904 44.389 110.209C42.1732 117.89 32.7349 116.921 32.7349 116.921C31.5959 116.885 30.4789 116.597 29.4646 116.075C28.4503 115.554 27.5639 114.814 26.8693 113.907C24.3927 110.828 22.639 104.627 25.3585 92.1433C30.3472 69.2619 62.7916 59.6432 69.0423 57.9906C69.7177 57.8122 70.085 57.729 70.085 57.729L104.011 59.6789C104.011 59.6789 127.538 78.2623 135.608 81.3833C139.188 82.7216 143.081 82.9779 146.806 82.1204C147.999 81.8533 149.249 82.0592 150.295 82.6951C151.34 83.331 152.1 84.3476 152.416 85.5327L152.523 85.9251C152.939 87.4969 153.008 89.1411 152.723 90.7422C152.439 92.3433 151.808 93.8624 150.876 95.193Z" fill="#1DBAA3"/>
<path opacity="0.45" d="M70.696 62.8305C70.696 62.8305 42.4819 72.5443 38.3464 83.6907C34.2109 94.8372 33.4169 102.684 33.4169 102.684L26.8522 113.908C24.3757 110.829 22.6219 104.628 25.3414 92.1442C30.3301 69.2627 62.7745 59.6441 69.0252 57.9915L70.696 62.8305Z" fill="#20AC98"/>
<path opacity="0.25" d="M103.951 59.6622C98.8038 62.9424 92.7591 64.5166 86.6715 64.1624C80.5838 63.8083 74.761 61.5437 70.0258 57.6886C70.0258 57.6886 77.1355 53.8601 88.3927 54.199C97.6591 54.5022 103.951 58.0571 103.951 59.6622Z" fill="url(#paint6_linear_15093_27030)"/>
<path d="M26.8514 113.908C26.8514 113.908 26.7625 102.94 35.6023 102.268C44.4422 101.596 44.3711 110.21 44.3711 110.21C44.3711 110.21 39.8801 118.402 32.7169 116.922C28.1844 115.988 26.8514 113.908 26.8514 113.908Z" fill="url(#paint7_linear_15093_27030)"/>
<path opacity="0.25" d="M81.6508 180.971C79.8103 180.772 78.0628 180.057 76.6087 178.908C75.9892 178.442 75.5238 177.8 75.2733 177.065C75.0228 176.331 74.9989 175.537 75.2046 174.788C76.8043 169.028 79.7785 152.537 68.1718 135.291C53.7626 113.89 57.0449 83.0367 57.0449 83.0367C57.0449 83.0367 66.6076 77.5912 68.6221 81.6278C70.6365 85.6643 64.6939 88.2978 69.0961 105.544C73.4982 122.789 78.8009 133.163 84.6013 143.792C90.4018 154.421 87.3979 179.253 81.6508 180.971Z" fill="#20AC98"/>
<path opacity="0.25" d="M80.1756 79.0062C80.1756 79.0062 94.9047 77.2643 98.9099 78.4474C102.915 79.6304 102.915 101.4 105.184 106.982C105.184 106.982 106.488 107.868 103.691 108.629C100.895 109.39 86.5093 113.563 83.8727 112.041C81.2362 110.519 78.4633 102.678 76.8814 97.6192C75.2995 92.5602 72.7755 82.4304 74.2863 80.6588C75.7972 78.8873 80.1756 79.0062 80.1756 79.0062Z" fill="#20AC98"/>
<path opacity="0.25" d="M150.728 83.037C150.728 83.037 148.21 82.6981 147.369 86.1164C146.528 89.5346 147.28 94.3083 148.163 95.2C149.046 96.0917 149.052 96.4603 150.876 95.2C152.701 93.9397 154.846 89.5168 154.846 89.5168C154.846 89.5168 155.225 82.3414 150.728 83.037Z" fill="url(#paint8_linear_15093_27030)"/>
<path d="M150.728 83.0365C150.936 85.456 149.377 90.6696 150.728 92.352C152.079 94.0343 165.825 92.5065 169.356 83.0365C172.887 73.5665 167.839 74.3869 166.642 74.5117C165.445 74.6366 157.755 79.7015 157.755 79.7015C157.755 79.7015 161.731 76.5389 159.965 75.2726C158.199 74.0064 150.521 80.611 150.728 83.0365Z" fill="#FFBA00"/>
<path d="M150.728 83.0365C150.936 85.456 149.377 90.6696 150.728 92.352C152.079 94.0343 165.825 92.5065 169.356 83.0365C172.887 73.5665 167.839 74.3869 166.642 74.5117C165.445 74.6366 157.755 79.7015 157.755 79.7015C157.755 79.7015 161.731 76.5389 159.965 75.2726C158.199 74.0064 150.521 80.611 150.728 83.0365Z" fill="#2A353F"/>
<path d="M30.5841 112.314C30.5841 112.314 32.7052 104.919 38.5945 107.089C44.4838 109.259 46.8004 115.661 46.7707 115.941C46.7411 116.22 46.1131 119.347 43.4706 117.647C40.8281 115.947 40.289 116.553 40.3542 116.844C40.4193 117.136 42.4871 122.284 45.4199 123.08C48.3527 123.877 45.7102 128.128 42.8841 128.098C40.0579 128.068 33.8783 125.964 33.2384 124.947C32.5986 123.931 28.2497 117.308 30.5841 112.314Z" fill="#FFBA00"/>
<path d="M30.5841 112.314C30.5841 112.314 32.7052 104.919 38.5945 107.089C44.4838 109.259 46.8004 115.661 46.7707 115.941C46.7411 116.22 46.1131 119.347 43.4706 117.647C40.8281 115.947 40.289 116.553 40.3542 116.844C40.4193 117.136 42.4871 122.284 45.4199 123.08C48.3527 123.877 45.7102 128.128 42.8841 128.098C40.0579 128.068 33.8783 125.964 33.2384 124.947C32.5986 123.931 28.2497 117.308 30.5841 112.314Z" fill="#2A353F"/>
<path opacity="0.25" d="M141.639 166.145C138.292 167.512 134.956 166.9 134.02 159.962C130.062 130.554 108.816 133.419 104.301 131.261C103.454 130.857 102.82 130.875 102.34 131.225C102.34 131.225 103.602 126.755 108.306 126.077C113.011 125.399 128.237 126.077 130.755 131.261C133.274 136.445 141.42 152.311 141.639 166.145Z" fill="#20AC98"/>
<path d="M150.876 95.1935C149.986 96.5003 148.828 97.6009 147.479 98.4213C146.13 99.2416 144.622 99.7626 143.055 99.9493C140.041 100.3 137.001 100.38 133.973 100.187C119.273 99.3489 105.907 84.2551 105.907 84.2551C105.717 80.2781 107.489 78.0428 107.489 78.0428C107.489 78.0428 120.162 89.213 130.341 92.9998C140.52 96.7867 151.356 88.8742 150.876 95.1935Z" fill="#20AC98"/>
<path d="M80.833 49.6388C80.833 49.6388 84.5775 58.6273 79.0556 60.274C73.5336 61.9207 86.7104 65.0298 90.9052 64.2213C95.1 63.4128 95.0526 62.8065 95.0526 62.8065C94.443 62.327 94.0166 61.6515 93.845 60.8936C93.6735 60.1358 93.7672 59.3418 94.1106 58.6451C95.1948 55.9759 80.833 49.6388 80.833 49.6388Z" fill="#F9D1AF"/>
<path d="M100.533 32.1846C100.533 32.1846 102.37 51.1485 99.4961 54.7153C96.6226 58.2822 92.3863 61.1416 85.2291 55.3455C78.0719 49.5493 75.5302 34.0929 80.6966 31.0551C85.8631 28.0174 95.0288 23.4518 100.533 32.1846Z" fill="#F9D1AF"/>
<path d="M91.3433 24.2128C91.3433 24.2128 85.1045 24.8073 81.5733 28.1958C78.0421 31.5844 77.971 31.9292 77.971 31.9292C77.971 31.9292 74.7597 31.4239 74.8249 34.3962C74.8901 37.3686 73.7525 37.1843 74.3865 40.662C75.0204 44.1397 81.5733 51.7431 81.5733 51.7431L78.7827 44.1932L80.1454 44.966C80.1454 44.966 78.2909 39.1402 81.0045 37.975C83.7181 36.8098 87.6284 33.7007 88.5705 33.5759C89.5125 33.451 97.8428 33.0706 98.8501 34.3368C99.6866 35.5636 100.394 36.8746 100.959 38.2485C100.959 38.2485 103.264 34.3368 102.192 31.299C101.119 28.2612 99.4959 27.1377 99.4959 27.1377L101.623 25.6931C101.623 25.6931 92.8601 22.8218 91.3433 24.2128Z" fill="#2A353F"/>
<path d="M80.1754 44.9662C80.1754 44.9662 76.585 42.4338 76.5376 44.9662C76.4902 47.4987 78.8601 49.3178 80.8627 49.6388C82.8653 49.9598 80.1754 44.9662 80.1754 44.9662Z" fill="#F9D1AF"/>
<path d="M68.6216 56.9388C68.6216 56.9388 66.5242 57.6284 66.8441 59.2454C67.1641 60.8624 77.8051 69.6428 90.8634 67.6989C103.922 65.7549 105.895 61.1596 105.895 61.1596C105.895 61.1596 106.386 59.186 103.939 59.6318C101.493 60.0777 82.4146 67.794 68.6216 56.9388Z" fill="#2B46A6"/>
<path d="M68.6216 56.9388C68.6216 56.9388 66.5242 57.6284 66.8441 59.2454C67.1641 60.8624 77.8051 69.6428 90.8634 67.6989C103.922 65.7549 105.895 61.1596 105.895 61.1596C105.895 61.1596 106.386 59.186 103.939 59.6318C101.493 60.0777 82.4146 67.794 68.6216 56.9388Z" fill="#20AC98"/>
<path d="M148.318 64.2569C148.302 64.3641 148.257 64.4648 148.188 64.5482C148.101 64.6195 147.997 64.6648 147.886 64.6789L145.705 65.1961L147.364 65.7906C147.502 65.8304 147.627 65.9063 147.726 66.0106C147.807 66.1464 147.842 66.3048 147.826 66.4624L147.856 68.2458L149.236 66.3494L150.658 67.5384L149.71 65.0059C150.357 64.8544 150.972 64.5865 151.523 64.2152L150.03 64.0547C149.112 63.9477 149.13 63.3651 148.798 62.6577C148.584 63.1729 148.423 63.7088 148.318 64.2569Z" fill="white"/>
<path d="M164.308 129.352C164.293 129.458 164.248 129.557 164.178 129.637C164.092 129.711 163.987 129.758 163.875 129.774L161.695 130.291L163.354 130.886C163.493 130.923 163.618 130.999 163.715 131.106C163.796 131.241 163.832 131.4 163.816 131.557L163.846 133.341L165.226 131.444L166.648 132.633L165.7 130.101C166.346 129.947 166.96 129.679 167.513 129.31L166.02 129.144C165.102 129.043 165.12 128.46 164.788 127.753C164.574 128.268 164.413 128.804 164.308 129.352Z" fill="white"/>
<path d="M40.9471 158.934C40.9323 159.039 40.887 159.139 40.8167 159.219C40.731 159.292 40.6262 159.34 40.5146 159.356L38.3342 159.873L39.9932 160.467C40.131 160.507 40.2558 160.583 40.3546 160.687C40.4357 160.823 40.471 160.982 40.4553 161.139V162.923L41.8417 161.026L43.2637 162.215L42.3157 159.683C42.9627 159.531 43.5769 159.263 44.1287 158.892L42.6357 158.726C41.7173 158.624 41.7351 158.042 41.4033 157.334C41.1948 157.85 41.0419 158.386 40.9471 158.934Z" fill="white"/>
<path d="M143.855 113.7C143.848 113.761 143.823 113.819 143.784 113.866C143.733 113.909 143.672 113.938 143.606 113.95L142.338 114.247L143.304 114.603C143.384 114.627 143.456 114.672 143.511 114.734C143.558 114.813 143.579 114.905 143.571 114.996V116.03L144.377 114.924L145.2 115.608L144.649 114.14C145.025 114.049 145.382 113.892 145.704 113.676L144.833 113.581C144.299 113.521 144.311 113.183 144.116 112.772C144 113.073 143.913 113.383 143.855 113.7Z" fill="white"/>
<path d="M111.393 165.532C111.373 165.636 111.329 165.734 111.263 165.818C111.176 165.892 111.069 165.94 110.955 165.954L108.781 166.472L110.439 167.066C110.578 167.105 110.703 167.181 110.801 167.286C110.882 167.422 110.917 167.58 110.902 167.738V169.521L112.288 167.625L113.71 168.814L112.762 166.281C113.408 166.127 114.022 165.86 114.575 165.491L113.076 165.324C112.164 165.223 112.181 164.641 111.85 163.933C111.641 164.448 111.488 164.984 111.393 165.532Z" fill="white"/>
<path d="M128.202 28.5885C128.196 28.6248 128.181 28.6592 128.161 28.6896C128.128 28.7114 128.092 28.7275 128.054 28.7371L127.319 28.9095L127.882 29.1176C127.928 29.1319 127.969 29.1587 128.001 29.1949C128.028 29.2395 128.04 29.2914 128.036 29.3435V29.938L128.504 29.2959L128.99 29.6883L128.664 28.8322C128.876 28.7777 129.076 28.6872 129.257 28.5647L128.753 28.5112C128.439 28.4756 128.445 28.2794 128.332 28.0356C128.273 28.2156 128.229 28.4007 128.202 28.5885Z" fill="white"/>
<path d="M121.892 49.2346C121.884 49.2699 121.868 49.3027 121.844 49.3297C121.814 49.3525 121.78 49.3687 121.744 49.3773L121.009 49.5497L121.566 49.7577C121.614 49.7704 121.657 49.7973 121.69 49.835C121.717 49.8799 121.729 49.9316 121.726 49.9836V50.5781L122.194 49.9361L122.674 50.3284L122.354 49.4724C122.566 49.4192 122.766 49.3287 122.946 49.2049L122.437 49.1514C122.129 49.1157 122.135 48.9195 122.022 48.6758C121.959 48.8568 121.915 49.0441 121.892 49.2346Z" fill="white"/>
<path d="M46.67 46.2147C46.6615 46.2496 46.6453 46.2821 46.6226 46.3098C46.5941 46.3348 46.5592 46.3513 46.5219 46.3574L45.7812 46.5298L46.3737 46.7378C46.422 46.7505 46.4653 46.7774 46.4982 46.8151C46.5225 46.8629 46.5347 46.916 46.5337 46.9697V47.5641L46.9958 46.9281L47.4757 47.3263L47.1558 46.4644C47.3676 46.4112 47.5682 46.3206 47.7483 46.1968L47.2388 46.1433C46.9307 46.1077 46.9366 45.9115 46.824 45.6737C46.7533 45.8479 46.7017 46.0293 46.67 46.2147Z" fill="white"/>
<path d="M28.4634 58.7104L29.9505 55.3813C29.787 56.2177 29.8799 57.0841 30.2171 57.8663C30.3955 58.2514 30.6826 58.5755 31.0428 58.7984C31.4029 59.0214 31.8204 59.1334 32.2434 59.1206C31.2955 59.1206 30.0631 59.3346 29.9209 60.268C29.832 60.8624 30.2112 61.7423 29.6424 61.9979L28.8367 60.0302C28.2399 60.377 27.5855 60.6126 26.9052 60.7257C27.1154 60.3324 27.4343 60.0083 27.8235 59.7924C27.2779 59.2081 26.8458 58.5266 26.5497 57.783C27.0727 58.0874 27.5463 58.4703 27.9539 58.9185" fill="white"/>
<path d="M49.1886 29.4443L49.633 28.4515C49.5797 28.6992 49.6067 28.9575 49.71 29.1887C49.7624 29.3017 49.8462 29.3971 49.9513 29.4635C50.0563 29.53 50.1783 29.5646 50.3025 29.5632C50.0181 29.5632 49.6508 29.6286 49.6093 29.908C49.6093 30.0923 49.6982 30.3479 49.5263 30.4193L49.2893 29.8248C49.1055 29.9283 48.9049 29.9987 48.6969 30.0329C48.7572 29.914 48.8523 29.8165 48.9694 29.7534C48.8085 29.5797 48.6801 29.3783 48.5902 29.159C48.7436 29.2519 48.8832 29.366 49.0049 29.4978" fill="white"/>
<path d="M74.7422 57.4088C76.6677 57.6645 77.6157 56.2199 78.0719 54.4365C78.3855 53.1896 78.4309 51.89 78.2051 50.6241C77.9794 49.3582 77.4876 48.1551 76.7625 47.0947C74.0075 42.9987 69.3269 33.6892 75.3465 23.9992C83.4102 11.0218 73.2906 12.4604 70.0141 15.95C51.0724 36.2395 70.2452 56.8144 74.7422 57.4088Z" fill="url(#paint9_linear_15093_27030)"/>
<path d="M85.865 14.8466C88.9831 14.3466 91.265 12.3985 90.9619 10.4954C90.6588 8.59233 87.8853 7.4549 84.7673 7.9549C81.6492 8.4549 79.3672 10.403 79.6703 12.3061C79.9734 14.2092 82.7469 15.3466 85.865 14.8466Z" fill="url(#paint10_linear_15093_27030)"/>
</g>
<defs>
<linearGradient id="paint0_linear_15093_27030" x1="149.888" y1="53.3569" x2="140.784" y2="42.3361" gradientUnits="userSpaceOnUse">
<stop stop-opacity="0"/>
<stop offset="0.95"/>
</linearGradient>
<linearGradient id="paint1_linear_15093_27030" x1="2753.54" y1="2026.5" x2="2898.89" y2="2026.5" gradientUnits="userSpaceOnUse">
<stop stop-opacity="0"/>
<stop offset="0.95"/>
</linearGradient>
<linearGradient id="paint2_linear_15093_27030" x1="164.819" y1="34.3549" x2="152.857" y2="20.2961" gradientUnits="userSpaceOnUse">
<stop offset="0.02" stop-color="white" stop-opacity="0"/>
<stop offset="0.32" stop-color="white" stop-opacity="0.39"/>
<stop offset="0.68" stop-color="white" stop-opacity="0.68"/>
<stop offset="1" stop-color="white"/>
</linearGradient>
<linearGradient id="paint3_linear_15093_27030" x1="8089.23" y1="26632.5" x2="33168.1" y2="26632.5" gradientUnits="userSpaceOnUse">
<stop offset="0.02" stop-color="white" stop-opacity="0"/>
<stop offset="0.32" stop-color="white" stop-opacity="0.39"/>
<stop offset="0.68" stop-color="white" stop-opacity="0.68"/>
<stop offset="1" stop-color="white"/>
</linearGradient>
<linearGradient id="paint4_linear_15093_27030" x1="2509.81" y1="912.861" x2="2461.49" y2="735.101" gradientUnits="userSpaceOnUse">
<stop offset="0.02" stop-color="white" stop-opacity="0"/>
<stop offset="0.32" stop-color="white" stop-opacity="0.39"/>
<stop offset="0.68" stop-color="white" stop-opacity="0.68"/>
<stop offset="1" stop-color="white"/>
</linearGradient>
<linearGradient id="paint5_linear_15093_27030" x1="110.967" y1="20.1888" x2="62.031" y2="93.6811" gradientUnits="userSpaceOnUse">
<stop stop-opacity="0"/>
<stop offset="0.91" stop-opacity="0.8"/>
<stop offset="1"/>
</linearGradient>
<linearGradient id="paint6_linear_15093_27030" x1="5900.81" y1="1083.23" x2="7843.39" y2="1083.23" gradientUnits="userSpaceOnUse">
<stop stop-opacity="0"/>
<stop offset="0.91" stop-opacity="0.8"/>
<stop offset="1"/>
</linearGradient>
<linearGradient id="paint7_linear_15093_27030" x1="2190.72" y1="2756.84" x2="1089.94" y2="3899.7" gradientUnits="userSpaceOnUse">
<stop stop-opacity="0"/>
<stop offset="0.91" stop-opacity="0.8"/>
<stop offset="1"/>
</linearGradient>
<linearGradient id="paint8_linear_15093_27030" x1="2576.29" y1="1917.19" x2="2522.05" y2="2315.86" gradientUnits="userSpaceOnUse">
<stop stop-opacity="0"/>
<stop offset="0.91" stop-opacity="0.8"/>
<stop offset="1"/>
</linearGradient>
<linearGradient id="paint9_linear_15093_27030" x1="46.6098" y1="38.2416" x2="160.134" y2="27.4368" gradientUnits="userSpaceOnUse">
<stop stop-color="white" stop-opacity="0"/>
<stop offset="1" stop-color="white"/>
</linearGradient>
<linearGradient id="paint10_linear_15093_27030" x1="2322.55" y1="66.5406" x2="2340.28" y2="329.272" gradientUnits="userSpaceOnUse">
<stop stop-color="white" stop-opacity="0"/>
<stop offset="1" stop-color="white"/>
</linearGradient>
<clipPath id="clip0_15093_27030">
<rect width="192" height="200" fill="white" transform="translate(0.26709)"/>
</clipPath>
</defs>
</svg>
