<svg width="249" height="200" viewBox="0 0 249 200" fill="none" xmlns="http://www.w3.org/2000/svg">
<g clip-path="url(#clip0_15093_27082)">
<path d="M54.1188 42.7281C39.4653 50.453 24.3671 58.5431 14.1535 71.4805C8.01981 79.259 3.93298 88.5181 1.78095 98.1525C-1.90535 114.597 0.823733 133.662 13.5051 144.971C17.9178 148.924 23.3149 151.714 28.8817 153.858C40.4208 158.294 52.824 160.109 65.1709 159.168C75.31 158.387 85.432 155.751 95.5201 157.007C107.825 158.535 118.568 165.637 130.031 170.313C144.274 176.102 159.784 178.189 175.077 176.376C178.934 175.914 182.837 175.174 186.228 173.305C190.254 171.084 193.237 167.456 196.411 164.139C203.567 156.633 212.008 150.431 221.346 145.818C226.244 143.4 231.434 141.393 235.687 137.99C246.889 129.045 248.807 113.04 248.155 98.8459C247.503 84.6523 244.262 68.9848 232.751 60.3654C230.182 58.4426 227.29 56.9519 224.798 54.9252C216.489 48.1651 214.004 36.849 208.682 27.5999C196.747 6.91754 170.118 -2.13728 146.144 0.422055C111.789 4.09021 83.6533 27.1611 54.1188 42.7281Z" fill="#F3F6F9"/>
<path d="M234.112 98.99C233.8 101.837 230.239 106.618 225.314 111.991C217.242 120.781 205.515 131.149 198.461 137.189C194.822 140.308 192.429 142.274 192.429 142.274V88.1598C192.429 88.1598 200.97 77.3663 207.175 76.6729C213.38 75.9795 225.901 83.1416 225.901 83.1416C225.901 83.1416 235.158 89.0877 234.112 98.99Z" fill="#904754"/>
<path d="M225.314 111.991C217.242 120.781 205.515 131.149 198.461 137.189C197.935 136.362 197.83 135.236 197.782 134.218C197.596 129.129 197.64 124.034 197.687 118.942C197.732 113.998 197.776 109.057 198.091 104.122C198.39 99.5261 198.96 94.8262 201.092 90.7225C201.573 91.147 201.97 91.6558 202.263 92.2233C204.948 96.7758 206.645 101.797 208.342 106.782C209.182 109.239 210.021 111.705 210.861 114.182C212.742 113.161 214.424 111.816 215.827 110.212C217.117 108.802 218.268 107.278 219.452 105.784C220.28 104.739 221.896 101.764 223.186 102.883C225.277 104.682 225.447 108.799 225.314 111.991Z" fill="url(#paint0_linear_15093_27082)"/>
<path d="M197.866 16.9104H63.6687C61.4596 16.9104 59.6687 18.7013 59.6687 20.9104V189.943C59.6687 192.152 61.4596 193.943 63.6687 193.943H197.866C200.075 193.943 201.866 192.153 201.866 189.943V20.9104C201.866 18.7013 200.075 16.9104 197.866 16.9104Z" fill="#1DBAA3"/>
<path d="M91.4435 64.9011H67.4283V88.6017H91.4435V64.9011Z" fill="white"/>
<path d="M116.793 64.9011H92.7775V88.6017H116.793V64.9011Z" fill="white"/>
<path d="M142.145 64.9011H118.13V88.6017H142.145V64.9011Z" fill="white"/>
<path d="M167.494 64.9011H143.479V88.6017H167.494V64.9011Z" fill="white"/>
<path d="M91.4435 89.6437H67.4283V113.344H91.4435V89.6437Z" fill="white"/>
<path d="M116.793 89.6437H92.7775V113.344H116.793V89.6437Z" fill="white"/>
<path d="M142.145 89.6437H118.13V113.344H142.145V89.6437Z" fill="white"/>
<path d="M167.494 89.6437H143.479V113.344H167.494V89.6437Z" fill="white"/>
<path d="M91.4435 114.386H67.4283V138.087H91.4435V114.386Z" fill="white"/>
<path d="M116.793 114.386H92.7775V138.087H116.793V114.386Z" fill="white"/>
<path d="M142.145 114.386H118.13V138.087H142.145V114.386Z" fill="white"/>
<path d="M167.494 114.386H143.479V138.087H167.494V114.386Z" fill="white"/>
<path d="M91.4435 139.129H67.4283V162.829H91.4435V139.129Z" fill="white"/>
<path d="M116.793 139.129H92.7775V162.829H116.793V139.129Z" fill="white"/>
<path d="M142.145 139.129H118.13V162.829H142.145V139.129Z" fill="white"/>
<path d="M167.494 139.129H143.479V162.829H167.494V139.129Z" fill="white"/>
<path d="M91.4435 163.871H67.4283V187.572H91.4435V163.871Z" fill="white"/>
<path d="M116.793 163.871H92.7775V187.572H116.793V163.871Z" fill="white"/>
<path d="M142.145 163.871H118.13V187.572H142.145V163.871Z" fill="white"/>
<path d="M192.42 64.9011H168.404V88.6017H192.42V64.9011Z" fill="white"/>
<path d="M192.42 40.1589H168.404V63.8595H192.42V40.1589Z" fill="white"/>
<path d="M167.494 40.1589H143.479V63.8595H167.494V40.1589Z" fill="white"/>
<path d="M192.42 89.6437H168.404V113.344H192.42V89.6437Z" fill="white"/>
<path d="M192.42 114.386H168.404V138.087H192.42V114.386Z" fill="white"/>
<path d="M192.42 139.129H168.404V162.829H192.42V139.129Z" fill="white"/>
<path d="M70.4391 10.4854V23.3357C70.4391 24.0291 71.3318 24.5919 72.4282 24.5919C73.528 24.5919 74.4173 24.0291 74.4173 23.3357V10.4854C74.4173 9.79197 73.528 9.22919 72.4282 9.22919C71.3318 9.22919 70.4391 9.79197 70.4391 10.4854Z" fill="#BCDBD6"/>
<path d="M89.4543 10.4854V23.3357C89.4543 24.0291 90.3437 24.5919 91.4434 24.5919C92.5432 24.5919 93.4325 24.0291 93.4325 23.3357V10.4854C93.4325 9.79197 92.5432 9.22919 91.4434 9.22919C90.3437 9.22919 89.4543 9.79197 89.4543 10.4854Z" fill="#BCDBD6"/>
<path d="M108.47 10.4854V23.3357C108.47 24.0291 109.359 24.5919 110.459 24.5919C111.558 24.5919 112.448 24.0291 112.448 23.3357V10.4854C112.448 9.79197 111.558 9.22919 110.459 9.22919C109.359 9.22919 108.47 9.79197 108.47 10.4854Z" fill="#BCDBD6"/>
<path d="M127.485 10.4854V23.3357C127.485 24.0291 128.374 24.5919 129.474 24.5919C130.57 24.5919 131.463 24.0291 131.463 23.3357V10.4854C131.463 9.79197 130.57 9.22919 129.474 9.22919C128.374 9.22919 127.485 9.79197 127.485 10.4854Z" fill="#BCDBD6"/>
<path d="M146.497 10.4854V23.3357C146.497 24.0291 147.39 24.5919 148.49 24.5919C149.586 24.5919 150.479 24.0291 150.479 23.3357V10.4854C150.479 9.79197 149.586 9.22919 148.49 9.22919C147.39 9.22919 146.497 9.79197 146.497 10.4854Z" fill="#BCDBD6"/>
<path d="M165.512 10.4854V23.3357C165.512 24.0291 166.405 24.5919 167.501 24.5919C168.601 24.5919 169.494 24.0291 169.494 23.3357V10.4854C169.494 9.79197 168.601 9.22919 167.501 9.22919C166.405 9.22919 165.512 9.79197 165.512 10.4854Z" fill="#BCDBD6"/>
<path d="M184.12 10.4854V23.3357C184.12 24.0291 185.013 24.5919 186.109 24.5919C187.209 24.5919 188.098 24.0291 188.098 23.3357V10.4854C188.098 9.79197 187.209 9.22919 186.109 9.22919C185.013 9.22919 184.12 9.79197 184.12 10.4854Z" fill="#BCDBD6"/>
<path d="M149.026 43.6327C149.026 44.0057 148.915 44.3706 148.705 44.6811C148.496 44.9916 148.198 45.2339 147.849 45.3772C147.5 45.5206 147.116 45.5586 146.745 45.4865C146.374 45.4143 146.033 45.2353 145.766 44.972C145.498 44.7087 145.315 44.373 145.241 44.0073C145.166 43.6416 145.204 43.2623 145.348 42.9174C145.492 42.5725 145.736 42.2776 146.05 42.0698C146.364 41.862 146.733 41.7507 147.111 41.7501C147.618 41.7501 148.104 41.9482 148.462 42.3011C148.821 42.6539 149.024 43.1328 149.026 43.6327Z" fill="#EA3C47"/>
<path d="M149.026 68.3785C149.026 68.7515 148.915 69.1163 148.705 69.4269C148.496 69.7374 148.198 69.9796 147.849 70.123C147.5 70.2664 147.116 70.3044 146.745 70.2323C146.374 70.1601 146.033 69.9811 145.766 69.7178C145.498 69.4545 145.315 69.1188 145.241 68.7531C145.166 68.3874 145.204 68.0081 145.348 67.6632C145.492 67.3183 145.736 67.0233 146.05 66.8156C146.364 66.6078 146.733 66.4965 147.111 66.4958C147.618 66.4958 148.104 66.694 148.462 67.0469C148.821 67.3997 149.024 67.8786 149.026 68.3785Z" fill="#FFBA00"/>
<path d="M153.693 68.3785C153.693 68.7515 153.582 69.1163 153.373 69.4269C153.163 69.7374 152.865 69.9796 152.516 70.123C152.167 70.2664 151.783 70.3044 151.412 70.2323C151.041 70.1601 150.701 69.9811 150.433 69.7178C150.165 69.4545 149.983 69.1188 149.908 68.7531C149.834 68.3874 149.871 68.0081 150.015 67.6632C150.159 67.3183 150.403 67.0233 150.717 66.8156C151.031 66.6078 151.4 66.4965 151.778 66.4958C152.285 66.4958 152.771 66.694 153.13 67.0469C153.488 67.3997 153.691 67.8786 153.693 68.3785Z" fill="#FFBA00"/>
<path d="M158.387 68.3785C158.388 68.7515 158.277 69.1163 158.067 69.4269C157.858 69.7374 157.56 69.9796 157.211 70.123C156.862 70.2664 156.478 70.3044 156.107 70.2323C155.736 70.1601 155.395 69.9811 155.128 69.7178C154.86 69.4545 154.677 69.1188 154.603 68.7531C154.528 68.3874 154.566 68.0081 154.71 67.6632C154.854 67.3183 155.098 67.0233 155.412 66.8156C155.726 66.6078 156.095 66.4965 156.473 66.4958C156.98 66.4958 157.466 66.694 157.824 67.0469C158.183 67.3997 158.386 67.8786 158.387 68.3785Z" fill="#EA3C47"/>
<path d="M149.025 118.218C149.025 118.592 148.913 118.956 148.703 119.266C148.493 119.576 148.195 119.818 147.846 119.961C147.497 120.104 147.112 120.141 146.742 120.068C146.371 119.996 146.03 119.816 145.763 119.552C145.496 119.288 145.314 118.952 145.24 118.586C145.166 118.221 145.204 117.841 145.349 117.497C145.493 117.152 145.738 116.858 146.053 116.65C146.367 116.443 146.736 116.332 147.114 116.332C147.62 116.332 148.106 116.531 148.463 116.884C148.821 117.237 149.022 117.716 149.022 118.215L149.025 118.218Z" fill="#EA3C47"/>
<path d="M71.4606 120.101C72.5142 120.101 73.3682 119.258 73.3682 118.219C73.3682 117.179 72.5142 116.336 71.4606 116.336C70.4071 116.336 69.553 117.179 69.553 118.219C69.553 119.258 70.4071 120.101 71.4606 120.101Z" fill="#EA3C47"/>
<path d="M153.693 118.218C153.693 118.592 153.581 118.956 153.371 119.266C153.161 119.576 152.862 119.818 152.513 119.961C152.164 120.104 151.78 120.141 151.409 120.068C151.038 119.996 150.698 119.816 150.43 119.552C150.163 119.288 149.981 118.952 149.907 118.586C149.834 118.221 149.872 117.841 150.016 117.497C150.161 117.152 150.406 116.858 150.72 116.65C151.034 116.443 151.404 116.332 151.782 116.332C152.288 116.332 152.773 116.531 153.131 116.884C153.488 117.237 153.689 117.716 153.689 118.215L153.693 118.218Z" fill="#FFBA00"/>
<path d="M158.387 118.218C158.387 118.592 158.275 118.956 158.065 119.266C157.855 119.576 157.557 119.818 157.208 119.961C156.859 120.104 156.474 120.141 156.104 120.068C155.733 119.996 155.392 119.816 155.125 119.552C154.858 119.288 154.676 118.952 154.602 118.586C154.528 118.221 154.566 117.841 154.711 117.497C154.856 117.152 155.1 116.858 155.415 116.65C155.729 116.443 156.098 116.332 156.476 116.332C156.982 116.332 157.468 116.531 157.825 116.884C158.183 117.237 158.384 117.716 158.384 118.215L158.387 118.218Z" fill="#EA3C47"/>
<path d="M233.885 67.5676C233.352 69.7182 234.065 72.6997 233.054 74.6728C231.356 77.9892 226.394 80.1901 225.661 83.8315C225.616 84.0425 220.094 86.6688 217.246 85.7711C215.756 85.3054 214.999 83.8717 216.146 80.6289C216.506 79.624 218.522 79.2488 219.065 78.3141L218.953 78.2304C216.197 76.1769 215.898 71.8253 216.469 68.921C217.039 66.0166 218.346 63.2261 219.748 60.573C220.827 58.5295 223.264 57.4207 225.6 57.4576C228.536 57.5078 231.635 58.6669 233.162 61.1425C234.33 63.0285 234.415 65.417 233.885 67.5676Z" fill="#F9D1AF"/>
<path d="M220.321 51.9236C218.817 52.7075 217.219 53.6321 215.535 53.3808C215.491 53.7799 215.557 54.1832 215.726 54.5485C215.894 54.9139 216.159 55.2279 216.492 55.4578L215.447 55.6889C215.404 55.6919 215.362 55.7043 215.324 55.7252C215.287 55.746 215.254 55.7748 215.229 55.8095C215.216 55.8469 215.212 55.8866 215.216 55.926C215.22 55.9653 215.233 56.0033 215.253 56.0373C215.511 56.6295 215.933 57.1372 216.472 57.5012C216.285 57.8965 215.61 57.8094 215.379 58.1712C215.33 58.2764 215.305 58.3906 215.305 58.5062C215.305 58.6218 215.33 58.736 215.379 58.8412C215.612 59.466 216.011 60.0177 216.533 60.4391C215.908 61.1091 216.299 62.3485 217.161 62.6534C217.604 62.7755 218.078 62.726 218.486 62.5149C218.893 62.3039 219.204 61.9472 219.354 61.5178C219.392 61.9052 219.302 62.2945 219.096 62.6266C221.944 63.0688 224.988 63.4842 227.609 62.2916C227.486 62.5593 227.419 62.8487 227.412 63.1425C228.044 63.3378 228.715 63.3792 229.367 63.2631C229.503 64.6429 229.377 66.0355 228.997 67.3701C228.763 68.2008 228.427 69.0048 228.277 69.8524C228.082 70.7111 228.237 71.6112 228.709 72.3581C229.16 72.3179 229.479 71.8991 229.652 71.4871C229.777 71.0578 229.966 70.6491 230.212 70.2744C230.891 69.4906 232.303 69.7787 232.85 70.6463C233.396 71.5139 233.189 72.6797 232.666 73.554C232.343 74.0695 231.916 74.514 231.412 74.8597C230.907 75.2055 230.336 75.4452 229.734 75.564C229.832 76.4986 229.934 77.4332 230.032 78.3645C231.821 76.6895 233.824 75.2524 235.433 73.42C237.042 71.5876 238.26 69.2427 238.053 66.824C237.928 65.3333 237.269 63.9163 237.218 62.4189C237.194 61.7489 237.296 61.0622 237.269 60.3855C237.206 59.3073 236.823 58.2711 236.169 57.4057C235.514 56.5403 234.616 55.8839 233.586 55.5181C232.721 55.2266 231.767 55.1429 231 54.6504C230.046 54.0408 229.55 52.9051 228.603 52.2821C227.585 51.6121 226.003 51.3374 224.819 51.0057C223.278 50.5836 221.675 51.2235 220.321 51.9236Z" fill="#2A353F"/>
<path d="M198.967 83.6206C198.846 83.6939 198.742 83.7913 198.661 83.9067C198.581 84.0221 198.525 84.1528 198.499 84.2906C198.512 84.4349 198.573 84.5711 198.671 84.6786C198.77 84.7861 198.901 84.8592 199.045 84.8869C199.335 84.9372 199.633 84.9235 199.918 84.8467L201.642 84.5117C200.711 85.0253 199.938 85.7776 199.405 86.6891C199.342 86.7942 199.312 86.9151 199.317 87.037C199.322 87.1589 199.364 87.2766 199.436 87.3759C199.666 87.6639 200.057 87.5501 200.369 87.4295L201.866 86.8399L200.848 87.8147C200.531 88.0957 200.255 88.418 200.026 88.7728C199.927 88.9386 199.854 89.1182 199.809 89.3054C199.781 89.4235 199.801 89.5476 199.864 89.6515C199.928 89.7553 200.03 89.8307 200.148 89.8615C200.226 89.885 200.309 89.885 200.386 89.8615C201.008 89.6872 201.586 89.3859 202.083 88.9771C201.716 89.4869 201.306 89.9653 200.858 90.4075C200.409 90.8531 200.156 91.4545 200.152 92.0825C200.154 92.15 200.176 92.2154 200.216 92.2701C200.266 92.3199 200.332 92.3507 200.403 92.3572C200.956 92.4476 201.459 92.049 201.876 91.6872L203.414 90.3104C203.662 90.1101 203.88 89.8767 204.062 89.617C204.164 89.4668 204.222 89.2917 204.229 89.1111C204.213 88.9344 204.127 88.771 203.99 88.6567C203.852 88.5424 203.674 88.4866 203.495 88.5014C203.387 88.512 203.282 88.5476 203.19 88.6053C203.234 88.3138 203.349 88.0425 203.421 87.7577C203.508 87.4771 203.489 87.1744 203.366 86.9069C203.3 86.7762 203.187 86.675 203.048 86.6234C202.91 86.5718 202.757 86.5738 202.62 86.6288C202.8 86.2801 202.915 85.9022 202.959 85.5133C202.977 85.3168 202.94 85.1192 202.852 84.942C202.764 84.7648 202.628 84.6148 202.46 84.5083C202.368 84.4708 202.283 84.4175 202.209 84.3509C202.073 84.1867 202.182 83.9522 202.239 83.7479C202.284 83.6276 202.304 83.4998 202.298 83.3719C202.292 83.244 202.261 83.1184 202.206 83.0024C202.152 82.8864 202.074 82.7821 201.978 82.6956C201.883 82.6092 201.771 82.5421 201.649 82.4984C201.512 82.4506 201.366 82.4323 201.221 82.4448C200.345 82.5352 199.616 83.0779 198.967 83.6206Z" fill="#F9D1AF"/>
<path d="M226.818 96.2061C230.722 92.8026 235.555 95.382 233.858 100.243C230.189 110.758 222.507 134.851 215.213 134.851C205.708 134.851 201.866 118.218 201.866 118.218L206.255 109.452C206.255 109.452 212.463 122.895 215.589 119.257C218.716 115.619 220.562 101.837 226.638 96.3635L226.818 96.2061Z" fill="#984B59"/>
<path d="M204.816 108.872C204.758 108.092 204.744 107.309 204.775 106.527C204.754 103.115 203.734 99.7817 201.835 96.9297C201.635 97.2127 201.549 97.5591 201.594 97.9012L201.645 106.799C201.675 107.537 201.625 108.275 201.496 109.003C201.38 109.532 201.184 110.038 201.031 110.561C200.708 111.647 200.593 112.783 200.691 113.91C200.721 114.516 200.886 115.108 201.177 115.642C201.326 115.908 201.537 116.135 201.791 116.305C202.046 116.475 202.338 116.583 202.643 116.621C202.843 116.621 203.661 114.946 203.78 114.718C204.145 114.048 204.484 113.372 204.799 112.691C205.033 112.175 205.532 111.415 205.443 110.835C205.345 110.185 204.897 109.586 204.816 108.872Z" fill="#F9D1AF"/>
<path d="M222.955 80.5857C222.134 81.4969 221.319 82.4114 220.498 83.326C219.87 84.1053 219.124 84.7834 218.285 85.3359C217.959 85.5261 217.61 85.6747 217.246 85.7781C215.756 85.3125 214.999 83.8787 216.146 80.636C216.506 79.631 218.522 79.2558 219.065 78.3212L218.953 78.2374C219.344 78.419 219.755 78.5518 220.179 78.6327C221.061 78.7634 223.234 78.0867 223.502 79.3764C223.597 79.8219 223.278 80.2407 222.955 80.5857Z" fill="#EDC5A4"/>
<path d="M122.811 151.66L126.233 156.906C126.386 157.139 126.626 157.304 126.902 157.363C127.177 157.422 127.465 157.371 127.703 157.221C127.787 157.165 127.863 157.098 127.93 157.023L137.353 146.303C137.486 146.152 137.573 145.966 137.602 145.768C137.632 145.569 137.603 145.367 137.519 145.184C137.434 145.001 137.299 144.847 137.128 144.738C136.957 144.629 136.758 144.571 136.555 144.571H136.477C136.322 144.571 136.168 144.605 136.027 144.669C135.887 144.734 135.762 144.829 135.662 144.946L128.29 153.656C128.111 153.868 127.854 154.002 127.575 154.028C127.297 154.053 127.019 153.969 126.803 153.794C126.722 153.726 126.651 153.647 126.593 153.559L124.587 150.544C124.475 150.377 124.317 150.245 124.132 150.164C123.947 150.083 123.742 150.055 123.541 150.085C123.372 150.114 123.212 150.182 123.076 150.285C122.94 150.388 122.831 150.522 122.759 150.676C122.687 150.83 122.655 150.998 122.664 151.167C122.673 151.337 122.723 151.501 122.811 151.646V151.66Z" fill="#3EC885"/>
<path d="M81.7917 176.517L86.0991 180.701C86.2506 180.849 86.3543 181.037 86.3969 181.243C86.4395 181.449 86.4191 181.662 86.3383 181.857C86.2575 182.051 86.12 182.217 85.9432 182.334C85.7664 182.451 85.5584 182.514 85.3456 182.513H85.1623C84.8776 182.513 84.6045 182.403 84.4019 182.205L80.2099 178.065C80.0083 177.867 79.7355 177.756 79.4512 177.756C79.1669 177.756 78.8942 177.867 78.6926 178.065L74.5005 182.205C74.4011 182.303 74.283 182.381 74.1531 182.434C74.0233 182.487 73.8841 182.514 73.7436 182.513H73.5569C73.3441 182.514 73.136 182.451 72.9593 182.334C72.7825 182.217 72.645 182.051 72.5642 181.857C72.4834 181.662 72.463 181.449 72.5056 181.243C72.5482 181.037 72.6518 180.849 72.8033 180.701L77.1142 176.517C77.314 176.32 77.4263 176.052 77.4263 175.773C77.4263 175.494 77.314 175.227 77.1142 175.03L72.7626 170.735C72.6132 170.587 72.5115 170.399 72.4704 170.194C72.4293 169.989 72.4505 169.777 72.5314 169.583C72.6124 169.39 72.7494 169.225 72.9252 169.109C73.1011 168.993 73.3078 168.93 73.5196 168.93C73.8001 168.929 74.0696 169.037 74.2697 169.231L78.6824 173.526C78.883 173.72 79.153 173.829 79.4343 173.829C79.7155 173.829 79.9855 173.72 80.1861 173.526L84.5988 169.231C84.7989 169.037 85.0684 168.929 85.349 168.93C85.561 168.929 85.7682 168.991 85.9446 169.108C86.1209 169.224 86.2585 169.389 86.3398 169.582C86.4212 169.775 86.4427 169.988 86.4017 170.193C86.3606 170.398 86.2589 170.587 86.1093 170.735L81.7577 175.03C81.5606 175.23 81.452 175.499 81.4558 175.778C81.4596 176.057 81.5755 176.323 81.7781 176.517H81.7917Z" fill="#EA3C47"/>
<path d="M44.645 164.119H45.6973L46.2234 187.589L45.6973 183.723H44.645V164.119Z" fill="#1DBAA3"/>
<path d="M45.6975 172.675V172.702C45.6975 173.435 45.4327 174.169 45.151 175.046C43.2977 175.576 42.0621 176.001 40.2427 174.145C38.4233 172.289 36.5463 168.702 37.1403 166.889C38.9936 166.36 42.6052 168.286 44.428 170.142C45.3716 171.09 45.6907 171.884 45.6975 172.675Z" fill="#1DBAA3"/>
<path d="M51.1251 174.159C49.4551 175.757 48.2806 175.542 46.7498 175.06V183.723H45.6975V164.119H46.7498V170.353C46.8482 170.246 46.9534 170.139 47.0688 170.018C48.9493 168.223 52.5847 166.367 54.4211 166.957C54.9608 168.796 53.0056 172.36 51.1251 174.159Z" fill="#2B46A6"/>
<path d="M51.1251 174.159C49.4551 175.757 48.2806 175.542 46.7498 175.06V183.723H45.6975V164.119H46.7498V170.353C46.8482 170.246 46.9534 170.139 47.0688 170.018C48.9493 168.223 52.5847 166.367 54.4211 166.957C54.9608 168.796 53.0056 172.36 51.1251 174.159Z" fill="#1DA490"/>
<path d="M45.6973 159.386H40.9995C40.9995 162.679 43.1006 165.349 45.6939 165.349L46.8005 162.424L45.6973 159.386Z" fill="#1DBAA3"/>
<path d="M45.779 160.528L45.6975 160.585V160.25L45.779 160.528Z" fill="#2B46A6"/>
<path d="M36.8043 152.669C36.2103 154.481 38.0874 158.073 39.9102 159.925C41.733 161.778 42.9651 161.359 44.8151 160.826C45.4091 159.014 45.9148 157.778 44.0921 155.922C42.2693 154.066 38.6577 152.14 36.8043 152.669Z" fill="#1DBAA3"/>
<path d="M50.7889 159.948C50.6328 160.099 50.4801 160.233 50.3307 160.354C49.9675 163.188 48.0293 165.348 45.6974 165.348V160.585L45.7789 160.528L45.6974 160.246V160.581C45.5906 160.656 45.477 160.721 45.3579 160.776C43.6879 159.821 42.337 156.783 42.4456 154.2C42.5542 151.617 43.8712 147.798 45.6091 146.967C47.2792 147.922 48.3688 151.825 48.2703 154.411V154.602C50.1949 153.299 52.683 152.3 54.0985 152.753C54.6246 154.588 52.666 158.149 50.7889 159.948Z" fill="#2B46A6"/>
<path d="M50.7889 159.948C50.6328 160.099 50.4801 160.233 50.3307 160.354C49.9675 163.188 48.0293 165.348 45.6974 165.348V160.585L45.7789 160.528L45.6974 160.246V160.581C45.5906 160.656 45.477 160.721 45.3579 160.776C43.6879 159.821 42.337 156.783 42.4456 154.2C42.5542 151.617 43.8712 147.798 45.6091 146.967C47.2792 147.922 48.3688 151.825 48.2703 154.411V154.602C50.1949 153.299 52.683 152.3 54.0985 152.753C54.6246 154.588 52.666 158.149 50.7889 159.948Z" fill="#1DA490"/>
<path d="M45.779 160.528L45.6975 160.585V160.25L45.779 160.528Z" fill="#2B46A6"/>
<path d="M36.4136 180.731L38.07 193.943H45.7311L48.8608 186.426L45.7311 180.363L36.4136 180.731Z" fill="#2B46A6"/>
<path d="M55.0524 180.731L53.3959 193.943H45.7314V180.363L55.0524 180.731Z" fill="#2B46A6"/>
<path d="M49.1461 180.453L49.0612 180.493L46.4611 181.766L45.7517 182.121H35.4023C35.0899 182.121 34.7903 181.999 34.5694 181.781C34.3485 181.563 34.2244 181.267 34.2244 180.959V178.004C34.2231 177.868 34.249 177.732 34.3009 177.605C34.3527 177.478 34.4293 177.362 34.5264 177.265C34.6235 177.167 34.7391 177.089 34.8667 177.036C34.9942 176.982 35.1313 176.954 35.2699 176.953H35.3683L45.7517 176.973L49.1461 180.453Z" fill="#2B46A6"/>
<path d="M49.1461 180.453L49.0612 180.493L46.4611 181.766L45.7517 182.121H35.4023C35.0899 182.121 34.7903 181.999 34.5694 181.781C34.3485 181.563 34.2244 181.267 34.2244 180.959V178.004C34.2231 177.868 34.249 177.732 34.3009 177.605C34.3527 177.478 34.4293 177.362 34.5264 177.265C34.6235 177.167 34.7391 177.089 34.8667 177.036C34.9942 176.982 35.1313 176.954 35.2699 176.953H35.3683L45.7517 176.973L49.1461 180.453Z" fill="#967F6D"/>
<path d="M56.0639 182.122H45.7314V176.842H56.0639C56.3763 176.842 56.6759 176.965 56.8968 177.183C57.1177 177.401 57.2418 177.696 57.2418 178.005V180.959C57.2418 181.268 57.1177 181.563 56.8968 181.781C56.6759 181.999 56.3763 182.122 56.0639 182.122Z" fill="#2B46A6"/>
<path d="M45.7348 182.121V193.943H38.0703L36.5869 182.121H45.7348Z" fill="#BAA38F"/>
<path d="M54.8791 182.121L53.3957 193.943H45.7346V182.121H54.8791Z" fill="#AB9481"/>
<path d="M57.2417 178.139V181.093C57.2417 181.402 57.1176 181.697 56.8967 181.915C56.6758 182.133 56.3762 182.256 56.0638 182.256H45.7517V176.976H56.0808C56.3902 176.981 56.6855 177.105 56.9027 177.323C57.1199 177.54 57.2417 177.833 57.2417 178.139Z" fill="#7E6E60"/>
<path opacity="0.8" d="M38.963 193.969L19.4929 200.882C19.3288 200.885 19.1669 200.95 19.0171 201.074C18.8673 201.197 18.7328 201.377 18.6221 201.601C18.5114 201.825 18.4268 202.089 18.3735 202.376C18.3203 202.663 18.2996 202.968 18.3126 203.27C18.3257 203.573 18.3723 203.868 18.4496 204.135C18.5268 204.403 18.633 204.639 18.7615 204.828C18.8901 205.016 19.0382 205.154 19.1968 205.232C19.3553 205.31 19.5208 205.327 19.683 205.281H19.7407H239.649C239.959 205.305 240.261 205.104 240.492 204.721C240.723 204.338 240.865 203.804 240.886 203.231C240.908 202.658 240.808 202.093 240.608 201.654C240.408 201.215 240.124 200.938 239.815 200.882L211.435 194.271H211.272L39.2108 193.957C39.1282 193.945 39.0452 193.949 38.963 193.969Z" fill="#CBECFF" fill-opacity="0.1"/>
</g>
<defs>
<linearGradient id="paint0_linear_15093_27082" x1="216.652" y1="94.9535" x2="159.799" y2="203.352" gradientUnits="userSpaceOnUse">
<stop stop-opacity="0"/>
<stop offset="0.91" stop-opacity="0.8"/>
<stop offset="1"/>
</linearGradient>
<clipPath id="clip0_15093_27082">
<rect width="248" height="200" fill="white" transform="translate(0.26709)"/>
</clipPath>
</defs>
</svg>
